<?xml version="1.0" encoding="UTF-8" standalone="no"?><!DOCTYPE svg PUBLIC "-//W3C//DTD SVG 1.1//EN" "http://www.w3.org/Graphics/SVG/1.1/DTD/svg11.dtd"><svg width="100%" height="100%" viewBox="0 0 337 65" version="1.1" xmlns="http://www.w3.org/2000/svg" xmlns:xlink="http://www.w3.org/1999/xlink" xml:space="preserve" xmlns:serif="http://www.serif.com/" style="fill-rule:evenodd;clip-rule:evenodd;stroke-linejoin:round;stroke-miterlimit:2;"><rect id="Artboard2" x="-0" y="0" width="336.208" height="64.618" style="fill:none;"/><clipPath id="_clip1"><rect x="-0" y="0" width="336.208" height="64.618"/></clipPath><g clip-path="url(#_clip1)"><rect x="-1.714" y="-0.884" width="53.929" height="19.434" style="fill:#e3dcff;"/><rect x="-1.714" y="46.116" width="53.929" height="19.434" style="fill:#e3dcff;"/><rect x="56.286" y="46.116" width="53.929" height="19.434" style="fill:#e3dcff;"/><rect x="114.286" y="46.116" width="53.929" height="19.434" style="fill:#e3dcff;"/><rect x="172.286" y="46.116" width="53.929" height="19.434" style="fill:#e3dcff;"/><rect x="230.286" y="46.116" width="53.929" height="19.434" style="fill:#e3dcff;"/><rect x="288.286" y="46.116" width="53.929" height="19.434" style="fill:#e3dcff;"/><rect x="26.286" y="23.116" width="53.929" height="19.434" style="fill:#e3dcff;"/><rect x="83.286" y="23.116" width="53.929" height="19.434" style="fill:#e3dcff;"/><rect x="140.286" y="23.116" width="53.929" height="19.434" style="fill:#e3dcff;"/><rect x="197.286" y="23.116" width="53.929" height="19.434" style="fill:#e3dcff;"/><rect x="254.286" y="23.116" width="53.929" height="19.434" style="fill:#e3dcff;"/><rect x="-1.714" y="23.116" width="24.292" height="19.434" style="fill:#e3dcff;"/><rect x="312.428" y="23.116" width="29.151" height="19.434" style="fill:#e3dcff;"/><rect x="56.286" y="-0.884" width="53.929" height="19.434" style="fill:#e3dcff;"/><rect x="114.286" y="-0.884" width="53.929" height="19.434" style="fill:#e3dcff;"/><rect x="172.286" y="-0.884" width="53.929" height="19.434" style="fill:#e3dcff;"/><rect x="230.286" y="-0.884" width="53.929" height="19.434" style="fill:#e3dcff;"/><rect x="288.286" y="-0.884" width="53.929" height="19.434" style="fill:#e3dcff;"/></g></svg>