<svg xmlns="http://www.w3.org/2000/svg" xmlns:xlink="http://www.w3.org/1999/xlink" xmlns:xodm="http://www.corel.com/coreldraw/odm/2003" xml:space="preserve" width="229.999mm" height="45.4064mm" style="shape-rendering:geometricPrecision; text-rendering:geometricPrecision; image-rendering:optimizeQuality; fill-rule:evenodd; clip-rule:evenodd" viewBox="0 0 22060.91 4355.26"> <defs>  <style type="text/css">   <![CDATA[    .fil0 {fill:white;fill-rule:nonzero}   ]]>  </style> </defs> <g id="Layer_x0020_1">  <metadata id="CorelCorpID_0Corel-Layer"></metadata>  <g id="_1828844943792">   <g id="_2239453429584">    <path class="fil0" d="M3688.62 900.97c10.59,17.99 8.12,43.76 4.45,66.25 -6.57,4.28 -23.26,7.56 -28.75,0 -5.52,-13.41 5.79,-17.91 11.16,-26.45 -0.3,-17.12 -8.73,-40.56 13.15,-39.78l-0.01 -0.02z"></path>    <path class="fil0" d="M3850.02 942.96c1.81,5.27 5.19,9.46 4.58,17.6 -8.86,6.26 -24.16,2.9 -33.33,-2.21 -9.34,-20.97 15.26,-19.29 28.75,-15.39l0 -0.01z"></path>    <path class="fil0" d="M3971.47 1373.9c-6.88,5.58 -8.87,6.1 -19.89,4.5 -23.39,-25.39 22.48,-38.4 19.89,-4.5z"></path>    <path class="fil0" d="M4285.25 2209.31c2.58,11.2 8.86,45.62 -8.74,44.24 -2.59,-7.05 -6.15,-13.32 -6.57,-22.19 3.81,-8.43 12.07,-13.02 15.31,-22.05z"></path>    <path class="fil0" d="M2862.11 372.66c6.88,1.18 6.15,10.03 8.73,15.39 9.65,-7.43 13.8,-10.45 20.06,2.29 13.57,-4.58 26.6,2.12 37.44,6.58 19.89,-14.7 50.51,17.21 75.1,11.16 7.36,-2.03 3.07,7.21 8.91,6.52 24.48,-19.15 37.62,16.34 68.35,11.08 10.55,2.76 13.62,12.92 22.35,17.67 9.95,-3.38 15.74,-10.63 30.92,-8.81 1.04,18.68 17.72,21.88 28.56,30.9 8.26,-2.51 9.17,-13.02 15.62,-17.6 11.46,0.31 12.55,11.12 26.45,8.82 4.76,33.42 28.32,48.17 51.11,63.99 14.83,-1.38 7.96,-19.49 10.55,-28.67 26.59,13.71 48.16,20.49 73.28,33.2 10.68,0.39 7.78,-12.83 17.6,-13.31 29.35,5.27 21.53,47.65 66.37,37.47 6.57,12.56 14.22,24 17.6,39.82 1.05,9.21 -12.71,3.54 -13.32,11.11 9.17,26.93 41,31.13 55.38,53 7.05,0.44 9.17,-3.88 17.73,-2.07 0.77,17.9 11.75,29.35 24.34,39.68 29.18,24.96 39,58.38 72.65,37.67 8.43,3.29 16.68,6.93 28.75,6.57 7.05,11.63 15,21.88 22.17,33.17 36.58,2.38 43.63,34.67 61.96,55.3 5.35,43.24 32.89,64.34 46.21,99.36 5.62,2.77 10.98,5.54 17.9,6.65 1.69,6.2 7.05,9.04 6.4,17.6 41.47,20.8 48.04,75.71 97.46,88.5 -8.74,45.05 33.33,55.39 41.9,90.64 13.62,9.26 30.62,14.83 35.51,33.03 10.11,-2.12 13.31,2.97 19.89,4.54 2.76,14.45 0.6,21.93 0,37.52 14.83,9.13 24.16,24.05 48.51,17.68 -9.04,44.36 13.93,86.52 50.92,90.54 -2.16,32.3 13.62,46.83 15.31,75.15 3.19,6.48 5.31,13.93 13.27,15.57 -4.23,16.68 8.13,22.73 13.19,33.07 19.13,36.63 34.13,83.06 53.09,119.47 -2.76,2.12 -6.6,3.59 -8.73,6.57 -18.81,-6.57 -26.34,-12.76 -50.8,-11.12 -6.4,-9.08 -17.29,-13.56 -24.61,-21.92 -4.14,-30.31 -19.44,-49.72 -32.89,-70.79 -2,-31.65 8.56,-51.93 -4.58,-72.95 -15,-24.26 -60.45,-14.92 -66.25,-41.97 -2.9,-14.7 10.69,-22.05 6.88,-41.94 -26.77,-28.36 -69.9,-6.74 -103.86,-15.52 -14.39,2.68 -12.71,21.66 -19.87,30.83 12.66,21.36 28.88,38.78 46.16,55.22 8.86,-1.9 11.33,-1.9 19.89,0 -0.91,25.94 9.65,40.68 24.48,50.93 9.21,-0.31 10.42,-8.57 19.89,-8.87 6.26,6.93 16.2,10.43 13.31,26.55 -8.12,2.99 -16.7,5.45 -20.19,13.15 0,11.23 5.05,17.29 9.04,24.34 10.07,2.81 8.56,-5.97 17.43,-4.35 15.61,9.64 6.57,43.54 24.46,50.84 3.39,25.96 -4.76,40.09 0,61.83 4.46,20.72 25.69,29.06 28.63,44.36 3.02,14.83 -4.76,22.57 2.29,37.52 8.08,16.9 21.71,35.89 35.18,44.24 -3.67,22.09 6.1,31.04 13.62,41.9 -0.35,11.5 -15.31,8.43 -17.77,17.6 12.4,31.04 3.81,117.73 44.19,117.16 14.41,0 19.59,-18.11 37.48,-19.81 1.25,-13.14 -2.43,-19.8 0,-28.75 9.34,-3.86 18.51,-8.04 24.46,-15.42 0.61,-20.57 -3.19,-36.88 -15.61,-44.15 10.25,-40.59 -22.19,-60.66 -52.93,-37.67 -2.12,-5.58 -3.02,-11.84 -2.43,-19.85 10.25,-10.72 28.46,-13.09 35.62,-26.55 10.38,-52.7 -16.65,-61.05 -35.62,-84 5.36,-10.46 16.82,-18.24 31.18,-13.36 12.88,-4.46 14.57,-20.45 37.36,-15.48 6.09,8.81 10.55,19.15 8.99,35.5 14.39,21.88 33.37,38.95 37.66,70.79 3.38,6.57 15.14,5.27 17.29,13.23 -22.78,56.6 42.5,58.04 31.18,117.1 12.23,12.14 7.36,24.78 9.04,48.63 1.56,28.37 14.41,59.58 0,90.59 15.62,58.63 -15.13,134.81 13.15,174.59 1.56,29.54 -2.59,53.4 -13.15,70.68 -5.35,-11.93 -2.47,-31.51 -9.04,-41.94 -20.01,0.48 -18.51,22.66 -28.75,33.02 6.45,37.19 -20.32,41.64 -22.3,70.86 -5.06,4.11 -10.55,-5.83 -17.6,-6.6 -19.59,8.89 -24.79,36.88 -15.48,57.54 18.38,-1.08 9.65,-29.06 33.08,-24.48 5.96,12.08 9.29,26.17 22.3,31.04 2.16,-1.68 5.06,-2.47 8.91,-2.29 10.21,-7.35 5.96,-29.52 26.41,-26.45 5.36,49.26 -32.55,83.23 -22.01,137.06 1.21,6.41 7.49,11.03 8.87,17.73 3.97,20.06 -13.93,35.8 -8.87,59.66 -18.8,12.84 -12.83,50.51 -30.9,63.96 -9.77,-7.78 -3.5,-31.65 -15.61,-37.62 -18.21,-2 -16.34,15.9 -24.16,24.46 -12.84,-2.76 -14.53,-16.38 -26.43,-20.06 -7.05,-1.52 -4.45,5.97 -11.2,4.58 2,28.63 -31.04,46.97 -10.98,72.86 12.84,3.81 10.07,-7.53 19.72,-6.62 10.55,0.48 5.49,16.81 6.7,26.64 -5.31,2.47 -7.31,8.74 -15.44,8.74 -2.42,29.18 -4.87,58.59 -15.61,79.68 2.64,18.39 20.35,9.47 31.04,11.03 -2.59,30.88 7.21,48.47 0,72.81 -5.31,1.81 -8.21,6.7 -17.55,4.58 -7.83,10.85 -6.27,25.68 -4.29,41.9 -20.06,10.12 -60.14,-15.61 -71.47,-20.62 0,-5.67 -5.97,-47.6 -2.9,-50.32 -2.12,-5.54 -17.43,-19.59 -17.91,-26.45 0.17,-55.56 23.13,-40.08 4.58,-95.95 -1.05,-13.45 25.25,-59.97 23.13,-74.03 6.58,-6.44 18.95,-6.26 24.61,-13.48 -0.78,-16.22 -1.09,-32.74 -10.98,-39.73 -15.18,4.28 -34.89,42.49 -37.67,59.06 -18.81,-18.68 -14.05,-61.53 -36.23,-77.14 0,-10.38 18.8,-51.11 18.8,-61.35 -0.77,-10.38 -29.4,19.89 -31.52,11.2 1.69,-19.46 -6.87,-8.57 -14.09,-18.99 -5.19,-34.59 22.35,-97.15 32,-120.54 -14.52,-18.68 9.17,-66.07 -17.43,-75.1 -20.53,5.06 -10.59,30.26 -7.05,46.36 -6.88,7.05 -28.93,63.34 -32.6,74.01 -20.8,-4.87 -25.98,-34.24 -44.19,-41.59 -7.21,-35.33 -25.73,-44.96 -33.69,-79.68 -2.59,-6.27 -15.44,-22.49 -17.91,-28.63 -13.31,-42.97 -16.65,11.16 -35.5,-25.98 -2.9,-3.06 -23.52,-59.23 -26.29,-62.12 -6.88,-23.26 -7.17,13.31 -20.97,-2.91 -5.19,1.21 -0.43,-21.88 -8.86,-23.86 -0.91,-7.96 -36.88,-4.45 -23.69,-29.23 -9.04,-15.61 3.19,15.14 0,-5.92 -14.22,-12.4 -27.12,-26.2 -35.51,-44.4 -12.83,-13.52 -40.38,16.78 -44.35,-5.97 -25.25,-9.85 -12.71,-43.58 -38.4,-53.13 1.53,-6.75 -13.61,-11.03 -11.63,-17.82 -17.47,-0.31 -27.84,-66.88 -44.35,-67.93 1.38,-6.57 20.35,28.84 20.61,23.61 -15.42,-11.23 -29.78,-20.4 -47.25,-29.45 -19.89,-37.8 -60.27,-41.91 -82.77,-76.92 -20.79,-5.15 -9.29,-24.16 -29.66,-29.54 0.91,-24.55 -30.74,-31.31 -41.29,-44.35 0.13,97.59 -45.44,-130.97 -46.99,-126.51 -5.97,-6.58 -10.55,-14.48 -13.15,-24.31 -5.97,0 -11.75,0 -17.6,0 -3.02,-12.03 -0.6,-23.61 -4.58,-33.2 -5.67,-13.62 -13.27,-13.5 -19.87,-28.63 -8.39,-20.28 -33.95,-25.55 -39.91,-50.84 -26.65,-4.93 -49.12,-14.19 -46.22,-48.65 -1.81,-5.67 -9.04,-5.67 -13.27,-8.82 -8.25,-44.44 -49.72,-65.93 -97.33,-64.16 -10.37,-7.05 -5.35,-17.6 -8.38,-26.55 -13.02,-31.74 -46.36,-37.79 -71,-57.39 -1.08,-39.6 -39.17,-41.9 -50.8,-70.82 -11.16,0.68 -17.6,6.18 -26.59,8.86 -43.58,-24.16 -69.44,-66.06 -130.49,-72.9 -4.76,-27.12 -32.9,-41.9 -61.78,-37.62 -7.36,-6.57 -7.36,-20.57 -17.77,-24.26 -17.73,12.32 -35.8,-5.4 -57.39,0 -23.83,-28.15 -82.27,-4.11 -103.84,-39.77 -10.38,0.85 -18.04,-1.13 -24.35,-4.41 -7.78,11.63 -16.33,21.97 -35.61,22 -8.09,-9.77 -13.32,-27.65 -39.61,-22 -3.38,0.77 -7.51,6.44 -13.32,6.74 -22.02,0.35 -35.48,-24.03 -48.49,-26.64 -17.9,-3.5 -37.94,5.27 -55.22,0 -11.17,-3.38 -16.36,-12.03 -24.34,-13.41 -20.96,-3.19 -30.6,8.91 -55.22,8.91 -16.98,0 -35.01,-12.03 -53.08,-4.45 -2.91,-7.87 -13.31,-12.93 -6.44,-24.26 -10.1,-8.49 -24.45,0.38 -33.5,0 -10.4,27.01 -39.9,35.1 -72.96,39.77 0.33,-3.76 -1.53,-5.75 -4.11,-6.57 -2.76,-16.43 14.99,-13.04 15.46,-26.55 1.06,-6.88 -6.13,-5.88 -6.89,-11.03 -7.49,9.9 -21.25,5.15 -32.89,2.17 -9.49,-0.61 -11.16,6.48 -17.74,8.86 -44.68,-13.06 -83.51,25.39 -115.03,30.99 -13.6,2.29 -29.97,-7.05 -46.51,-4.45 -14.83,2.29 -27.05,18.51 -35.17,28.75 -28.13,6.45 -57.52,11.8 -77.56,26.37 -31.36,-4.81 -62.11,-5.72 -77.24,13.23 -8.26,-7.78 -10.69,-21.53 -24.16,-24.16 -4.44,0.09 -2.75,5.97 -9.04,4.38 -1.53,18.59 2.45,31.51 2.29,48.63 -23.72,11.88 -43.58,27.12 -48.49,57.47 -31.36,-17.51 -66.25,-9.55 -70.82,30.96 -12.4,-2.82 -22.95,-2.29 -33.05,2.16 -2,5.58 -3.06,11.85 -2.3,19.89 7.81,4.67 13.61,11.38 22.2,15.52 0,5.2 0,10.38 0,15.44 -17.74,7.05 -38.25,14.83 -37.64,30.9 0.3,16.3 27.23,23.31 30.89,39.86 10.25,-4.63 24.93,-4.46 28.93,-15.57 -4.59,-27.68 16.98,-29.66 19.73,-55.22 20.04,4.92 27.53,-10.38 42.06,-4.38 28.92,-16.81 4.14,-39.38 0,-64.07 4.9,1.53 11.01,2 15.15,4.46 24.62,-30.92 60.73,-61.74 106.3,-64.21 31.37,-20.32 73.43,-29.88 114.73,-39.73 0,3.63 1.69,5.7 4.59,6.62 1.82,19.44 -12.84,22.44 -19.87,33.12 -20.51,-2.64 -31.06,4.35 -42.07,11.02 -16.66,-11.63 -30.89,2.91 -53.08,6.67 -9.31,1.59 -19.27,-1.61 -24.32,0 -18.67,6.65 -26.31,31.73 -37.47,42.06 -19.14,-2.9 -21.88,10.55 -28.77,19.81 4.29,4.07 8.88,7.26 17.75,6.65 9.17,-0.3 8.56,-10.64 15.42,-13.23 12.71,3.49 18.84,13.52 33.05,15.42 11.62,-5.4 14.53,-19.81 22.17,-28.67 58.6,-0.17 93.48,-24.55 141.5,-33.12 11.63,-10.42 19.28,-24.87 39.78,-26.64 4.59,9.34 7.19,20.66 15.46,26.64 13.91,-6.79 26.15,-15.05 31.06,-30.96 50.17,1 98.06,-10.21 143.64,-2.24 9.79,-0.61 11.46,-8.96 20.05,-11.12 15.58,11.5 47.86,5.63 65.91,0 18.2,13.5 49.56,3.16 75.12,4.45 2.75,4.83 5.96,9.04 4.58,17.68 -31.52,15.7 -64.7,-0.48 -101.87,2.21 -11.02,0.78 -22.8,7.83 -35.17,8.86 -16.06,1.34 -32.57,-3.29 -48.66,0 -6.7,1.34 -11.16,7.13 -17.43,8.91 -12.08,3.19 -29.04,-1.38 -42.05,0 -7.5,0.68 -9.95,4.72 -15.62,4.41 -8.56,-0.52 -20.05,-8.49 -28.6,-6.7 -19.27,4.02 -28.15,36.14 -50.93,30.88 -20.2,9.74 3.97,50.88 -17.46,57.59 -11.62,1.25 -13.76,-24.48 -33.51,-22.19 -12.37,11.2 -32.26,14.92 -28.59,42.02 44.22,17.03 -6.58,55.73 -35.35,59.72 -6.1,10.02 -4.43,28.15 -4.58,44.15 -13.47,12.14 -41.17,10.55 -57.21,19.97 6.26,-34.69 42.53,-59.37 33.03,-95.17 -28.89,-0.31 -45.27,4.81 -63.94,17.82 0,6.48 0,13.23 0,19.76 5.5,6.57 14.69,-3.86 19.9,2.29 -0.34,2.49 0.28,3.97 2.15,4.31 -0.61,17.6 -22.95,13.62 -22.05,33.22 0.48,14 18.21,15.61 17.58,28.75 -1.06,20.06 -32.87,23.21 -41.91,0 9.65,-0.31 25.25,-15.82 13,-30.96 -20.51,2.38 -23.55,21.97 -44.06,24.3 -3.21,7.26 -2,18.59 -2.14,28.72 -4.44,0 -9.04,0 -13.46,0 -3.06,-19.41 6.26,-26.24 4.43,-44.15 14.08,-4.19 76.64,-48.94 39.93,-61.87 -23.57,-8.34 -52.79,27.45 -64.25,30.83 -20.18,-19.49 21.26,-30.7 19.9,-53 21.72,-3.45 26.6,-23.38 42.2,-33.2 7.81,-0.61 7.96,6.74 15.29,6.74 14.53,0.52 22.17,-5.75 28.92,-13.31 37.03,-1.18 68.98,-7.49 88.27,-26.56 1.53,-9.16 6.74,-30.26 -4.45,-33.03 -13.91,6.2 -43.12,15.53 -61.79,24.34 -38.54,-9.51 -52.15,31.95 -92.85,15.44 -14.68,7.48 -31.98,12.32 -35.5,30.9 -15.58,-0.48 -14.98,14.22 -19.72,30.96 -3.98,13.93 -12.1,26.93 -11.16,41.9 0.61,12.24 12.37,22.58 4.58,33.22 -23.55,3.88 -42.06,12.4 -41.92,39.95 -26.31,23.23 -61.63,37.15 -86.27,61.79 -11.46,23.78 7.05,34.5 15.46,50.84 -16.22,11.71 -14.23,41.86 -31.06,52.93 -7.64,-1.11 -7.81,-9.69 -15.44,-10.9 -16.37,4.29 -24.15,21.23 -17.6,41.99 -22.63,3.81 -38.86,14.31 -48.79,30.88 -15.29,-2.82 -14.22,-22.4 -22.04,-33.13 -9.47,-3.81 -26.01,-0.6 -33.19,-6.6 -7.03,7.4 -5.98,23.16 -17.46,26.37 1.69,-17.23 -3.36,-41.59 13.17,-44.06 0.91,-32.21 11.93,-54.39 28.78,-70.83 -1.99,-15.09 1.52,-24.78 6.43,-33.12 5.64,-0.25 7.02,3.5 11.16,4.41 21.09,-21.71 -0.33,-72.65 24.16,-90.54 14.67,7.48 22.78,21.4 37.77,28.67 37.03,-22.1 43.45,-79.01 44.21,-126.04 -28.45,-3.29 -28.3,20.57 -24.46,44.19 -7.19,10.35 -28.47,5.97 -37.64,4.46 -6.11,-19.72 18.05,-27.68 15.46,-50.85 16.22,-4.35 22.19,-19.28 26.77,-35.29 8.58,0.18 15.29,2.17 19.87,6.58 12.1,-5.58 30.61,-31.22 11.17,-41.99 -7.19,0.78 -13.46,10.12 -20.03,4.38 -2.45,-28.46 30.59,-39.7 42.05,-61.74 2.29,-33.17 17.29,-53.36 26.45,-79.52 6.73,1.53 4.45,1.53 11.02,0 14.53,-36.88 33.65,-69.42 52.94,-101.83 4.87,-1.52 11.62,-1.9 15.61,-4.5 5.81,-13.18 17.28,-20.83 28.59,-28.61 -1.06,-11.63 3.98,-16.73 2.45,-28.75 10.88,-1.99 15.15,1.08 22.04,-6.57 -2.29,-38.4 34.57,-37.67 39.6,-68.54 5.52,-0.47 6.91,3.42 11.02,4.5 12.24,-26.29 30.16,-46.82 55.38,-59.8 8.4,-31.13 50.64,-28.75 59.66,-59.57 19.28,-9.55 34.86,-22.44 48.47,-37.71 5.52,-0.65 8.58,-3.45 15.62,-2.07 3.36,-16.4 22.48,-17.51 24.15,-35.59 31.98,-1.08 40.71,-25.76 66.4,-32.95 0.9,-9.51 -2.45,-23.17 4.43,-26.55 10.1,-1.29 7.64,9.74 15.46,11.07 9.65,-8.38 17.73,-14.96 28.92,-11.07 10.1,-5.27 16.05,-14.79 19.75,-26.45 26.15,-3.59 41.45,-28.84 64.1,-28.84 5.81,-2.29 7.34,-8.86 11.01,-13.19 15.88,3.45 21.7,-9.08 30.88,0 14.7,-16.56 47.43,-14.44 66.54,-30.96 7.51,5.54 18.82,5.54 26.47,0 18.04,23.95 76.03,-1.99 90.72,22.19 24.48,-4.98 19.13,-58.49 -4.45,-59.8 -0.91,-11.8 -3.82,-21.36 -4.58,-33.2 11.16,2.9 10.55,17.67 19.71,22.09 14.23,4.38 14.87,-11.38 28.94,-2.21 6.26,-1 10.1,-4.58 11.01,-11.02 7.05,-0.61 4.74,8.56 11.16,8.81 10.41,-2.76 18.05,-20.05 24.16,-19.87 7.81,2.42 4.59,16.12 13.48,17.81 20.33,1.13 26.61,-11.63 35.16,-22.19 30.14,-1.59 49.72,-11.07 68.54,6.58 9.94,1.16 9.94,-7.78 17.42,-8.87 28.02,7.65 52.5,18.81 73.42,33.25 32.17,-8.26 68.4,6.36 90.46,26.55 24.46,-9.08 37.44,9.95 50.75,17.6 5.54,3.38 14.09,1.48 19.89,4.45 15.48,7.78 24.34,23.57 37.62,30.96 30.62,-8.08 50.8,30.53 81.85,15.53 7.65,0.39 8.26,7.87 15.48,8.81 4.76,-3.54 6.4,-9.64 15.26,-8.81 22.35,16.3 24.96,44.24 59.67,44.06 5.52,5.87 8.12,14.31 13.31,20.05 17.91,-3.54 24.48,12.24 37.62,6.41 7.83,13.93 3.39,39.47 4.46,59.83 8.43,-0.48 16.7,-20.37 24.34,-28.7 9.47,0 19.11,0 28.75,0 4.58,12.92 10.38,24.72 17.6,35.28 -13.19,22.78 -43.76,28.15 -61.67,46.44 -9.04,0.73 -6.15,-10.11 -13.5,-10.93 -4.4,2.9 -10.37,4.11 -15.42,6.57 -15.61,-13.84 -38.69,-16.82 -57.51,-11.12 -0.17,-18.71 52.32,-39.52 17.73,-66.23 -13.32,13.19 -26.77,26.16 -50.81,28.7 -10.5,-4.24 -13.74,-11.88 -24.43,-13.23 -12.11,-1.69 -22.65,9.25 -35.37,8.69 -12.55,-0.44 -18.49,-14.83 -33.15,-10.94 2.9,-48.17 -69.19,-35.33 -92.57,-64.07 -21.42,8.09 -43.29,-8.26 -57.68,4.45 -5.79,5.11 -8.26,-6.35 -15.44,-6.65 -16.7,17.63 0.61,46.05 0,72.94 27.25,2.69 37.32,-45.88 57.39,-11.23 -2,7.53 -3.55,15.39 -6.45,22.26 11.63,15.09 49.55,15.39 66.06,6.57 3.98,7.96 7.53,16.22 13.62,22.19 38.09,-14.22 74.49,16.09 108.18,19.89 1.64,7.64 6.57,11.63 2.29,19.97 9.65,22.39 45.57,17.63 70.52,11.02 5.06,6 8.26,14.05 11.32,22.01 23.52,-9.04 34.24,17.51 52.93,4.45 3.02,21.02 24.31,24.16 32.85,39.78 10.25,1.29 9.65,-8.34 20.24,-6.75 10.38,37.41 43.29,52.46 77.4,66.37 3.81,23.06 -17.17,27.93 -9.04,48.74 13.02,14.09 27.97,0.78 37.47,-6.74 13.93,1.64 18.2,12.8 24.31,22.14 24.64,8.17 40.99,24 57.68,39.78 22.78,-2.09 33.81,7.08 48.65,13.27 8.26,29.49 11.92,49.33 35.18,61.91 12.84,7 30.14,4.71 42.07,13.23 15.61,11.16 24.48,26.97 37.47,37.52 7.65,-1.76 8.39,3.29 15.62,2.21 8.38,-3.97 5.02,-19.63 15.26,-22.19 9.95,2.25 17.91,4.33 24.53,4.55 2.9,-2.09 4.28,-5.84 6.57,-8.82 -13.5,-15.61 -15.48,-37.14 -26.64,-53.05 -4.29,-6.13 -11.46,-6.04 -19.72,-13.18 -21.75,-18.9 -46.83,-42.42 -72.98,-53.05 -9.17,10.16 -17.6,20.92 -37.62,19.81 -13.32,-20.29 8.86,-26.86 17.72,-37.58 1.21,-7.1 -1.68,-10.33 -2.29,-15.42 -24.94,-17.73 -48.34,-37.27 -66.4,-61.88 -6.88,-0.38 -9.6,-4.97 -17.43,-4.45 -5.35,-7.36 -12.23,-12.84 -13.32,-24.31 -12.97,-2.68 -24.3,-6.74 -26.59,-19.96 -30.44,-5.59 -44.36,-11.71 -72.98,-26.37 -25.25,-13.19 -27.37,-18.68 -46.36,2.21 -7.48,0.3 -7.17,-7.49 -13.31,-8.96 0.17,-10.85 10.11,-16.38 4.45,-26.45 -8.26,-10.25 -37.19,0.13 -48.82,-6.57 -1.68,-6.36 -0.6,-19.11 4.58,-24.43 29.54,6.65 31.04,-14.57 57.56,-10.98 7.17,-1.69 6.57,-11.03 11.16,-15.53 -2.77,-9.9 -14.53,-10.93 -17.77,-19.85 24.34,-13.52 59.24,3.93 81.71,24.26 6.75,6.27 9.04,17.99 15.44,24.26 10.72,10.64 26.45,11.63 31.22,24.34 22.95,-2.54 35.8,15.44 50.46,24.39 4.14,2.38 9.04,0.13 13.19,2.12 16.04,7.05 24.46,28.02 37.79,37.58 27.8,0.2 32.12,24.03 53.22,30.94 0,22.88 15.74,28.94 35.33,26.55 11.02,13.84 15.74,34.42 30.74,44.24 5.19,0 10.42,0 15.42,0 34.77,32.43 76.67,57.59 95.17,106.03 -23.38,15.04 -30.74,-17.56 -50.93,-19.77 -7.96,-35.71 -33.33,-53.61 -66.06,-64.16 -15,33.6 16.52,56.12 41.77,64.16 1.33,11.76 7.48,18.9 19.89,19.77 3.49,16.33 5.3,34.53 29.04,31.03 8.69,13.15 14.36,29.58 32.85,33.13 13.62,-12.76 -5.97,-37.96 11.03,-50.8 47.26,19.11 44.97,87.72 97.15,101.55 8.73,32.12 31.95,49.21 42.19,79.55 7.05,3.55 9.51,0.92 17.6,0.1 5.97,17.9 12.83,34.19 30.9,39.77 15.44,0 1.05,-29.92 19.89,-26.45 0.91,-22.95 -6.74,-37.67 -11.03,-55.38 0.31,-4.76 -7.82,-0.91 -10.85,-2.07 -5.97,-21.62 -30.74,-24 -40.26,-42.07 0.61,-15.22 15.91,-15.34 24.82,-22.01 3.64,-20.35 -8.73,-23.86 -17.95,-30.99 -7.31,0.78 -13.56,2.25 -17.72,6.62 -12.67,-9.42 -18.38,-25.44 -33.2,-33.12 0,-25.64 22.48,-20.51 19.87,-44.31 -2.29,-23.23 -31.64,-34.03 -48.34,-48.47 -19.41,-38.18 -39.77,-75.41 -75.09,-97.38 -1.38,-8.12 -4.88,-14.47 -9.04,-19.76 -11.16,-3.19 -19.11,-4.98 -31.04,-2.21 -25.07,-48.54 -69.6,-77.87 -106.02,-115.05 -2.9,2.97 -9.46,2.24 -15.57,2.24 -10.9,-19.15 -57.37,-39.29 -70.52,-11.02 -12.88,-12.03 -25.42,-17.68 -22.17,-37.58 1.64,-10.75 18.46,-14.66 13.14,-28.75 -18.99,-4.79 -32.29,-23.57 -55.25,-17.72 -13.45,-18.99 -36.42,-16.3 -59.5,-22.1 -23.38,-5.92 -42.19,-26.24 -55.38,-39.78 -14.36,-0.3 -20.8,-8.52 -30.86,-13.23 -10.55,5.67 -24.19,8.47 -42.07,6.62 0,-14.66 0,-29.49 0,-44.2 -2.47,0.39 -3.86,-0.43 -4.45,-2.16 -10.86,-1.42 -12.24,6.45 -19.72,8.82 -15,-20.29 -54.48,-23.57 -86.12,-19.89 -10.72,-8.78 -23.74,-14.74 -31.09,-26.55 -23.52,4.35 -44.49,-11.07 -61.78,-19.89 -35.62,6.36 -45.4,-13.61 -64.25,-24.39 -7.17,0.91 -7.17,9.13 -15.27,8.87 -16.38,1.56 -19.44,-10.03 -26.8,-17.6 -32.55,-8.26 -54.61,-14.83 -81.5,-26.51 0,-3.59 1.05,-8.52 -2.16,-8.91 0.31,-6.35 8.86,-4.02 15.31,-4.31 20.49,15.94 53.69,7.56 66.37,4.31l0.05 0.01zm-406.58 90.67c4.28,0.91 5.35,4.72 10.7,4.41 3.66,-4.67 -0.48,-15.99 -6.29,-17.72 -1.06,4.58 -5.65,6.26 -4.43,13.31l0.02 -0.01zm59.52 26.6c7.17,-5.29 15.75,-9.47 17.6,-20.03 -3.71,-5.67 -14.21,-4.58 -22.05,-6.57 -7.05,7.4 -4.76,23.17 4.45,26.6zm112.71 -4.5c9.34,1.08 16.22,0 15.44,-8.91 -2.73,-5.31 -8.99,-7 -15.44,-8.78 0,5.88 0,11.8 0,17.68l0 0.01zm-320.47 48.64c-25.39,-4.76 -41.59,-18.81 -61.94,-28.93 -12.23,14.44 -29.37,35.1 -50.64,33.28 -12.98,-1.08 -19.13,-17.81 -35.47,-13.24 -18.67,26.17 40.07,59.02 59.49,41.99 0.31,-12.11 -3.07,-28.36 9.02,-28.75 12.56,3.59 16.37,16.13 24.33,24.31 32.27,0.6 59.97,9.21 55.22,-28.67zm258.69 19.87c-17.6,-12.23 -46.96,-7.82 -42.06,11.03 3.66,13.84 18.94,4.88 28.56,8.94 13.02,5.2 8.91,18.51 20.06,24.16 33.22,-16.38 62.39,-2.54 95.17,-2.16 6.27,5.06 4.88,18.38 15.26,19.81 9.51,-15.44 20.24,-29.84 19.89,-55.3 -7.17,-5.68 -16.33,-9.47 -26.6,-6.49 -5.67,-0.47 -13.18,-19.06 -15.17,-8.89 -10.07,5.75 3.98,27.54 -9.17,33.2 -20.49,1.86 -26.75,-13.36 -46.16,-6.62 -19.15,-6.65 -24.34,-26.32 -22.19,-48.69 -23.74,-10.3 -7.83,23.52 -17.6,30.99l0.01 0.02zm-137.06 22.01c16.06,-12.62 52.32,11.71 50.93,-26.6 -18.51,-2.76 -39.77,-0.91 -53.23,-17.58 -14.22,8.69 -14.22,38.22 2.3,44.19l0 -0.01zm-73.14 -26.59c0,5.36 -3.68,6.7 -2.15,13.37 24.79,13.31 30.42,-30.88 2.15,-13.37zm700.64 92.84c1.33,9.89 2.29,20.15 13.61,20.06 5.49,-2.39 7,-9.13 6.4,-17.82 -5.35,-2.07 -14.22,-7.21 -20.01,-2.24l0 0.01zm-419.92 44.35c17.6,12.19 32.55,-8.34 44.35,-15.61 -0.6,-31.44 -49.72,-11.55 -44.35,15.61zm-477.27 11.03c-3.23,7.13 -1.99,18.51 -1.99,28.75 5.5,2.29 10.38,5.27 19.4,4.45 7.81,-5.15 11.63,-33.42 0,-37.67 -5.8,1 -11.45,3.25 -17.42,4.46l0 0.01zm1076.61 33.2c8.86,6.05 22.01,8.78 32.85,2.07 -1.21,-19.96 -18.51,-24.34 -28.75,-35.28 -6.09,6.26 -3.97,20.88 -4.11,33.2l0 0.01zm-1171.76 -4.45c17,1.48 29.07,-2.12 35.64,-11.07 0,-6.58 -5.81,-7.58 -6.74,-13.24 -27.05,-5.92 -43.74,3.38 -28.9,24.31zm709.62 -2.28c10.9,-4.38 6.92,-23.39 -4.41,-24.31 -7.21,6.79 -8.6,22.21 4.41,24.31zm-645.37 4.53c4.45,-3.67 7.5,-9.21 6.57,-17.86 -4.11,-1 -3.82,-6.18 -11.16,-4.35 -4.13,6.35 -8.26,22.05 4.58,22.21zm490.7 2.21c5.05,0.6 9.04,4.19 13.02,0 1.25,-9.55 -5.68,-10.42 -11.03,-13.23 1.56,6.65 -3.5,6.4 -1.99,13.23zm234.22 13.32c0,-11.12 -14.7,-7.65 -22.19,-11.25 -1.21,11.68 15.14,14.57 22.19,11.25zm-822.23 52.93c-2.28,-9.74 -14.98,-14.41 -28.59,-11.12 -20.2,34.02 35.79,43.35 28.59,11.12zm945.65 -8.97c2.77,14.53 8.91,25.39 15.91,35.55 25.55,0.86 38.27,14.53 53.09,26.55 33.03,-4.35 45.26,24.87 63.77,41.86 22.53,-2.69 29.83,9.95 48.82,11.16 -0.31,-41.07 -28.93,-53.69 -70.82,-53 -4.29,-19.49 -26.77,-20.62 -31.04,-39.82 -33.22,0.91 -50.03,-26.24 -79.74,-22.26l0 -0.03zm-1029.61 26.51c-38.71,-29.96 -68.08,25.12 -108.3,6.83 -13.47,15.31 -38.41,6.96 -59.82,15.31 -4.29,18.2 3.67,33.9 8.86,48.74 14.07,5.88 20.81,-4.76 33.2,-6.65 8.57,2.11 11.95,9.04 19.9,11.07 24.48,-0.39 37,-42.11 57.51,-41.99 14.52,0.09 12.69,13.72 26.63,19.89 11.16,-1.59 19.13,-6.05 26.3,-11.07 3.06,-17.51 1.08,-28.36 -4.28,-42.11l0 -0.02zm828.62 31.08c11.5,1.21 19.89,-1 17.9,-13.31 -3.97,-5.67 -14.04,-4.98 -19.87,-8.74 -0.92,12.19 -1.53,12.8 1.99,22.05l-0.01 0zm692.04 46.36c6.75,4.19 11.2,11.03 22.06,11.16 3.81,-4.35 1.52,-14.61 1.99,-22.26 -11.93,2.77 -12.55,-6.23 -21.88,-6.57 -1.38,5.36 -3.19,10.12 -2.17,17.68zm-300.7 17.6c12.97,3.59 14.21,18.43 31.04,17.72 15.31,-22.17 -32.43,-56.12 -31.04,-17.72zm50.93 22.19c1.38,19.11 13.62,27.65 30.92,30.96 4.41,-3.59 5.02,-11.16 4.28,-19.81 -9.04,-5.49 -24.34,-14.83 -35.19,-11.16l-0.01 0zm-201.18 28.76c9.21,-1.86 11.02,-11.16 11.02,-22.1 -13.45,-17.17 -25.98,17.21 -11.02,22.1zm223.18 19.96c-18.63,32.17 18.99,60.71 48.69,66.25 -8.73,-29.52 -19.44,-57.24 -48.69,-66.25zm-44.18 83.79c0,-8.69 -2,-15.52 -11.03,-15.34 -6.4,7.26 5.97,19.89 11.03,15.34zm-134.95 50.98c11.16,1.2 7.51,-17.91 0,-17.68 -1.34,5.05 -4.41,13.4 0,17.68zm636.53 0c5.36,-7.01 0.92,-19.07 -8.73,-17.68 -1.81,10.42 1.38,16.33 8.73,17.68zm-318.18 11.07c0.3,-4.07 7.48,-1.43 8.86,-4.46 -0.61,-10.37 -1.53,-20.53 -13.45,-19.85 1.38,8.01 -3.25,22.69 4.58,24.31zm170.27 -4.45c4.41,0 2.72,5.97 8.99,4.46 1.68,-2.51 2.77,-5.97 2.16,-11.07 -3.06,0 -4.88,-1.09 -6.74,-2.25 1.68,6.05 -4.41,4.55 -4.41,8.86l0.01 0zm-117.35 61.83c5.35,-0.57 4.11,-7.64 11.32,-6.53 0,-7.48 0,-14.74 0,-22.09 -22.49,-4.98 -34.13,-20.62 -48.65,-33.22 -19.89,30.53 12.84,54.91 37.32,61.83l0.01 0.01zm274.12 -10.93c5.49,0.68 8.43,3.38 15.77,2.11 2.73,-8.69 7.49,-15.82 6.4,-28.78 -16.09,-14.57 -26.75,6.62 -22.17,26.68l0 -0.01zm-99.45 22c5.52,-0.82 4.92,4.07 11.02,2.17 6.27,-8.87 7.78,-32.43 -6.4,-33.04 -7.35,3.67 -9.34,22.19 -4.62,30.88zm51.11 79.54c13.31,16.3 23.26,31.92 43.92,31.01 -2.77,-40.56 -25.12,-61.74 -41.94,-88.38 -28.93,19.92 -23.1,32.29 -1.99,57.37l0.01 0zm-141.64 -30.9c24.46,8.04 24.78,40.25 48.51,48.59 0,-8.73 0,-17.68 0,-26.55 -24.82,-6.15 -12.11,-49.33 -48.51,-44.15 -3.98,7.44 1.38,11.32 0,22.1l0 0.01zm-1911.68 28.7c4.11,-0.38 4.74,2.51 8.72,2.21 4.13,-7.87 2.91,-19.11 -6.57,-19.8 -1.39,5.27 -3.07,9.94 -2.15,17.58l0 0.01zm2426.58 26.68c-23.13,-8.34 -26.16,20.19 -24.48,44.06 8.26,4.35 21.4,9.64 29.06,2.21 5.35,-17.43 3.06,-33.25 -4.58,-46.26l0 -0.01zm-338.08 50.71c6.88,9.26 11.63,20.66 22.19,26.55 7.36,-14.61 7.05,-31.9 -2.16,-44.27 -14.53,-6.36 -17.26,6.4 -20.03,17.72zm88.24 -4.44c-28.56,17.25 -56.29,44.24 -48.34,90.57 13.19,10.55 21.28,25.39 26.45,44.2 4.76,4.14 15.48,2.24 17.43,8.81 -1.95,14 -8.52,32.05 0,44.36 7.05,-1.21 7.96,3.88 15.65,2.21 8.52,-7.69 14.36,-18.11 26.45,-22.1 10.25,11.07 24.59,18.28 39.91,24.34 5.49,-15.9 8.43,-52.36 -13.14,-57.63 -5.24,6.15 -16.09,6.62 -22.19,11.11 0,-7.35 -7.21,-7.43 -6.74,-15.52 7.35,-15.22 13.61,-20.1 13.48,-30.83 -0.95,-26.45 -42.11,-34.81 -39.77,-55.3 1.21,-13.15 15.86,-7.74 17.43,-24.26 -9.82,-5.68 -12.84,-18.21 -26.65,-19.97l0.02 0zm-229.89 139.3c-1.25,-4.58 3.64,-15.39 -4.33,-13.31 -3.19,3.38 -3.63,15.21 4.33,13.31zm150.38 35.23c-59.54,-39.77 -28.5,73.46 8.99,66.41 5.35,-22.48 10.42,-45.53 19.59,-64.12 -5.36,-5.4 -20.2,-5.78 -28.58,-2.29l0.01 0zm218.86 75.19c6.75,-4.19 5.97,-16.05 6.45,-26.55 -21.57,-23.78 -31.04,25.16 -6.45,26.55zm-90.36 -19.85c-2.47,2.64 0.44,8.01 -2.33,13.27 -7.36,12.71 -18.94,20.06 -17.72,30.99 1.2,12.84 15.61,19.49 26.27,26.45 9.65,-4.67 18.21,-10.02 29.11,-13.23 25.37,17.72 -20.51,51.93 8.56,68.52 3.38,-3.45 8.86,-4.76 15.44,-4.45 11.45,-32.82 -3.5,-67.41 -15.44,-90.59 6.57,-12.66 16.81,-21.62 17.72,-39.73 -20.19,-2.47 -46.51,-8.26 -61.62,8.74l0.01 0.02zm-148.38 90.67c12.55,0.68 12.55,-11.16 15.42,-19.94 -17.42,-7.82 -1.37,-35.8 -24.16,-37.56 5.06,21.71 -4.58,44.58 8.74,57.51l0 -0.01zm79.52 50.71c10.25,20.35 39.17,34.37 44.05,48.63 -1.33,8.26 4.15,9.51 2.47,17.82 13.74,-2.59 7.35,-25.29 8.86,-39.73 -13.02,-25.33 -18.99,-57.93 -46.17,-68.71 -1.25,-10.75 -1.86,-21.78 -11.2,-24.3 -18.8,-3.16 -5.19,51.93 2,66.28l-0.01 0zm130.48 -13.24c-12.66,18.9 -0.12,45.62 15.48,55.18 38.7,-10.81 12.08,-50.2 -15.48,-55.18zm336.08 90.59c9.82,-18.76 0.48,-46.92 -17.72,-50.63 -8.43,16.52 -8.74,54.9 17.72,50.63zm-316.2 8.86c7.05,-1.08 7.65,3.98 15.31,2.29 -0.12,-8.86 5.97,-19.41 0,-26.45 -11.32,-4.5 -19.72,12.36 -15.31,24.16zm128.37 143.64c8.22,-28.75 20.03,-87.63 -20.06,-88.33 -10.37,-14.21 -29.22,-72.5 -53.09,-70.69 -25.39,1.77 -17.25,49.81 -28.58,72.9 28.46,23.26 -15.77,41.99 -15.29,64.12 0,10.07 13,18.94 15.29,28.67 4.76,20.57 -3.06,41.68 11.03,55.3 -1.38,27.54 -6.62,68.83 8.86,88.23 8.69,-0.31 21.4,-13.98 28.75,-1.99 -3.67,13.31 -17.29,16.68 -20.06,30.74 15.31,5.35 36.1,-1.95 35.51,20.06 -0.48,11.63 -18.51,15.42 -26.45,28.61 -10.69,17.11 -6.27,30.73 -9.04,48.64 25.55,-3.67 20.06,-46.05 53.09,-35.19 9.17,-13.13 4.46,-39.76 11.03,-55.37 5.35,-4.11 13.02,2.59 19.89,-2.12 10.85,-18.2 -1.56,-35.98 -8.86,-48.73 19.54,-29.23 -1.26,-56.99 -11.03,-81.76 16.81,-9.17 18.03,-33.98 9.04,-53.1l-0.02 0.01zm79.52 -2.07c24.94,2.59 18.06,-30.83 6.57,-37.62 -9.59,4.88 -11.28,25.29 -6.57,37.62zm86.12 50.71c17.47,3.54 22.95,-1 33.08,-8.86 0.43,-41.77 -55.38,-33.73 -33.08,8.86zm39.65 42.07c18.33,-6.96 39.78,-22.05 33.47,-46.36 -12.55,-2.9 -22.32,5.83 -35.46,-2.21 -2.34,15.14 -14.7,40.29 1.99,48.55l0.01 0.01zm-15.61 31c-15.31,-17.38 -36.42,-2.54 -61.49,-8.94 -11.8,31.64 -45,89.15 -6.74,112.89 17.29,-2.94 17.42,-22.49 37.79,-22.35 10.98,7.36 13.57,23.1 24.16,31.21 16.95,-20.48 48.77,-45.73 26.16,-79.68 12.67,-8.3 31.65,-35.36 9.17,-46.43 -12.55,1.42 -16.68,11.23 -29.04,13.31l0 -0.02zm-141.05 185.6c1.99,0 4.41,0 6.4,0 0.6,-5.49 0.6,-10.9 -4.41,-11.16 -1.08,4.71 -6.26,7.17 -1.99,11.16zm41.76 163.4c-16.7,-35.18 -44.53,38.83 -10.9,39.91 9.51,-7.35 11.5,-22.34 10.9,-39.91zm97.42 39.9c8.91,-12.23 7.17,-33.51 -2.29,-44.22 -39.13,-3.64 -37.92,63.82 2.29,44.22zm-77.23 26.46c3.98,1.82 7.78,3.67 12.98,4.46 11.63,-6.15 20.19,-34.89 2.16,-39.65 2.9,19.59 -19.44,14.21 -15.14,35.18l0 0.01zm-33.5 6.74c-33.2,-12.11 -35.5,44.06 0,41.9 17.91,-6.74 12.08,-37.62 0,-41.9zm2.43 187.82c10.55,-1.2 6.57,-16.94 10.9,-24.46 -3.67,0 -7.21,0 -10.9,0 -2.29,5.83 -4.28,18.97 0,24.46z"></path>    <path class="fil0" d="M2327.19 421.31c7.02,2.54 12.23,6.84 17.73,11.03 -2.91,7.56 -15,9.74 -22.2,6.65 1.25,-6.18 3.23,-11.55 4.46,-17.68l0.01 0z"></path>    <path class="fil0" d="M1370.35 478.87c3.38,12.75 30.28,46.25 24.48,50.07 -10.86,22.44 -24.94,41.38 -48.65,50.88 -5.34,-0.77 -8.25,-3.67 -15.6,-2.38 -8.27,1.99 -9.18,11.46 -13,17.72 0.61,11.2 10.85,12.64 8.7,26.55 -13.91,9.95 -30.6,10.35 -35.34,26.56 -2.28,7.08 2.32,16.09 0,24.16 -4.43,14.92 -18.2,24.46 -19.72,37.56 -22.33,5.2 -75.1,-19.15 -93.46,-32.29 -19.75,14.92 -39.02,30.06 -52.94,50.88 -13.76,1.29 -13.93,-10.98 -24.32,-13.31 -14.41,22.78 -31.68,47.94 -72.81,37.52 -7.65,15.39 -29.97,15.61 -35.34,33.12 -6.89,1.69 -6.44,-3.71 -13.32,-1.99 -5.19,27.12 51.71,19.44 33.04,52.88 -12.09,0.52 -26.61,-1.48 -35.34,2.21 -8.7,-9.34 -3.67,-19.37 -4.45,-35.33 -37.62,-16.38 -29.97,41.07 -66.22,26.45 -16.68,8.86 -1.99,31.13 -4.44,41.97 -25.09,-7.96 -36.1,20.29 -57.52,28.84 -1.69,-8.34 -8.88,-11.71 -11.02,-20.06 9.47,-15.57 23.1,-26.89 39.78,-35.23 7.96,-21.09 24.16,-55.17 -2.15,-68.61 -6.88,0.3 -9.8,5.15 -17.75,4.5 -8.4,-27.45 10.7,-44.97 35.34,-46.4 13.79,18.72 46.67,18.21 77.42,19.89 29.83,-22.19 97.29,-28.02 70.51,-86.21 21.88,-18.11 49.57,-2.69 82.01,-2.29 11.62,-6.84 18.37,-18.39 26.44,-28.63 -1.67,-10.37 -10.85,-12.75 -19.87,-15.34 22.94,-12.5 51.24,-19.67 59.81,-46.61 6.89,0.57 12.24,2.29 17.58,4.54 12.85,-9.42 22.65,-21.66 24.5,-42.06 17.57,-6.65 34.41,-1.21 48.47,-6.65 13.32,-5.15 20.34,-23.1 37.32,-19.97 15.31,-14.92 20.05,-40.47 57.82,-32.95l0.03 -0.02z"></path>    <path class="fil0" d="M1498.38 525.2c7.5,1.43 11.47,6.36 22.19,4.41 2.29,7.05 4.44,14.62 4.44,24.34 -5.65,-0.91 -5.05,3.9 -11.16,2.29 -8.73,-3.88 -12.7,-12.4 -19.89,-17.81 -0.61,-6.57 4.88,-6.88 4.44,-13.24l-0.01 0z"></path>    <path class="fil0" d="M3483.2 622.57c8.09,-1 11.28,9.94 6.58,15.34 -3.39,-3.97 -8.13,-6.88 -6.58,-15.34z"></path>    <path class="fil0" d="M1189.08 744.12c26.31,20.1 33.66,59.61 18.82,69.83 7.94,29.96 -8.58,38.91 -8.73,66.28 -22.5,15.9 -23.55,53.32 -37.79,77.35 -11.16,-5.15 -71.45,-48.85 -89.5,-45.65 -4.58,0.82 -34.41,21.57 -44.2,33.2 -4.9,5.58 -5.21,13.27 -9.04,17.65 -9.47,11.5 -23.53,16.47 -24.14,28.7 -0.33,14.74 19.71,19.49 8.7,35.33 -18.04,3.38 -15.6,-15.69 -28.45,-15.39 -16.7,0.48 -11.78,17.08 -24.32,28.75 -12.09,2.34 -9.02,-9.98 -20.2,-8.98 -11.47,9.16 -1.68,30.56 -8.41,46.56 -21.57,2.54 -41.47,17.29 -35.65,53.09 -7.34,3.81 -13.28,8.78 -22.02,10.98 -2.88,9.42 0.33,10.94 0,22.14 3.68,6.48 14.39,6.27 19.89,10.98 5.82,11.63 -0.6,23.17 6.59,31.01 35.34,-0.31 20.79,-36.71 41.91,-50.88 11.31,-0.82 15.46,5.22 22.17,8.89 7.81,-15 6.57,-39.17 15.48,-53.09 7.02,1.53 6.41,-3.76 13.15,-2.21 16.36,-25.64 34.86,-49.2 50.93,-75.09 31.5,5.7 26,-42.76 50.93,-50.81 12.55,18.9 16.98,33.81 20.19,57.68 -28.6,36.32 -22.92,106.66 -46.82,148.09 7.67,22.39 3.07,49.3 -10.86,66.2 -8.4,39.65 -1.53,94.18 -17.43,125.99 -8.73,1 -47.73,-0.85 -51.26,-4.67 -22.48,6.53 -20.19,37.27 -44.35,42.16 -9.8,18.8 -7.96,49.45 -22.02,63.94 9.93,38.09 -10.26,56.82 -30.76,70.83 -7.96,-0.13 -12.83,-3.45 -19.89,-4.55 -27.98,12.41 1.54,28.15 0,50.89 -5.49,9.34 -16.06,9.77 -28.9,6.69 -8.27,2.77 -10.4,11.6 -13.15,19.85 5.96,-6.36 19.58,-4.67 28.44,-2.29 0,5.27 0,10.37 0,15.52 -10.86,6.27 -20.03,-1.16 -26.43,-6.57 -36.72,2.9 -24.81,33.94 -32.9,59.57 2.59,21.62 49.56,29.83 59.34,11.07 1.24,-17.33 -9.78,-28.97 2.3,-39.77 14.84,-0.05 16.99,13.31 28.94,11.11 20.62,-4.06 23.38,-72.98 48.47,-84 0.33,-10.78 0.47,-21.23 -4.44,-26.6 16.68,-18.11 35.5,-33.8 39.93,-63.94 12.4,-2.09 43.29,2.76 48.19,8.08 -2.93,39.57 -17.91,67.2 -22.02,106.11 -7.67,3.29 -39.17,9.64 -43.91,16.09 -0.61,9.08 2.15,21.31 -4.43,24.39 -12.85,2.42 -47.58,58.11 -44.36,72.97 5.65,22.1 24.32,-0.95 42.19,11.08 14.08,-5.97 2.17,-33.9 6.59,-44.28 5.98,-2.97 11.79,-5.97 17.74,-8.82 0.91,-12.83 22.8,-32.16 30.76,-38.3 27.05,5.58 13.75,22.57 10.99,44.24 -2.76,18.71 1.08,51.45 3.38,74.62 2.28,26.16 6.73,54.48 8.87,75.09 1.53,17.82 -2.76,35.89 1.99,53.1 9.78,32.64 4.74,101.04 22.19,128.18 10.55,40.61 -89.51,47.17 -51.72,73.94 12.56,-0.6 16.99,-18.9 26.77,-15.34 18.08,28.06 2.15,66.32 15.15,95.05 7.65,1.69 30.76,-17.89 37.64,-16.69 4.44,13.15 -2.45,30.3 0,48.51 29.97,42.49 38.86,94.68 66.54,137.06 2,22.3 -24.14,69.31 -26.63,94.09 36.57,8.69 -3.36,76.44 37.33,86.09 -0.15,15.31 2.15,33.08 -6.57,39.77 3.36,15.31 18.51,18.68 31.06,24.48 2.45,3.25 2.59,9.22 6.43,11.03 1.38,13.61 -3.38,26.75 2.29,37.62 2.91,4.92 10.38,8.26 13.46,13.19 7.81,14.04 9.94,43.45 26.3,53.04 -1.52,9.04 2.15,12.72 2.15,19.89 29.83,33.81 55.23,71.6 84.13,106.18 5.05,0 10.41,0 15.31,0 1.21,12.11 7.02,19.61 9.02,30.75 -22.94,-1.21 -27.23,-21.1 -48.34,-24.16 -7.5,10.72 -1.06,21.57 -2.61,37.62 -6.73,-1.21 -7.64,3.97 -15.42,2.16 -5.2,-29.4 -15.29,-54 -35.35,-68.52 -1.97,-22.96 -2.3,-47.74 -4.45,-70.69 -21.54,-15.14 -27.98,-45.57 -46.49,-64.25 -5.05,-37.32 -38.71,-46.17 -52.94,-74.94 2,-16.38 7.64,-28.15 -6.57,-35.5 -9.65,4.87 -6.15,23.55 -6.59,37.62 -20.34,3.67 -23.55,32.43 -17.9,55.22 14.99,0.95 12.7,-15.44 26.64,-15.44 7.93,2 10.54,8.57 11.3,17.73 -20.63,5.52 -43.28,19.28 -44.51,39.77 -0.3,6.93 8.43,14.09 9.04,24.16 0.28,8.74 -5.68,16.52 -4.59,22.19 1.53,7.96 15,27.12 24.48,33.2 2.91,2.17 10.1,-1.08 13.31,0 15.15,5.2 24.62,31.22 37.47,28.75 -7.79,10.12 -30.27,7.96 -33.2,26.64 -1.99,13.15 8.74,16.95 11.02,30.92 0.77,4.58 -4.13,10.07 -4.43,15.42 -0.31,10.25 7.02,21.88 4.43,33.22 -0.92,4.11 -6.43,9.46 -6.43,13.14 0,27.84 27.7,46.17 50.79,39.78 7.05,9.16 14.69,17.72 30.74,17.72 1.99,6.26 -2.28,18.08 0,28.61 1.71,7.17 9.79,8.09 17.74,20.03 4,5.83 3.39,13.48 6.91,17.58 6.44,8.43 19.59,13.8 26.45,22.19 8.4,10.72 7.79,20.49 22.02,24.16 9.94,2.47 20.04,-5.19 28.46,0 1.82,9.17 4.59,17.91 4.73,28.75 22.17,11.51 24.63,50.2 50.8,50.93 5.67,25.86 38.08,25.12 59.8,35.19 7.81,-1.38 11.95,-7.17 19.75,-8.7 6.57,10.38 -0.92,25.39 4.43,39.75 6.43,0 13.17,0 19.75,0 4.13,8.6 8.7,16.56 15.62,22.05 24.31,-5.24 33.94,48.94 34.55,73.42 -8.88,2.16 -20.51,-9.77 -33.19,-11.03 -12.7,5.24 -16.98,2.77 -31.06,0 -23.86,8.12 -49.25,2.47 -68.39,-4.58 -22,3.67 -54.9,10.12 -68.36,-4.28 -29.36,8.12 -44.35,-20.62 -79.71,-11.03 -7.81,1.26 -5.35,-7.91 -13.15,-6.69 -68.22,5.78 -94.25,-37.19 -154.67,-37.48 -9.95,-6.45 -15.61,47.57 -23.72,39.91 -1.67,3.25 -7.02,3.07 -6.57,8.91 -23.86,-34.42 -67.16,-49.3 -106.02,-68.71 -7.64,-1.68 -8.4,3.5 -15.75,2.29 -7.03,-7.35 -18.82,-19.59 -36.12,-16.81 -11.3,-25.55 -53.83,-19.89 -62.11,-48.65 -10.54,-4.28 -23.24,-6.15 -35.17,-8.86 -5.5,-20.49 3.98,-43.45 -13.17,-53.22 -18.33,-0.35 -20.65,14.96 -42.05,11.28 -26.79,-23.1 10.84,-155.68 -14.55,-178.21 -16.67,1.08 -23.1,-7.78 -42.05,-4.41 -8.4,-10.12 -6.27,-23.87 -4.46,-39.78 -6.72,-3.97 -21.42,-0.91 -24.31,-8.86 -26.91,20.49 9.78,147.44 -0.33,176.06 -34.57,-23.38 -54.45,-61.95 -92.68,-81.85 -3.52,-5.19 -4.59,-13.14 -8.87,-17.72 -9.95,-2.29 -7.35,7.64 -15.32,6.69 -5.19,-18.32 -31.36,-25.5 -31.19,-41.9 -5.21,-5.67 -4.87,4.28 -6.43,8.86 -4.59,-16.51 12.23,22.67 -12.85,21.75 -3.36,-10.72 -7.49,-3.07 -12.37,-12.55 -1.85,-3.39 -5.06,-48.98 -7.65,-52.02 -2.73,-3.98 -5.05,29.66 -12.23,19.85 -14.84,-20.8 -51.38,-8.86 -34.72,-42.19 -1.84,-18.03 -45.59,-63.96 -54.77,-64.55 -27.38,-20.49 -59.65,-88.9 -89.33,-107.09 1.23,-9.47 -6.74,-97.12 -4.88,-106.75 16.51,-5.97 86.87,-55.86 94.23,-71.3 -6.43,-28.13 9.02,-36.88 15.29,-57.37 -1.82,-15.44 -16.36,-23.86 -10.7,-39.91 -1.99,-4.88 -7.79,-5.49 -11.32,-8.74 -24.48,3.54 -18.81,37.01 -37.47,46.36 -10.11,-11.93 -13.93,-30.44 -28.75,-37.62 -10.26,1.52 -11.95,11.75 -21.9,13.31 -22.48,-32.6 10.26,-53.21 10.55,-88.42 22.2,0.43 26.64,-16.38 44.24,-19.89 8.09,-42.06 -26.02,-38.09 -41.63,-19.89 -13.76,-6.26 -16.81,-23.08 -35.33,-24.34 -11.92,7.53 -9.49,28.75 -15.62,41.94 -20.03,-19.59 -17.89,-68.4 4.59,-83.83 7.79,-64.55 -21.09,-85.82 -15.76,-143.63 5.83,-1.09 6.74,-6.58 13.31,-6.75 5.81,-13.14 2.77,-29.04 8.87,-44.19 3.36,-8.12 11.49,-11.32 13.15,-19.89 4.14,-17.98 -8.86,-43.76 15.76,-48.51 9.2,24.16 -14.83,66.23 -11.16,83.83 1.53,7.78 6.74,13.75 13.48,13.32 20.33,-1.69 11.92,-56.38 28.3,-68.49 30.45,0.68 -12.55,60.05 22.04,55.17 17.89,-2.47 37.62,-95.06 -13.02,-72.98 -4.45,-30.26 12.7,-74.62 26.45,-101.55 13,9.17 22.02,22.09 39.95,26.45 19.39,-5.36 28.13,-40.61 17.57,-61.79 -14.68,-1.29 -19.59,-13.08 -33.04,-15.42 -11.02,9.55 -30.28,29.79 -50.93,15.42 -4.28,-4.14 -0.76,-8.12 0,-13.4 -26.92,-15.82 -16.52,-54.39 6.57,-66.25 0,-8.78 0,-17.63 0,-26.59 36.28,-12.03 26.31,-57.29 31.23,-99.33 22.33,-20.4 20.79,-55.22 35.17,-86.16 12.4,-26.77 45.12,-42.67 35.18,-84.15 6.58,-1 9.47,-5.14 15.42,-6.57 5.05,-16.38 18.81,-25.76 24.64,-44.15 3.97,-12.92 -0.76,-27.65 4.29,-39.85 8.4,-19.72 37.18,-27.68 44.2,-46.36 2.59,-39.3 35.03,-49.03 44.2,-81.81 8.41,0.53 10.73,6.96 17.75,8.79 17.9,-6.96 14.53,-35.51 37.47,-37.58 9.49,-18.03 -1.69,-31.04 -10.88,-41.99 9.8,-25.16 41.16,-29.45 50.64,-55.03 2.77,-14.57 -9.49,-14.19 -6.74,-28.84 7.05,-13.19 24.64,-15.22 24.34,-35.42 25.39,6.7 25.39,-23.78 33.19,-37.56 12.55,1.52 14.99,13.09 22.02,19.8 -3.06,38.09 -28.45,54.22 -35.5,88.51 -4.11,3.76 -6.26,9.77 -12.84,11.07 -3.67,20.45 9.34,42.06 -11.32,50.8 -12.84,2.12 -8.4,-13.52 -19.89,-13.32 -8.09,24.08 -5.05,59.67 -6.43,90.64 -16.06,17.47 -22.63,57.93 -33.33,86.21 -4.26,12.14 -16.67,26.37 -2.29,42.16 9.02,-1.56 12.84,2.07 20.03,2.12 -1.21,-13.24 -3.21,-34.46 20.05,-33.25 -2.3,-11.03 -8.87,-17.51 -6.74,-33.22 11.93,-4.79 22.95,-10.75 26.45,-24.16 32.59,-5.87 31.52,-45.15 52.94,-61.87 14.68,0.52 22.8,6.79 35.64,8.78 4.91,0.78 2.45,-6.31 6.44,-6.62 0.31,-24.51 -33.36,-15.26 -33.2,-39.73 7.35,-5.78 16.37,3.55 24.33,-2.21 12.83,-12.45 9.94,-40.29 11.16,-64.07 7.03,-1.59 13.76,-4.06 19.87,-6.74 12.1,-10.75 16.7,-28.93 33.2,-35.29 -1.69,-6.79 3.96,-6.57 1.99,-13.27 19.43,-9.51 27.53,-33.51 42.06,-50.8 3.38,-3.81 10.11,-4.98 13.31,-8.86 16.99,-21.66 25.54,-58.89 53.39,-59.76 10.1,-8.17 3.05,-22.91 12.85,-28.67 15.9,-1.21 9.49,20.01 20.03,24.38 8.12,2.29 7.05,-4.76 11.03,-6.65 -15.62,-66.37 47.71,-88.46 66.22,-134.91 25.1,-2.85 39.17,-16.9 50.93,-33.03 24.34,-5.31 29.83,8.3 39.78,17.55 8.4,-1.11 10.58,-8.56 13.15,-15.34 -4.13,-9.65 -12.09,-15.9 -8.56,-33.2 24.32,-7.96 37.01,-27.77 61.79,-35.23l0.03 0.06zm-176.99 165.51c-28.31,-7.44 -36.08,37.19 -13.31,42.02 7.36,-7.21 9.18,-20.15 15.44,-28.67 5.36,-0.91 4.91,4.07 11.17,2.24 9.34,-10.93 5.35,-17.67 15.44,-26.55 19.58,-16.77 66.4,-18.76 59.67,-53 -46.8,-28.54 -66.1,39.18 -88.43,63.96l0.01 0zm-207.43 252.07c5.82,2.86 12.24,5.35 22.05,4.45 1.21,-8.86 4.72,-15.82 4.26,-26.55 -15.91,-7.25 -27.54,5.36 -26.31,22.1zm43.74 26.54c14.09,6.26 8.12,31.73 24.5,35.29 7.96,-22.06 -15.46,-29.46 -19.9,-46.44 1.69,6.88 -6.11,4.28 -4.59,11.16zm-72.8 10.93c-33.95,33.9 31.65,50.55 26.45,90.64 37.79,11.27 76.04,-32.77 53.08,-68.46 -5.81,0 -11.62,0 -17.6,0 -5.03,11.12 -3.5,29.06 -13.31,35.41 -31.82,-3.71 -19.27,-51.23 -48.63,-57.59l0.01 -0.01zm132.62 101.83c-9.65,15.14 -27.98,15.22 -19.89,39.7 21.28,4.79 19.29,32.35 33.51,44.15 1.69,-9.9 5.2,-18.08 6.27,-28.72 -2.9,-8.16 -13.78,-8.26 -13.02,-19.87 6.91,-7.58 12.24,-17.03 28.49,-15.44 5.2,-8.94 7.34,-20.66 8.69,-33.12 6.13,-2.91 11.95,-5.97 17.94,-8.94 7.32,-19.61 -2.32,-35.89 -13.48,-44.15 -44.22,-8.65 -31.83,40.08 -48.5,66.4l-0.02 -0.01zm-81.52 285.06c0.91,-4.19 4.72,-5.54 4.26,-11.07 -3.05,0.04 -5.05,-1.16 -6.74,-2.16 -3.98,5.7 -5.48,10.54 2.47,13.23l0.01 0zm-35.65 238.63c0.6,-5.49 7.64,-11.71 9.01,-19.81 1.24,-7.78 -1.99,-17.98 0,-24.26 2.47,-9.77 10.56,-14.05 11.03,-22.3 1.85,-35.29 -35.19,-33 -42.06,-6.53 -5.21,21.05 9.94,37.19 4.43,59.57 -4.43,18.2 -42.53,38.96 -19.87,66.33 18.05,-1.38 24.79,-8.86 37.47,-10.94 8.87,-12.62 -1.68,-25.47 0,-42.06l-0.01 0zm-172.26 0c22.65,9.26 33.81,-19.33 26.63,-39.78 -21.71,1.77 -33.97,15.62 -26.63,39.78zm-41.92 94.99c-15.89,5.97 -13.45,21.78 -22.19,37.67 -9.63,17.55 -25.24,19.85 -26.77,33.25 -1.06,12.23 11.02,25.02 9.04,37.58 -2.15,15.21 -23.12,27.75 -28.78,44.1 -11.01,32.6 -3.83,62.13 2.3,88.42 -6.13,10.55 -10.86,22.82 -8.73,41.94 -2.59,7.17 -12.23,7.05 -13.45,15.44 -2.15,44.67 -23.4,101.55 15.42,123.92 10.55,-9.65 9.95,-30.9 6.74,-48.65 15.31,-10.11 27.07,-30.42 26.47,-50.8 -0.33,-8.38 -6.29,-16.81 -6.58,-24.46 -1.38,-34.72 24.16,-54.42 37.47,-81.86 -37,-29.52 16.36,-50.63 19.89,-83.83 2,-16.33 -7.35,-18.24 -10.88,-39.73 4.13,-9.9 17.47,-10.81 26.32,-15.57 10.55,-34.11 -0.45,-72.03 8.72,-103.77 5.5,-17.38 26.63,-28.54 17.89,-46.51 -29.2,3.97 -61.63,23.95 -52.93,72.89l0.02 -0.03zm298.31 -50.75c-30.6,-38.65 -50.94,53.04 -2.28,37.52 4.59,-11.76 4.13,-23.61 2.28,-37.52zm-455.39 79.59c11.93,20.4 5.34,45.45 -15.44,50.81 -2.92,28.97 -28.77,34.42 -19.75,75.09 -15.29,12.71 -16.22,51.24 15.31,46.36 12.83,-13.14 0,-26.03 -2.16,-41.9 16.08,-26.64 25.57,-60.05 50.8,-77.44 -14.41,-30.66 14.81,-61.48 8.7,-90.62 -20.04,4.98 -27.37,22.58 -37.47,37.71l0.01 0zm497.62 -6.66c2.9,-6.57 5.81,-13.23 4.43,-24.31 -3.5,-1.16 -5.81,-3.29 -9.17,-4.45 -0.61,11.41 -10.26,26.64 4.74,28.75l0 0.01zm-212.32 55.22c29.21,11.63 51.23,-16.95 39.6,-50.85 -3.65,4.2 -5.96,-11.45 -12.99,-11.02 -21.87,7.96 -18.37,40.86 -26.61,61.87l-0.01 0zm-371.42 -19.81c8.57,7.05 18.64,5.06 31.04,4.46 29.23,-36.71 -34.57,-67.15 -31.04,-4.46zm11.01 183.41c6.91,-12.66 16.82,-21.4 17.58,-39.91 -37.79,-22.67 -50.46,33.94 -17.58,39.91zm-77.25 30.91c9.04,11.63 22.94,3.19 33.22,-2.12 -1.24,-9.34 -3.39,-17.47 -4.46,-26.63 -18.34,-15.31 -34.71,1.37 -28.75,28.74l-0.01 0.01zm724.95 -35.33c-15,6.4 -12.24,24.9 -15.62,44.19 -2.29,14.09 -16.96,30.42 -1.99,37.66 28.45,-5.83 41.92,-62.13 17.6,-81.84l0 -0.01zm-610.23 37.44c10.26,-2.9 15,-11.59 15.61,-24.1 -3.82,-3.07 -7.35,-5.97 -15.61,-4.63 -2.44,9.34 -2.44,19.6 0,28.74zm-13 66.41c6.89,-0.31 9.65,-5.02 8.58,-13.31 -2.92,0 -4.74,-0.92 -6.29,-2.12 -3.19,2.72 -2.29,9.64 -2.29,15.42l0 0.01zm152.36 126.04c1.53,9.04 -3.21,11.32 -2,19.76 -22.64,4.87 -26.63,28.45 -24.62,57.51 -11.02,7.05 -22.95,13.61 -24.33,31.04 25.72,14.69 1.54,41.47 2.3,61.82 0.45,13.27 14.99,25.52 17.89,42.07 7.53,45.09 -0.28,82.88 2,121.4 18.68,21.14 34.11,45.48 59.66,59.83 5.49,14.22 13.61,26.17 30.9,28.63 25.69,-23.26 14.21,-81.07 4.43,-112.77 17.9,-12.36 18.97,-38.69 0,-50.75 -0.91,-44.84 3.06,-97.33 -13.15,-134.76 -8.11,-5.24 -27.84,1.2 -35.18,-4.46 -4.29,-18.06 11.79,-16.09 10.86,-30.9 -3.19,-9.47 -16.81,-8.26 -24.46,-13.32 -3.39,-40.52 23.55,-50.46 26.61,-84.13 -11.93,-9.77 -18.96,6.01 -30.89,9.04l-0.01 -0.01zm488.43 39.77c13.79,-6.88 17.44,-24 20.05,-42.06 -29.54,-27.68 -36.27,22.65 -20.05,42.06zm50.79 207.58c2.59,-7.64 13.61,-11.63 15.62,-19.72 7.79,-33.33 -27.23,-48.03 -24.33,-83.97 -11.47,-3.38 -12.08,-17.58 -26.63,-17.77 -13.31,8.43 -7.48,31.04 -2.29,44.24 18.37,3.82 29.68,25.21 13.15,39.78 -9.64,-1.25 -13.6,3.81 -24.16,2.29 -2.15,-10.25 -3.07,-22.05 -13.31,-24.51 -6.13,7.96 -3.65,24.16 -4.26,37.66 18.81,16.52 24.45,42.19 39.77,66.37 -0.17,14.89 1.68,27.84 17.73,26.45 11.02,-24.16 1.24,-48.77 8.72,-70.82l0.01 0zm-448.82 185.7c19.13,8.89 28.61,-28.75 4.73,-28.75 -7.02,6.15 -7.17,18.97 -4.73,28.75zm110.6 22.05c1.38,14.22 14.53,24.16 24.33,40.08 9.47,15.14 12.83,27.25 28.75,30.92 3.38,21.69 5.05,45.09 13.46,61.78 4.29,0 8.57,0 13,0 13.61,-15.31 -5.05,-29.66 -8.72,-41.91 11.31,-49.59 -22.8,-88.11 -57.51,-106.18 0,-5.97 0.9,-12.55 -2.32,-15.61 -1.82,0 -4.28,0 -6.43,0 3.83,11.63 -5.2,20.97 -4.58,30.9l0.03 0zm-77.11 -8.56c-44.5,-4.28 -29.04,53.22 2,59.67 23.71,-12.89 7.03,-43.15 -2,-59.67zm229.77 141.34c12.09,-21.28 -1.82,-35.03 0,-61.78 -47.26,-25.73 -26.78,55.65 0,61.78zm0 28.76c-20.34,-18.2 -37.64,0.3 -35.34,28.75 -15.62,7.35 -18.67,38.27 4.29,39.77 6.88,-1.52 4.26,-11.92 11.01,-13.45 10.11,6.4 14.69,17.91 28.92,19.89 20.21,-20.8 0.61,-56.91 -8.87,-74.97l-0.01 0.01z"></path>    <path class="fil0" d="M1677.36 856.7c2,1 3.97,1.9 4.43,4.5 -2.73,12.55 -9.15,21.4 -15.42,30.83 -16.98,-11.32 2.91,-28.61 11.01,-35.33l-0.02 0z"></path>    <path class="fil0" d="M3390.45 900.97c3.72,7.17 5.11,12.36 2.17,22.01 -15,0 -31.52,1.77 -35.46,-8.86 -3.25,-18.33 18.63,-12.07 33.28,-13.15l0.01 0z"></path>    <path class="fil0" d="M826.7 903.18c6.26,10.33 -0.78,23.57 -6.74,28.63 -6.13,0 -11.79,0 -17.91,0 -13,-16.91 7.05,-28.75 24.64,-28.63l0.01 0z"></path>    <path class="fil0" d="M793.34 984.94c-19.89,7.65 -26.92,-13.75 -44.06,-15.52 -7.96,18.68 -20.19,32.8 -33.19,46.44 -11.47,-6.05 -20.03,-15.39 -29.07,-24.39 2.45,-11.32 14.23,-21.14 35.5,-24.26 31.51,-4.67 67.75,-33.42 70.83,17.72l-0.01 0.01z"></path>    <path class="fil0" d="M1984.68 1013.66c6.57,-0.57 7.81,7.87 4.29,11.07 -7.5,1.52 -7.64,-7.87 -4.29,-11.07z"></path>    <path class="fil0" d="M740.4 1022.52c3.66,10.25 -2,12.93 -6.89,19.81 -14.07,-3.47 -8.09,-27.98 6.89,-19.81z"></path>    <path class="fil0" d="M1969.23 1026.79c-6.88,19.11 -18.96,32.9 -46.49,31.04 -2.91,-9.65 -1.39,-12.36 2.29,-19.97 23.4,4.92 23.4,-13.45 44.2,-11.07z"></path>    <path class="fil0" d="M2358.24 1073.29c24.78,7.96 56.29,27.71 81.68,15.42 22.64,19.15 55.36,3.16 73.14,28.7 8.69,0.92 8.57,-7.35 19.59,-4.35 7.01,12.11 -4.14,17.51 -4.33,28.75 6.15,26.45 55.27,9.59 64.25,33.12 16.22,-1.68 21.26,8.34 24.03,19.89 -14.69,7.74 -24.64,-3.11 -30.74,-11.07 -37.67,-1.86 -81.37,-16.81 -125.92,-13.14 -5.96,-6.84 -8.09,-17.26 -15.75,-22.19 -19.42,2.49 -36.57,8.78 -43.9,-8.82 2.14,-8.17 8.41,-11.92 6.27,-24.3 -2.44,-6.23 -8.86,-7.44 -15.16,-4.46 -5.65,5.15 -4.1,16.82 -9.01,22.19 -20.19,3.67 -35.64,-1.9 -55.22,-4.5 -7.81,-28.41 24.91,-33.51 31.04,-55.25l0.03 0.01z"></path>    <path class="fil0" d="M2587.99 1133.03c-2.12,4.98 -7.65,6.96 -15.44,6.57 -1.52,-6.74 -1.52,-4.19 0,-11.07 9.17,-2.16 11.46,-2.38 15.44,4.5z"></path>    <path class="fil0" d="M2004.57 1188.24c9.49,25.96 -18.51,18.99 -30.89,10.93 7.96,-6.48 20.05,-20.28 30.89,-10.93z"></path>    <path class="fil0" d="M2729.33 1254.57c-2.59,-4.58 -5.92,-8.74 -8.69,-13.32 -6.74,-1.52 -6.57,3.76 -13.19,2.21 -1.33,-14.83 -18.94,-13.57 -26.6,-22.1 0,-1.42 0,-2.97 0,-4.35 12.36,-18.81 33.22,-10.68 41.91,4.35 5.97,0 11.93,0 17.9,0 4.29,21.19 58.59,17.08 61.79,39.86 0.77,6.96 -4.41,20.19 -15.75,22.1 -24.78,4.06 -26.02,-33.25 -57.37,-28.75z"></path>    <path class="fil0" d="M2214.75 1228.02c-11.17,14.84 -36.28,24.64 -62.11,17.68 -8.74,6.79 -11.02,19.94 -19.87,26.45 -35.48,5.29 -67.78,-2.85 -92.7,11.16 0,-3.07 0,-5.88 0,-8.96 11.63,-6.26 21.42,-20.61 37.47,-28.67 9.64,-0.35 10.88,8.09 19.76,8.87 18.37,-5.29 29.8,-17.65 39.91,-31.04 25.55,3.38 70.83,-21.1 77.56,4.49l-0.01 0.01z"></path>    <path class="fil0" d="M2291.86 1254.57c-30.9,4.28 -47.12,-6.05 -64.11,-15.53 10.25,-24.94 51.87,-23.86 77.56,-17.68 7.64,17.38 -8.87,21.67 -13.45,33.22l0 -0.01z"></path>    <path class="fil0" d="M2400.3 1258.94c-22.49,1.73 -48.34,2.29 -70.99,-6.65 0.94,-6.93 -3.82,-7.87 -2.12,-15.44 23.08,-0.25 66.07,-16.56 73.11,22.1l0 -0.01z"></path>    <path class="fil0" d="M2530.66 1265.5c0,4.45 0,8.86 0,13.24 -31.39,15.42 -68.4,-13.62 -104.04,-19.81 9.93,-25.47 52.93,-9.85 61.79,4.35 15.14,-0.39 28.28,-4.67 42.25,2.21l0 0.01z"></path>    <path class="fil0" d="M2017.73 1289.81c-3.21,1.16 -5.68,3.33 -8.88,4.54 -8.57,-8.34 -15.28,-18.51 -22.17,-28.84 11.76,-24.99 34.11,2.21 31.06,24.31l-0.01 0z"></path>    <path class="fil0" d="M2946.11 1314.15c-1.68,41.29 69.92,35.18 46.49,77.4 -31.18,-18.33 -79.52,-19.04 -79.52,-68.46 -5.35,3.5 -6.45,11.41 -11.32,15.53 -30,5.58 -27.41,-21.33 -57.56,-15.53 -7.17,-12.62 -19.11,-20.66 -30.86,-28.75 -2.47,-17.07 14.52,-15.14 26.59,-17.77 7.36,0.7 4.76,-8.47 10.86,-8.78 17.29,-5.49 25.89,5.35 33.37,15.53 30.9,0.17 34.24,27.45 61.95,30.83z"></path>    <path class="fil0" d="M2188.14 1285.52c19.11,6.53 7.64,31.83 -6.89,35.29 -15.6,-6.88 -7.18,-33 6.89,-35.29z"></path>    <path class="fil0" d="M1977.97 1303.08c-5.81,3.88 -20.97,7.21 -28.93,2.29 0.76,-3.64 -1.67,-3.76 -1.99,-6.67 1.99,-14.78 34.57,-15.48 30.9,4.38l0.01 -0.01z"></path>    <path class="fil0" d="M2274.11 1316.45c14.21,-12.03 46.64,3.29 28.74,17.68 -18.67,3.88 -19.58,-9.82 -31.19,-13.32 -9.02,2.47 -9.17,14.22 -21.73,13.32 -7.51,-17.17 15.44,-34.98 24.19,-17.68l-0.01 0z"></path>    <path class="fil0" d="M3047.82 1398.12c3.67,7.25 8.12,13.88 6.44,26.55 -12.83,-1.73 -18.97,-10.38 -22.05,-22.1 4.76,-1.77 7.53,-5.67 15.62,-4.45z"></path>    <path class="fil0" d="M1569.23 1466.64c-0.47,16 -0.47,31.49 4.26,41.94 -5.81,5.49 -10.86,2.09 -22.02,4.58 -6.11,-11.75 -10.07,-25.16 -8.86,-44.27 9.47,-0.17 15.61,-3.67 26.63,-2.25l0 -0.01z"></path>    <path class="fil0" d="M1529.46 1601.49c2.15,0 4.26,0 6.55,0 4.13,14.14 -7.63,39.61 -26.45,31.01 1.54,-15.22 16.84,-17.08 19.9,-31.01z"></path>    <path class="fil0" d="M3076.43 1944.15c20.66,1.48 33.81,21.66 24.64,46.44 -13.02,-10.38 -25.73,-29.92 -24.64,-46.44z"></path>    <path class="fil0" d="M3288.63 2045.76c8.52,-1.48 10.51,19.55 0,17.65 0,-5.79 0,-11.71 0,-17.65z"></path>    <path class="fil0" d="M3160.4 2052.37c17.6,15.79 5.35,48.69 8.74,72.98 1.08,6.57 4.58,11.63 4.45,17.72 -0.17,12.89 -9.65,24.53 -8.74,35.36 1.69,21.88 34.29,40.69 2.17,55.04 -8.43,-14.96 -14.57,-34.72 -19.89,-52.93 -4.15,-13.92 0.31,-34.54 -4.28,-55.21 -4.29,-18.33 -27.12,-35.03 -17.6,-59.66 18.51,12.62 20.92,-9.17 35.14,-13.32l0.01 0.02z"></path>    <path class="fil0" d="M3315.4 2092.33c3.5,3.5 1.64,12.84 1.99,19.71 -5.67,4.15 -13,-5.19 -24.16,-2.29 -6.15,-18.32 9.78,-24.46 22.19,-17.42l-0.01 0z"></path>    <path class="fil0" d="M3186.73 2357.41c-7.17,4.28 -16.2,7.21 -28.45,6.57 -11.8,-28.58 31.64,-42.98 28.45,-6.57z"></path>    <path class="fil0" d="M3175.87 2401.45c1.69,5.36 4.58,15.48 0,20.06 -5.24,-0.77 -8.43,-3.67 -15.48,-2.16 -8.38,-13.93 -2.43,-23.57 15.48,-17.91l0 0.01z"></path>    <path class="fil0" d="M1250.9 2401.45c10.23,21.58 20.33,43.29 26.43,68.71 -18.81,-12.71 -32.12,-31.52 -26.43,-68.71z"></path>    <path class="fil0" d="M3173.58 2459c12.23,-1.38 17.12,5.19 28.75,4.41 -0.31,23.38 -17.12,28.13 -8.74,55.38 -5.19,1.38 -5.96,7.17 -11.02,8.69 -12.84,1.08 -13.15,-10.69 -28.75,-6.57 -21.58,-15.57 1.25,-49.72 17.6,-46.36 -1.05,-7.17 3.86,-7.96 2.16,-15.57l0 0.01z"></path>    <path class="fil0" d="M1226.72 2481.14c8.69,8.74 9.17,25.86 8.69,44.06 -10.69,-7.01 -7.17,-28.15 -8.69,-44.06z"></path>    <path class="fil0" d="M3133.98 2571.73c-10.3,-20.32 17.12,-36.28 19.85,-17.73 1.25,8.26 -6.27,17.73 -19.85,17.73z"></path>    <path class="fil0" d="M1230.99 2580.59c9.79,6.45 15.14,17.29 22.02,26.45 44.98,-1.38 36.55,50.32 66.55,64.12 12.09,1.99 16.22,-4.29 26.31,-4.29 14.68,12.84 -15.62,41.29 6.72,48.65 8.58,0.31 8.72,-7.64 15.29,-8.86 6.91,20.15 -4.29,58.72 33.22,53.05 3.36,13.61 1.67,32.12 11.01,39.77 5.5,-1.21 9.2,-4.28 13.46,-6.74 71.29,55.25 108.15,145.18 199.02,181.29 4.74,9.04 0,16.51 -6.74,19.89 -33.32,-35.19 -84.12,-51.72 -119.46,-79.57 2.91,-14.04 -9.49,-24.16 -19.87,-17.72 -16.53,-20.49 -29.08,-53.22 -66.39,-46.53 -10.25,-1.81 -7.96,-16.99 -22.04,-15.31 -3.06,-45.57 -22.19,-75.23 -48.65,-97.28 -24.16,22.65 -4.43,64.72 -2,88.42 -11.01,0.31 -17.43,-7.05 -13.3,-15.61 -13.91,-26 -28.9,-50.63 -44.05,-74.94 5.5,-34.76 -5.67,-67.32 -24.79,-84.13 7.02,-19.46 -2.15,-44.67 -24.34,-35.33 -8.24,-9.04 -11.16,-25.73 -1.97,-35.37l0.01 0.03z"></path>    <path class="fil0" d="M3138.38 2598.36c18.39,25.21 6.58,71.55 -15.48,88.23 -20.15,-1.08 -20.32,-22.19 -44.19,-19.72 -2.9,-13.79 4.76,-17.29 10.9,-22.17 7.61,0.6 6.23,9.94 11.46,13.27 9.77,-3.02 16.22,-10.07 21.82,-17.73 -1.94,-16.51 -14.04,-46.64 15.48,-41.9l0.01 0z"></path>    <path class="fil0" d="M3065.45 2680.03c6.09,2.77 4.24,13.75 4.58,22.19 -12.4,-1.38 -13.5,-17 -4.58,-22.19z"></path>    <path class="fil0" d="M3145.15 2750.85c14.83,13.62 5.67,36.58 -9.22,44.2 -10.37,-5.49 -17.72,-0.61 -26.45,-6.7 0.48,-23.86 15.79,-33.03 35.67,-37.48l0 -0.01z"></path>    <path class="fil0" d="M3129.52 2832.7c2.12,5.49 2.47,13.46 2.12,22.01 -6.4,4.28 -14.83,7.05 -19.85,13.19 -11.32,-6.62 -6.15,-27.54 0,-35.19 10.07,0.92 10.98,-3.06 17.72,0l0.01 -0.01z"></path>    <path class="fil0" d="M1401.1 2870.19c2.44,8.09 -5.35,6.23 -4.29,13.14 -7.65,-0.47 -18.04,1.82 -22.02,-1.99 -22.5,12.55 -1.38,29.36 6.58,41.59 -2.59,11.02 -16.68,10.3 -22.34,17.9 -4.59,-3.19 -4.28,-11.92 -10.86,-13.31 -4.59,0.65 -4.45,5.97 -8.74,6.62 3.84,39.91 41.94,33.76 79.25,37.62 13.62,23.1 50.96,44.49 31.22,86.12 -20.65,-8.12 -23.72,-31.82 -44.2,-39.65 -7.53,-2.9 -18.37,1.08 -26.65,-2.29 -19.41,-7.64 -28.15,-33.63 -46.49,-39.77 3.05,-36.71 -46.21,-42.82 -31.06,-77.4 31.36,15.79 43.45,-13.75 33.35,-35.14 23.39,2.12 52,-9.82 66.25,6.57l-0.01 -0.01z"></path>    <path class="fil0" d="M1418.68 2914.37c26.47,-0.47 42.53,18.39 39.78,39.78 -17.46,-8.86 -39.15,-13.93 -39.78,-39.78z"></path>    <path class="fil0" d="M1489.67 2971.75c7.49,1.21 9.78,7.82 8.72,17.72 -13.31,1.86 -10.1,-9.65 -8.72,-17.72z"></path>    <path class="fil0" d="M1522.55 2989.47c3.84,7.53 3.84,19.89 -4.44,22.05 -2.76,-4.45 -8.87,-5.52 -10.86,-11.02 1.06,-7.78 7.19,-10.72 15.29,-11.03l0.01 0z"></path>    <path class="fil0" d="M1648.76 3000.51c2.15,0 4.29,0 6.58,0 1.68,5.05 7.19,12.71 2,17.72 -9.04,0.78 -13.32,-11.46 -8.58,-17.72l0.01 0z"></path>    <path class="fil0" d="M1604.56 3024.85c-13.48,9.29 -26.92,18.94 -46.36,22.01 -1.99,-1.69 -1.53,-5.97 -4.59,-6.75 4.59,-24.16 37.79,-41.9 50.94,-15.26l0.01 0z"></path>    <path class="fil0" d="M1719.43 3040.11c-1.69,5.83 -5.2,9.51 -11.16,11.2 -9.02,-7.65 -18.81,-15.17 -28.6,-22.05 0,-2.12 0,-4.41 0,-6.58 19.27,-8.25 27.38,12.11 39.77,17.43z"></path>    <path class="fil0" d="M2853.25 3031.55c6.26,3.97 -1.21,13.31 -2.47,17.58 -10.98,-3.49 -3.19,-13.31 2.47,-17.58z"></path>    <path class="fil0" d="M1617.85 3035.82c15.15,2.29 16.38,18.81 35.19,17.77 -0.91,19.59 -11.03,29.96 -17.73,44.19 -11.79,-3.5 -15,-15.74 -24.16,-22.19 1.68,-13.74 4.43,-26.59 6.7,-39.77l-0.01 -0.01z"></path>    <path class="fil0" d="M1546.89 3104.35c-1.53,6.75 3.82,6.58 2.44,13.5 -19.13,-7.64 -24.62,10.38 -39.77,13.15 -4.11,-14.37 -7.05,-29.96 -15.61,-39.78 -7.81,-0.91 -11.78,-5.97 -22.17,-4.58 3.06,-57.37 40.53,7.36 55.36,17.72 6.58,0 13.47,0 19.75,0l-0.01 0z"></path>    <path class="fil0" d="M1759.2 3060.3c19.59,-1.21 28.31,8.25 35.34,19.76 -8.4,16.99 -22.17,-5.06 -35.34,-4.46 0,-5.05 0,-10.25 0,-15.29l0 -0.01z"></path>    <path class="fil0" d="M1679.66 3077.76c18.66,12.55 28.6,34.24 52.94,37.62 7.03,1.08 14.51,-4.28 22.32,-2.16 9.18,2.64 15.46,17.47 28.61,24.34 13.76,7.17 25.86,4.14 33.2,17.72 8.39,-1.81 10.55,2.64 17.57,2.34 27.84,28.75 83.83,29.49 121.6,48.34 22.19,-1.56 45.6,13.14 59.82,0 7.49,8.08 24.79,6.09 26.31,19.85 -8.41,8.3 -19.29,2.47 -26.31,-1.99 -47.41,-0.31 -109.07,-2.29 -141.79,-24.48 -21.58,13.61 -31.51,-10.38 -43.91,-15.42 -15.61,-6.1 -28.75,-1.21 -46.49,0 -10.56,-8.26 -23.57,-17.12 -37.66,-15.31 -19.39,-26.9 -58.58,-34.24 -85.97,-53.22 3.05,-15.9 18.82,-19.28 19.75,-37.62l0.01 -0.01z"></path>    <path class="fil0" d="M2979.28 3113.22c-5.92,0 -11.75,0 -17.86,0 -10.59,-13.45 0.61,-31.79 15.26,-33.17 6.58,8.69 9.17,22.48 2.59,33.17l0.01 0z"></path>    <path class="fil0" d="M2806.76 3095.49c5.97,7.65 -5.52,16.52 -8.73,22.35 -7.17,-8.91 4.14,-18.38 8.73,-22.35z"></path>    <path class="fil0" d="M1869.65 3100.07c0,4.28 0,8.74 0,13.15 -6.44,6.15 -22.48,5.83 -26.61,-2.12 -0.92,-13.75 18.82,-12.84 26.61,-11.03z"></path>    <path class="fil0" d="M1582.38 3135.28c7.03,3.06 7.36,0.6 15.28,0 5.82,29.35 46.36,23.26 40.08,64.07 -6.11,3.54 -13.15,5.97 -22.01,6.62 -1.82,-4.76 -4.9,-8.6 -4.58,-15.31 -29.98,-15.48 -47.44,-42.25 -52.94,-72.81 13.45,-7.96 19.13,9.47 24.16,17.43l0.01 0z"></path>    <path class="fil0" d="M1734.86 3232.55c-16.65,2.59 -23.84,14.41 -28.74,28.75 -19.14,-16.22 -45.75,-24.78 -63.94,-41.9 5.5,-9.95 17.12,-13.93 19.72,-26.64 28.46,9.21 65.64,9.82 72.95,39.77l0 0.02z"></path>    <path class="fil0" d="M1776.96 3235.01c9.93,6.75 15.42,27.07 33.18,19.59 1.39,6.7 8.26,7.97 6.59,17.73 -20.81,11.63 -60.27,1.38 -53.1,-35.33 6.74,1.52 6.59,-3.86 13.33,-2l0 0.01z"></path>    <path class="fil0" d="M2619.03 3418.25c2.76,11.32 -8.99,15.9 -15.62,11.03 0,-10.07 8.91,-13.75 15.62,-11.03z"></path>    <path class="fil0" d="M2585.86 3431.45c5.49,-0.31 6.7,3.67 10.68,4.58 -3.02,5.19 -1.21,16.22 -10.68,15.31 -5.36,-5.97 -3.98,-12.88 0,-19.89z"></path>    <path class="fil0" d="M870.44 3670.54c11.92,14.18 27.22,38.69 37.77,52.75 26.31,-3.5 36.57,24.16 46.5,44.24 21.29,5.67 27.25,-15.48 33.05,-17.6 10.08,3.97 2.59,25.39 11.01,30.74 42.24,-0.78 42.68,39.91 70.83,53.09 0,4.28 0,8.86 0,13.27 -15,-6.88 -32.28,-11.75 -39.61,-26.77 -42.83,38.57 -70.83,-22.91 -92.7,-46.16 -16.53,1.68 -26.16,-3.67 -42.07,-2.29 -4.88,-17.6 4.13,-36.28 -4.58,-50.63 -8.4,1.21 -9.04,1.64 -15.47,-2.29 -1.23,-11.63 -3.06,-36.42 -4.73,-48.34l-0.01 0z"></path>    <path class="fil0" d="M3463.15 3707.68c5.35,-0.73 4.92,4.15 11.16,2.29 9.51,16.25 0.95,40.86 -15.57,44.24 1.38,-15.62 1.38,-32.43 4.41,-46.53z"></path>    <path class="fil0" d="M1398.96 3793.99c10.55,2.28 7.48,-8.91 17.74,-6.58 15.28,2.29 12.23,23.1 24.31,28.58 11.64,0 13.94,-9.46 26.31,-8.86 6.44,37.92 -43.59,19.89 -57.36,37.62 -6.26,24.96 14.07,22.78 13.17,42.07 -52.62,6.26 -66.39,-43.46 -112.61,-50.93 -3.36,-9.17 -10.99,-13.93 -17.57,-19.89 -6.27,-1.81 -5.81,3.07 -10.86,2.17 -5.52,-6.58 -8.74,-15.02 -15.76,-19.89 -36.72,7.35 -42.53,-29.4 -79.38,-28.75 -15.76,-38.09 22.32,-17 21.71,-33.08 15.93,5.83 28.63,34.29 42.25,42.07 8.56,-4.11 20.79,-2.43 24.31,4.45 41,-7.64 99.14,-10.86 123.76,11.03l-0.02 0zm-68.54 8.86c-4.9,26.75 19.14,40.68 37.47,50.75 29.98,-21.71 -2.26,-79.68 -37.47,-50.75z"></path>    <path class="fil0" d="M1105.09 3862.52c24.33,5.97 38.87,21.4 63.78,26.6 8.12,-3.98 8.12,-15.74 15.76,-19.89 26.47,11.2 4.58,39.17 10.88,63.94 17.89,-1.68 26.15,9.82 39.91,17.77 6.29,-1.99 9.2,-7.35 17.6,-6.57 2.15,4.41 4.29,8.69 6.73,13.15 52.78,7.35 99.14,21.57 132.62,48.63 10.7,-9.34 36.57,-7.48 52.94,-4.45 7.81,10.11 1.84,33.69 6.72,46.36 10.43,-6.57 15.16,-18.51 26.48,-24.31 6.27,5.06 8.25,13.93 15.44,17.73 45.12,0.3 77.1,-7.65 92.85,24.34 26.78,-3.86 44.52,18.2 70.54,22 11.62,1.08 13.91,-6.88 22.33,-8.73 11.46,1.85 12.39,14.09 17.74,22.05 35.48,-4.76 61.48,0 81.53,19.89 7.96,-0.61 10.69,-3.39 17.73,0 5.52,37 -15.89,47.43 -21.86,72.98 -42.53,1.52 -80.63,-5.36 -110.77,-28.63 -20.18,4.45 -32.72,-4.28 -50.78,4.28 -11.02,-2.11 -11.64,-14.83 -17.46,-22 -23.69,-4.15 -38.39,-3.67 -55.22,-13.32 -8.27,0.73 -9.34,8.69 -20.04,6.57 -10.08,-19.41 17.29,-19.11 22.04,-30.9 -9.79,-27.23 -49.11,-13.61 -59.5,-41.9 -20.34,-0.31 -32.13,7.64 -40.09,19.71 -9.93,-3.49 -13.93,0.78 -26.3,0 -2.75,-36.23 -23.87,-54.13 -55.23,-61.78 -6.11,8.69 -7.98,21.57 -17.91,26.6 -15.46,-6.88 -18.81,-4.72 -33.05,1.99 -2.88,-15.26 -13.15,-23.52 -28.44,-26.29 -13.61,4.88 -9.95,19.28 -24.79,17.43 -17.43,-1.81 -11.17,-37.01 -28.6,-44.06 -20.05,8.43 -27.38,-5.97 -46.36,-4.28 -6.73,-15.9 3.38,-29.66 8.87,-39.91 -4.9,-33.38 -40.99,-35.51 -59.52,-55.22 -10.56,-3.39 -7.49,1.81 -18.04,2.11 -1.21,-15.61 -10.7,-22.95 -8.57,-41.9l0.01 0.02z"></path>    <path class="fil0" d="M3337.11 2151.95c2.77,19.28 -10.72,27.39 -4.45,41.75 8.26,18.99 38.69,2.03 59.97,8.91 7.64,-3.06 2.58,-19.28 6.74,-26.45 3.19,8.39 13.93,9.3 19.72,15.44 0,5.05 0,10.11 0,15.42 -8.26,2.29 -7.05,-4.58 -11.16,-6.57 -4.88,2.47 -5.97,8.86 -11.16,11.02 4.41,9.65 9.34,18.81 19.89,22.01 -1.68,30.79 28.15,45.31 37.44,68.57 2.17,4.58 0,11.16 2.47,15.42 7.17,13.27 12.24,11.33 17.73,28.94 1.85,6.09 11.5,11.45 13.19,15.42 4.11,10.07 1.38,24.31 4.28,35.5 9.77,7.31 10.72,23.23 26.64,24.16 7.78,10.86 7.48,29.36 22.19,33.17 6.4,47.3 30.69,76.67 39.91,121.63 21.57,11.02 6.09,46.21 28.45,57.2 -10.55,31.69 20.37,57.85 22.19,86.26 1.21,17.77 -5.54,34.28 13.31,41.94 -1.25,29.23 -4.14,73.42 22.19,81.85 -15.61,42.19 12.07,93.17 -4.62,132.62 1.85,16.85 7.82,29.22 19.92,35.36 2.43,13.45 -5.24,17 -6.45,26.6 -8.56,-0.43 -11.5,4.76 -17.58,6.62 -17.91,38.83 -33.22,80.41 -37.8,132.61 7.65,13.32 28.93,2.91 35.37,-4.45 -2.16,-32.12 5.63,-54.74 13.45,-77.4 5.67,0 11.63,0 17.43,0 3.06,15 -4.11,36.42 -15.44,44.36 -5.35,54.31 -3.97,115.35 -28.61,150.2 6.15,29.71 6.15,47.74 -2.29,75.15 -23.38,2.29 -34.11,17.55 -37.62,39.77 -28.02,10.98 -39.35,38.69 -50.93,66.25 13.61,33.63 51.08,-29.54 53.05,-50.8 9.34,-0.61 9.82,-9.82 20.06,-8.87 5.35,11.63 0.43,25.39 -8.57,28.75 -13.61,42.82 -28.02,84.45 -44.72,123.93 -7.31,0 -7.6,-7.36 -15.13,-6.62 -34.55,12.88 -15.44,32.48 -6.7,57.39 -23.26,0.95 -37.19,-7.17 -59.66,-6.7 -22.35,24.91 -40.09,54.42 -79.55,61.78 -1.21,7.96 -5.06,12.84 -4.58,22.3 18.97,9.95 2.76,54.79 22.17,63.96 12.36,-0.91 17.12,-2.43 28.75,0 1.21,23.86 -34.11,22.48 -50.92,15.48 1.99,-40.26 -45.58,-31.09 -59.54,-55.27 -25.39,8.91 -34.38,44.06 -10.86,61.96 17.48,0 35.19,0 52.8,0 -1.08,7.05 4.14,7.82 2.42,15.48 -31.95,-2.17 -47.08,39.43 -9.12,41.9 -12.59,29.06 -42.42,45.57 -68.26,64.12 -20.2,14.18 -27.07,33.94 -48.78,42.02 -5.05,1.99 -12.1,-0.31 -17.77,2.33 -7.17,3.19 -12.07,11.76 -19.85,15.44 -19.44,9.64 -42.54,8.25 -55.25,28.75 -4.88,-2.47 -7.17,-7.65 -13.15,-8.87 -8.86,5.06 -17.43,17.29 -31.22,11.03 -9.65,15.26 -22.62,27.2 -28.58,46.36 -18.68,-1.69 -31.99,15.74 -46.69,20.01 -26.89,7.96 -64.07,-6.26 -75.1,17.6 -6.26,1.68 -5.92,-3.67 -13,-2.17 -11.28,1.09 -10.69,14.22 -19.85,17.6 -12.23,0.61 -24.03,0.31 -30.74,-4.41 -7.21,17.91 -34.42,33.47 -55.25,17.6 -13.62,7.78 -14.66,17.73 -31.22,20.03 -7.49,1.08 -17.73,-4.15 -24.16,-2.29 -21.1,6.44 -17.56,33.94 -35.62,44.35 -14.66,3.07 -17.91,-5.49 -21.88,-13.31 -32.13,2.29 -36.84,-41.17 -59.67,-55.22 1.86,-16.38 15.62,-15.91 28.79,-11.16 10.37,-8.73 16.81,-25.11 6.57,-37.66 -12.71,14.52 -13.02,-4.11 -22.05,-4.29 -45.57,-0.12 -14.96,61.67 -13.32,95 -10.68,9.21 -14.36,25.42 -19.89,39.78 -36.82,3.97 -89.32,-6.41 -119.46,15.48 -21.53,-8.74 -31.04,13.27 -48.46,17.72 -12.72,3.06 -25.26,-5.19 -39.78,-6.57 -34.56,-3.55 -69.3,-5.06 -88.43,22 -33.95,-14.36 -73.75,1.09 -115.03,-10.98 -8.55,0.91 -8.26,10.86 -15.46,13.15 -29.36,-4.29 -39.77,6.57 -55.08,-15.31 -8.7,2.9 -16.21,7.64 -22.31,13.14 -15.76,-10.37 -39.77,-2.72 -55.08,-15.42 -9.02,0 -9.66,8.09 -15.47,10.85 -22.49,-8.38 -46.49,-6.69 -64.25,4.58 -10.86,-4.58 -17.89,-13.14 -28.6,-17.72 -28.59,13.5 -74.65,-14.7 -103.87,6.74 -4.14,-3.38 -12.56,-2.47 -15.76,-6.74 -7.34,2.77 -6.72,13.75 -17.27,13.14 0.45,-27.23 -27.71,-26.16 -48.95,-26.29 2.45,-18.06 15.61,-13.79 15.61,-28.74 -0.15,-13.19 -24.16,-19.89 -17.6,-41.94 1.68,-2.12 5.97,-1.38 6.59,-4.58 19.72,-0.61 20.95,17.42 35.34,22 6.88,-2.58 9.63,-9.46 17.57,-10.98 11.47,9.34 15.76,25.86 28.77,33.33 11.64,-2.47 19.42,-8.73 26.63,-15.61 11.31,6.57 20.48,14.83 30.89,22.17 17.14,-2.9 46.06,-9.94 57.53,2.29 9.95,-1.2 12.56,-9.77 22.17,-11.16 19.13,3.07 46.06,8.74 64.1,0 19.89,21.28 60.58,9.65 92.54,11.16 5.82,8.74 10.56,18.99 20.05,24.16 53.68,-1.68 108.92,-49.11 150.2,-11.02 11.79,-10.69 26.93,-33.03 17.92,-50.93 -19.59,3.54 -42.21,16.81 -57.68,0.17 -14.99,16.81 -70.65,16.05 -77.39,-11.02 -26.47,0.91 -42.39,-7.97 -64.1,0 -41.91,-21.42 -111.06,10.11 -139.2,-26.65 -14.22,18.68 -34.72,7.65 -55.37,8.91 -8.87,-3.24 -10.56,-12.84 -19.73,-15.61 -15.75,-4.46 -33.51,9.46 -50.8,4.58 -15.42,-4.58 -15.74,-17.6 -33.19,-22.19 -18.81,4.76 -37.94,5.97 -48.65,-6.57 -8.11,-1.56 -8.4,4.58 -15.46,4.4 -19.27,-19.11 -51.57,-25.37 -63.94,-50.92 -17.27,9.82 -36.25,-7.96 -55.37,2.16 -6.27,-26.32 -49.08,-49.11 -55.22,-8.73 -17.29,-6.45 -16.53,-27.07 -31.06,-37.48 -16.84,-12.36 -46.5,-7.64 -55.08,-31.04 -27.39,11.03 -36.28,-11.46 -44.36,-26.45 1.53,-17.72 7.35,-43.28 -11.01,-46.53 -11.33,3.98 -9.02,18.99 -6.57,30.9 -7.98,8.26 -13.79,18.68 -28.94,20.06 -9.78,-10.28 -15.76,-25.55 -12.98,-37.66 3.82,-18.21 35,-20.94 35.33,-39.78 33.19,-3.34 56.74,3.25 79.55,10.9 3.97,21.85 -13.32,24.96 -26.63,17.72 -8.57,2.59 -7.81,18.81 -4.29,26.65 22.5,-4.76 26.63,8.69 37.47,15.42 9.34,-5.35 14.67,-14.69 17.6,-26.45 18.96,7.96 44.81,-10.55 61.94,6.4 9.95,-3.63 13.61,-14.22 17.58,-24.16 39.49,8.91 46.37,60.58 88.43,70.86 6.11,1.33 14.21,-1.08 20.19,0 11.17,1.64 19.89,10.86 30.61,13.15 21.09,4.71 37.63,-3.67 61.79,-4.46 12.1,-3.5 9.64,-21.71 22.02,-24.16 10.7,2.59 6.43,20.49 11.31,28.63 15.47,14.21 67.34,22.48 55.24,-22.19 1.84,-1.86 6.11,-1.25 6.72,-4.46 14.84,-3.49 12.24,9.82 22.02,11.16 7.67,-0.61 11.93,-4.58 17.6,-6.7 14.69,17.12 37.03,12.66 59.82,19.89 11.62,-2.47 11.01,-16.82 17.6,-24.35 -6.59,-24.94 -23.73,-39.6 -41.92,-52.93 -17.14,1.38 -18.81,18.04 -37.8,17.6 -1.37,-7.05 -4.58,-12.83 -8.57,-17.6 -10.41,-0.77 -12.23,6.88 -20.03,8.87 -26.31,-0.31 -50.48,-14.22 -74.96,-8.87 -11.49,-2.9 -11.49,-16.68 -29.07,-13.31 -7.96,3.06 -10.72,11.2 -19.75,13.31 -4.59,-2.76 -8.72,-6.09 -13.28,-8.73 9.02,-28.75 -28.15,-22.91 -30.76,-46.49 -14.99,-1.08 -20.96,7.17 -33.18,8.87 -15,-8.26 -36.72,-24.16 -53.25,-6.75 -19.28,-7.48 -39.93,-2.72 -61.81,-4.58 -8.86,-7.17 -0.6,-31.51 -6.57,-41.76 -54.91,-18.21 -97.44,5.05 -159.07,-6.7 7.17,-6.57 33.19,-28.63 37.77,-37.67 27.06,14.26 18.97,7.83 46.8,0 7.35,-0.91 18.04,-14.52 22.17,-11.75 12.71,-12.56 18.68,-4.29 38.87,-5.2 9.02,-2.77 17.43,25.98 20.03,17.12 4.3,4.28 10.58,1.08 15.46,0 2.15,11.03 4.9,-33.98 9.64,-23.55 11.63,-4.29 20.21,12.07 23.28,-3.98 5.81,3.98 15.42,-6.74 23.24,-5.19 24.78,-4.93 27.84,-18.51 50.63,-11.63 23.72,-5.84 15.76,6.4 37.79,-1.21 6.89,-1.86 24.34,-20.54 31.06,-22.05 12.7,-3.38 18.52,-1.21 19.58,-10.55 6.91,1.08 22.95,4.45 33.67,2.59 11.01,-1.82 3.66,-8.87 10.4,-16.82 21.43,9.78 41,15.62 53.07,2.77 6.44,0 8.41,-4.92 14.39,-3.97 17.46,-6.15 12.85,-17.77 35.04,-13.02 7.49,-4.76 17.12,-10.25 22.01,-18.21 39.34,-0.91 77.1,-36.88 109.99,-42.86 7.19,-17.72 35.64,2.47 44.06,-14.04 7.19,-1.56 13,-37.01 18.34,-36.41 13.02,-19.89 27.69,35.61 32.14,3.97 17.57,14.36 35.92,-47.74 59.81,-33.69 10.38,-6.4 25.83,-12.07 36.24,-11.63 10.1,3.25 5.65,37.79 9.49,49.59 18.04,19.59 60.89,2.12 49.09,-35.5 18.34,-0.48 20.95,-17.12 43.9,-13.32 1.84,11.46 -2,32 9.04,39.96 13.31,-9.21 39.76,-6.15 50.79,-17.77 38.39,7.78 67.02,-10.55 86.3,-28.75 7.49,3.98 13.57,-2.47 22.19,2.17 38.52,-15.62 83.66,-14.28 110.26,-44.24 4.45,0 8.73,0 13.5,0 11.16,-17.43 46.6,-10.55 59.49,-26.45 25.84,7.64 39.77,-2.77 46.16,-19.89 14.7,0.6 13.8,16.22 31.22,13.32 0.92,-23.39 -2.76,-52.8 28.63,-50.93 10.98,-8.26 12.23,-26.17 24.3,-33.08 10.12,-0.13 9.22,7.36 15.62,0 3.98,-28.28 31.36,-33.46 30.74,-66.37 25.55,-1.81 41.77,-12.84 53.22,-28.75 -3.5,-37.01 -38.52,-15.17 -59.62,-26.45 -10.25,2.29 -12.4,12.67 -22.19,15.42 -8.12,-1.99 -15.61,-4.87 -24.51,-6.44 -15.74,10.9 -29.66,34.11 -24,59.53 4.28,7.36 16.38,7.36 17.77,17.91 -3.97,23.26 -27.71,26.89 -39.96,41.72 -19.41,-8.99 -27.23,15.18 -39.91,19.89 -7.05,2.77 -15.31,-0.43 -22.05,2.34 -14.36,5.78 -22.19,20.61 -35.5,26.45 -22.01,0.12 -38.7,5.35 -48.47,17.55 -19.11,-3.34 -22.48,8.43 -33.03,13.48 -20.19,-8.56 2.72,-28.61 6.7,-39.77 29.09,-13.45 107.7,-5.19 97.15,-48.65 -8.74,-34.28 -75.28,-14.41 -88.6,13.15 -18.32,3.97 -33.03,-1.21 -50.75,2.16 -7.36,4.58 -9.95,13.61 -15.48,19.89 -27.37,-1.38 -57.33,-25.55 -61.78,13.45 -8.87,1.52 -34.72,0.91 -42.67,-3.98 6.57,-22 44.49,-18.68 53.83,-38.09 20.35,0.91 23.86,-23.38 41.94,-17.72 -1.38,-7.05 2.29,-24.34 3.06,-29.52 16.05,-12.56 33.65,-8.91 49.86,-21.28 2.9,-28.93 29.52,-34.13 37.79,-57.51 18.33,46.05 -33.81,54.9 -22.35,99.57 2.59,-0.47 3.98,0.31 4.58,2.12 11.5,3.86 13.19,-7.31 21.88,-8.86 8.12,-1.21 16.52,3.86 24.34,2.16 38.4,-7.64 27.68,-53.52 53.09,-77.26 -1.56,-9.64 3.5,-12.36 2.12,-22.17 5.97,0 11.93,0 17.73,0 13.19,-15.62 23.73,-33.65 33.37,-52.93 20.8,-4.58 51.41,-64.55 46.17,-86.26 -4.11,-18.08 -24.79,-14.7 -30.88,-33.22 10.85,-13.31 20.19,-28.45 37.79,-35.36 11.46,6.74 22.78,7.21 39.61,4.45 15.13,-27.25 -7.05,-48.65 -22.06,-59.8 18.08,-19.89 20.06,-56.47 41.77,-72.81 -1.38,-11.63 1.86,-18.85 4.28,-26.64 31.36,-4.11 25.26,-45.57 57.86,-48.51 6.4,-41.29 33.15,-62.57 68.52,-75.1 10.69,37.8 -24.64,47.13 -22.35,83.84 -8.25,4.87 -17.9,8.56 -24.3,15.61 0,14.7 0,29.54 0,44.06 -6.15,10.55 -20.37,13.45 -26.34,24.48 0.31,22.35 -4.76,39.17 -11.16,55.09 -39.3,-7.64 -49.72,32.12 -44.06,68.66 9.95,5.97 24.16,7.21 37.48,4.46 6.88,-23.26 24.31,-36.1 35.46,-55.39 11.8,3.67 5.52,25.09 17.63,28.75 13.27,0.91 19.24,-14.95 28.58,-10.98 5.97,7.61 -2.17,15.74 0,26.6 11.32,4.58 43.58,-13.45 48.82,-24.48 7.96,-16.81 -1.56,-41.9 2.29,-61.78 3.19,-18.08 29.04,-30.31 26.29,-55.38 -1.38,-13.15 -15.62,-16.81 -8.87,-30.9 4.29,-4.29 10.55,-0.92 15.62,0 29.66,-22.01 0,-67.15 6.57,-103.69 9.95,-2.47 21.58,-3.54 33.2,-4.45 8.87,-17.91 -5.19,-27.68 -13.31,-35.34 24.16,-21.57 47.26,-44.05 61.67,-75.27 31.82,-0.18 35.18,-37.32 11.45,-48.51 -1.52,-18.32 13.8,-39.6 13.02,-57.51 8.74,1.69 4.58,16.09 13.32,17.6 20.49,3.38 21.23,-12.55 37.44,-13.14 -1.21,31.17 -17.86,52.75 6.74,70.64 18.68,-2.72 18.99,-24 39.78,-24.34 33.51,-50.59 -30.88,-66.8 -61.96,-86.09 -9.34,4.58 -18.03,9.78 -28.56,13.15 -1.09,-27.37 0.91,-52.02 13.45,-66.07 10.72,6.4 -7.49,22.78 2.12,35.14 40.08,10.43 50.18,-40.52 13,-41.9 13.32,-19.41 -7.64,-31.83 -6.57,-48.65 0.61,-9.82 9.65,-10.55 13.15,-19.89 7.05,-16.99 1.68,-31.22 0,-50.92 -18.03,-7.17 -16.22,-41.17 2.58,-46.36 -0.91,-10.25 -12.97,-9.65 -13.56,-20.06 10.54,-24.31 -8.43,-38.39 -17.6,-50.75 3.97,-22.48 25.07,-17.47 33.03,-2.01l0.02 0.04zm53.36 658.4c0.96,-6.7 -2.9,-9.04 -6.88,-10.86 -0.25,10.25 -2.9,-5.06 -10.85,0 -2.29,5.83 -4.58,11.46 -4.45,19.72 6.6,-1.53 6.31,3.86 13.04,2.16 6.7,-6.74 -0.96,-20.97 9.12,-11.02l0.01 0zm28.63 -448.5c-23.52,4.76 -43.29,31.82 -24.31,53.05 -15.42,3.84 -26.49,24.81 -15.61,41.93 1.68,0.48 4.4,0 4.4,2.17 22.06,0.43 29.23,-24.05 19.94,-42.07 18.94,-23.43 48.94,-65.02 33.17,-101.43 -26.17,-9.17 -22.19,28.15 -17.6,46.36zm33.03 61.78c4.62,1.99 6.45,6.74 13.5,6.74 9.77,-7.35 15.74,-20.19 8.69,-33.03 -18.81,-8.6 -20.94,10.69 -22.19,26.29zm15.6 86.32c15.62,13.14 22.67,-11.93 37.67,-6.75 6.57,-9.94 7.78,-24.16 0,-33.03 -30.14,-4.15 -31.82,19.72 -37.67,39.78l0 0.01zm-13.61 -8.92c2.64,-8.86 2.64,-15.44 0,-24.31 -17.9,-1.08 -8.56,21.58 0,24.31zm-37.44 123.92c27.84,21.42 39,-20.32 39.91,-46.64 -4.71,-3.19 -9.77,-6.27 -15.42,-8.74 -13.93,12.59 -24.34,29.11 -24.48,55.38l-0.01 0zm-99.28 -22.17c5.63,2.47 7.32,8.73 15.27,8.73 3.86,-9.21 7.21,-24.46 2.58,-35.18 -13.14,-6.4 -19.23,11.32 -17.86,26.45l0.01 0zm77.4 37.47c-16.52,0.91 -20.19,35.8 -15.61,55.38 37.18,14.66 43.28,-56.9 15.61,-55.38zm-115.04 97.29c-10.55,18.06 -12.55,57.06 4.45,70.69 20.8,-10.55 36.23,-70.4 -4.45,-70.69zm-77.4 148.08c-10.86,10.72 -12.55,29.96 -28.75,35.19 0.91,10.68 -4.58,16.05 0,24.48 3.98,1.21 9.34,1.08 11.16,4.41 15.62,-3.82 15,-27.37 37.62,-17.56 10.86,-7.05 17,-18.38 17.6,-35.5 -7.78,-8.26 -23.57,-8.86 -37.62,-11.03l-0.01 0.01zm183.41 68.54c-15,4.88 -29.66,21.4 -22.01,41.9 16.81,-2.11 40.21,-25.98 22.01,-41.9zm-351.21 92.7c-8.91,0.3 -10.86,-7.06 -20.06,-6.75 -10.86,2.59 -14.05,12.55 -24,15.62 -8.86,1.25 -11.03,-3.98 -20.06,-2.12 -5.49,1.21 -4.88,8.69 -13.45,6.7 -9.34,35.07 -59.85,34.28 -48.51,83.83 -15.44,-1.38 -25.39,2.47 -33.17,8.86 4.11,15.31 8.99,29.4 24.3,33.22 13.93,-9.78 19.29,-27.84 33.22,-37.63 13.75,3.98 25.84,9.65 37.62,15.44 20.97,-4.88 36.41,-15 46.36,-31.04 3.06,6.57 14.21,5.06 19.89,9.04 5.05,7.36 2.16,22.91 9.04,28.45 4.87,0 6.09,3.98 13.14,2.43 15.14,-11.28 -2.9,-26.29 0,-39.91 2.47,-12.55 18.99,-17.91 21.88,-32.9 1.38,-6.4 -2.29,-13.45 -1.99,-20.01 1.69,-25.25 34.11,-44.24 17.6,-70.69 -10.07,-3.5 -13.15,1.56 -22.01,4.45 -7.05,-9.17 -2.16,-30.31 -13.48,-35.5 -14.83,12.11 -14.37,47.43 -26.29,68.54l-0.04 -0.03zm601.03 -46.17c0,8.09 1.21,14.95 8.86,15.26 0.44,-1.68 1.82,-2.42 4.41,-2.12 -0.12,-8.12 1.26,-17.47 -4.41,-19.87 -0.47,4.58 -5.83,4.28 -8.86,6.74l0 -0.01zm-729.4 22c4.92,2.47 9.34,5.68 17.77,4.46 6.57,-9.04 8.08,-22.49 0,-31.09 -15.14,-0.6 -19.29,10.12 -17.77,26.64l0 -0.01zm678.6 -15.43c0,7.31 0,14.52 0,22.01 6.88,2.9 7.17,0.48 15.74,0 4.63,-6.27 6.75,-15 6.27,-26.45 -5.49,-7.96 -15.9,0.3 -22.01,4.45l0 -0.01zm-627.79 22.01c5.79,3.97 11.92,7.64 22.3,6.57 19.89,-31.64 -33.63,-46.05 -22.3,-6.57zm585.73 117.04c3.19,-14.39 26.64,-38.27 8.73,-46.21 -3.54,12.55 -24.34,35.8 -8.73,46.21zm-147.92 -6.44c8.09,0.6 7.96,-13.45 4.58,-17.73 -8.26,-0.6 -8.12,13.46 -4.58,17.73zm152.33 59.49c7.05,-1.99 8.13,-18.51 4.33,-24.16 -1.99,0 -4.33,0 -6.44,0 -3.67,5.97 -6.15,20.06 2.11,24.16zm15.66 37.67c-22.19,0 -23.26,-21.14 -33.38,-33.22 -33.17,13.45 -10.72,81.98 -55.09,84.13 -5.2,10.25 -7.61,23.1 -6.58,39.78 -12.66,7.96 -26.27,14.69 -28.88,33.03 -32.9,9.47 -66.84,12.84 -88.3,37.62 -6.26,-1.81 -5.79,-10.37 -15.31,-8.86 -18.2,9.34 -41.42,13.5 -35.75,46.53 16.17,0.6 33.63,-0.6 55.33,-2.29 6.93,10.68 -4.11,25.55 2.34,35.33 1.81,6.45 7,-1.38 11.12,0 1.37,8.26 6,12.84 8.73,19.89 17.43,-5.19 26.93,-18.68 39.65,-28.75 9.3,-1.56 11.46,3.5 20.03,2.43 13,-6.4 21.69,-16.82 24.34,-33.33 31.34,-12.84 13.61,-74.97 52.93,-79.55 7.96,-1.21 5.49,7.96 13.31,6.74 8.26,-8.86 19.85,-14.05 35.51,-15.62 4.58,-8.56 4.87,-21.57 4.28,-35.5 6.88,0.6 13.56,-9.77 22.3,-15.31 15.44,-10.07 10.42,-11.59 17.43,-28.75 10.72,-25.68 27.71,-42.5 13.31,-63.94 -34.53,-22.62 -50.92,13.79 -57.32,39.65l-0.01 -0.02zm-77.44 -17.6c1.56,-2.47 8.74,-10.25 2.17,-13.32 -3.67,2.59 -11.03,11.16 -2.17,13.32zm-46.48 74.96c27.06,4.28 32.55,-39.78 17.72,-50.8 -8.43,14.41 -19.59,25.98 -17.72,50.8zm-463.98 -2.15c1.38,0.6 4.29,0 4.41,2.16 15.31,-0.17 18.08,-20.37 11.2,-30.9 -19.46,-4.29 -15.62,14.04 -15.62,28.75zm220.91 20.06c13.93,8.38 28.13,10.68 44.19,10.85 8.91,-28.61 -13.93,-33.08 -30.9,-41.94 -4.72,9.94 -12.5,16.99 -13.27,31.09l-0.01 0.01zm181.25 33.03c15.62,-0.31 19.89,11.16 35.37,11.16 2.24,-5.97 4.41,-11.76 4.28,-20.06 -15.48,-2.9 -16.7,-19.89 -35.33,-19.89 -2.34,9.22 -8.3,19.89 -4.33,28.79zm-234.16 17.6c12.55,12.23 25.5,1.64 37.62,-4.29 1.68,-8.3 -2.9,-10.59 -2.29,-17.77 -16.81,-12.07 -39.48,-4.28 -35.33,22.06zm141.33 -6.45c-10.42,3.81 -43.45,39.77 -44.24,46.36 -1.99,15.42 9.65,39.6 31.09,42.06 7.78,-8.12 1.52,-16.81 0,-26.64 6.26,-28.45 45.09,-24.16 44.35,-59.62 -8.3,-1.38 -19.59,-6.74 -31.22,-2.16l0.02 0zm-66.24 94.86c-7.64,-31.22 -66.84,-0.35 -59.66,35.46 26.6,14.69 65.93,-9.3 59.66,-35.46zm-97.28 39.73c-3.86,7.96 -7.64,16.09 -8.86,26.8 4.71,1.81 6.4,6.57 13.45,6.57 14.36,-2.29 16.52,-43.62 -4.58,-33.37zm83.97 41.94c-16.99,11.93 -14.7,24.48 -31.04,28.93 -22.48,6.26 -35.66,-18.54 -50.68,-17.77 -18.8,1.08 -18.8,20.37 -17.55,48.82 -41.16,25.98 -81.06,53.04 -117.34,83.83 -21.88,-2.77 -31.04,7.17 -52.93,4.58 -26.17,26.89 -54.31,51.84 -90.89,68.54 -0.91,18.03 17.91,27.65 6.58,52.93 6.6,-0.31 5.96,6.09 9.21,8.86 21.1,-13.45 31.04,-25.07 61.49,-15.44 12.55,-26.02 61.34,-11.8 75.27,-31.03 17.26,-23.14 -20.79,-48.98 13.46,-63.96 9.34,7.31 19.59,1.99 30.74,0 5.24,-12.41 12.23,-30.9 26.75,-26.64 0.48,14.36 -7.96,20.19 -8.86,33.03 17.6,14.41 45.93,-5.19 57.39,-17.6 15.13,2.94 29.66,-10.85 35.33,-24.3 -1.08,-9.95 -12.55,-9.82 -11.03,-22.06 10.6,-19.11 29.71,-35.92 59.85,-28.74 15.42,-7.65 24.46,-41.59 48.51,-26.6 3.5,-20.83 20.44,-28.02 19.85,-53.09 -21.82,-33.22 -42.02,-3.38 -64.07,-2.29l-0.02 -0.02zm-112.77 11.16c0,-22.3 -20.19,-11.8 -33.03,-6.57 -2.9,9.34 -0.91,11.92 0,22.19 9.34,-7.05 25.86,-6.58 33.03,-15.62zm280.87 44.24c-14.83,10.07 -27.98,14.36 -15.57,37.62 11.28,-0.77 23.69,-12.71 33.28,-2.16 7.83,-14.53 14.89,-24.79 10.72,-46.49 -8.26,-13.14 -16.22,2.43 -28.45,11.03l0.01 0zm-77.52 28.75c11.88,4.28 23.08,-6.27 20.19,-24.16 -15.17,-0.31 -15.17,14.36 -20.19,24.16zm-13.32 17.73c0.31,-4.28 11.32,-16.22 0,-17.72 -3.38,2.9 -7.96,16.33 0,17.72zm-483.85 13.14c3.67,0 7.35,0 10.85,0 -2.72,-10.69 11.16,-5.36 11.32,-13.15 -6.87,-0.91 -10.7,3.38 -15.61,-6.7 -10.07,3.82 -12.23,10.07 -6.57,19.85l0.01 0zm450.83 46.53c-4.76,22.95 -44.4,25.55 -28.79,55.38 31.52,-10.12 67.63,-24.16 59.67,-66.41 -12.84,0.96 -22.19,5.49 -30.88,11.03zm-77.43 59.67c1.37,-13.79 -11.46,-26.03 -24.31,-33.03 -11.5,4.58 -7.36,25.07 -15.48,33.03 -16.95,6.09 -24.78,-2.77 -35.33,-8.86 -6.7,9.46 -10.25,35.62 -2.29,46.48 18.8,-20.97 74.49,-4.76 77.4,-37.62l0.01 0zm-972.45 8.86c7.19,0.31 7.64,-5.67 8.87,-11.02 -3.21,-1.21 -5.49,-3.39 -8.87,-4.41 -1.06,5.02 -4.28,11.16 0,15.42l0 0.01zm209.9 11.03c11.31,12.66 39.01,11.63 33.2,-15.48 -9.49,-2.29 -19.58,-4.11 -28.63,-6.57 -2.57,6.44 -6.26,11.32 -4.58,22.05l0.01 0zm59.65 -19.89c1.38,8.09 -4.74,8.38 -4.26,15.31 7.03,-0.96 7.79,4.28 15.61,2.29 -1.08,-8.43 3.98,-10.72 1.99,-19.76 -6.58,-1.53 -6.41,3.86 -13.32,2.16l-0.01 0zm-740.21 30.88c16.36,7.64 32.74,7.53 48.66,4.45 3.36,-24.3 -54.62,-36.23 -48.66,-4.45zm232.21 -13.27c0,4.41 0,8.86 0,13.27 5.5,3.97 11.64,7.53 22.04,6.74 18.04,-16.65 -5.68,-35.8 -22.04,-20.01l0 -0.01zm1056.25 44.19c13.79,9.04 23.13,-7.05 44.06,0 5.22,-10.38 11.63,-19.28 11.16,-35.33 -26.12,-26.03 -52.15,1.99 -55.22,35.33zm300.61 -13.14c3.02,-4.88 5.63,-10.72 4.29,-19.89 -33.38,-28.45 -45.45,27.84 -4.29,19.89zm-663.28 -13.32c-22.05,9.34 -40.26,8.12 -63.78,22.19 -2.77,62.43 105.37,22.05 63.78,-22.19zm-625.36 53.09c7.96,6.4 15,2.43 24.46,4.41 0.94,-10.85 8.58,-14.83 19.89,-15.42 11.95,-55.38 -63.77,-41.91 -44.35,11.02l0 -0.01zm1222.24 -6.73c18.8,-0.6 18.97,-18.51 13.31,-33.03 -20.19,-2.77 -29.83,24.78 -13.31,33.03zm-1330.54 -11.03c-4.74,58.77 34.89,11.33 62.12,24.48 11.3,-45.09 -40.54,-48.77 -62.12,-24.48zm468.38 33.08c-14.67,-15.61 -30.59,-30.9 -52.61,-39.77 -11.61,15.61 -27.54,27.2 -39.92,41.9 12.83,2.47 10.1,-2.59 15.29,-4.28 3.84,40.68 60.43,28.13 68.84,64.25 -1.99,5.49 -5.5,9.21 -11.17,10.85 -16.67,-15.13 -67.6,-11.45 -66.39,17.91 4.74,10.42 16.67,9.34 24.34,2.16 10.69,8.57 18.96,22.49 31.04,22.01 7.64,-0.13 13.94,-10.25 22.19,-15.42 1.99,-1.38 6.25,1.2 8.39,0 15.15,-8.74 24.96,-20.37 37.8,-22.19 3.21,5.79 7.17,10.25 11.16,15.61 6.89,-0.3 9.64,-4.92 17.74,-4.45 1.82,-9.17 -3.52,-11.46 -2.29,-19.89 -38.7,0.91 -26.45,-56.76 13,-37.47 5.21,7.64 6.11,18.97 9.2,28.61 32.7,-5.35 33.66,-53.69 15.44,-77.26 -18.04,-2.9 -33.07,-8.39 -37.64,-24.48 -34.42,1.21 -48.49,22.35 -64.42,41.94l0.01 -0.02zm-143.46 -13.19c-11.95,3.25 -12.84,18.2 -28.77,17.77 0,8.86 0,17.72 0,26.6 28.31,0.3 9.63,44.05 22.17,55.25 3.66,-17.9 15.46,-27.23 31.07,-33.2 2.91,-15.62 6.89,-30 8.72,-46.53 -12.69,-5.06 -19.87,-15.31 -33.19,-19.89zm948.26 64.25c10.12,-8.38 24.16,-6.09 24.34,-19.87 0,-17.12 -29.22,-25.39 -37.47,-2.29 -13.15,-3.5 -16.22,1.08 -26.64,4.45 -23.57,-20.49 -59.67,3.67 -81.85,-11.03 -14.22,6.88 -16.22,26.65 -28.72,35.19 -32.16,2.29 -50.66,18.51 -70.86,33.33 -21.23,-6.74 -38.09,2.29 -53.09,13.14 -18.03,-9.46 -26.89,9.82 -35.14,17.77 -24.34,0.31 -41.29,8.87 -55.22,19.89 -6.74,-2.47 -12.71,-5.06 -22.19,-4.45 -16.09,17.47 -68.87,36.28 -41.94,68.4 18.81,-4.15 27.55,13.61 44.06,13.45 33.51,-0.61 82.63,-79.21 137.24,-55.38 22.01,-18.64 35.51,-56 77.23,-41.91 13.19,-11.92 24.16,-26.32 33.08,-42.06 17.55,-1.69 22.48,-15.9 37.62,-19.89 29.35,4.11 33.63,32.74 70.82,28.75 6.45,-5.67 14.7,-25.98 28.75,-37.48l-0.02 0zm-610.02 2.17c18.33,7.96 26.16,-9.82 42.02,-11.16 0,-5.06 0,-10.3 0,-15.48 -18.46,-13.15 -39.61,4.58 -42.02,26.64zm-387.03 0c-19.61,-8.57 -44.35,-28.28 -61.67,-8.86 -0.45,16.81 -4.73,40.68 8.74,48.63 5.65,6.7 9.17,-7.05 17.74,-4.45 9.02,5.06 11.16,16.99 28.89,13.32 8.72,-10.43 10.7,-31.23 6.29,-48.65l0 0.01zm577.14 19.71c-20.2,-17.58 -48.65,0.48 -75.1,-6.4 -19.89,17.86 -74.97,32.85 -48.65,75.1 12.84,-1.81 27.84,-20.8 39.61,-30.9 36.09,2.77 75.87,2.29 88.59,-28.75 3.19,2.42 5.19,6.44 10.85,6.57 0,-8.09 0,-16.22 0,-24.31 -7.64,0.13 -9.77,6.27 -15.29,8.69l-0.01 -0.01zm-293.83 61.96c-25.7,-13.75 -69.45,-10.12 -88.45,6.74 -14.21,-7.53 -24.01,6.57 -33.18,11.03 -12.37,-11.93 -27.99,-1.26 -41.93,4.41 -22.95,-7.17 -57.52,-12.72 -84.12,-13.32 -5.82,24.78 0.15,55.38 28.77,53.09 9.49,-2.29 10.99,-12.55 22.02,-13.31 6.11,3.66 9.78,9.51 15.31,13.31 17.57,-13.61 52.93,-9.04 64.22,-28.75 10.89,2.43 17.75,20.01 33.36,19.72 10.41,0 22.95,-16.05 35.04,-17.43 11.62,-1.52 25.06,8.86 35.34,6.57 15,-3.38 13.9,-18.2 22.17,-22.17 24.96,15.29 79.55,5.78 55.38,-28.75 -15,3.66 -34.89,7.35 -48.63,0 -6.62,1.81 -5.97,10.54 -15.31,8.86l0.01 -0.02zm-327.2 46.53c14.53,4.28 13.6,-18.99 4.59,-19.89 -4.76,3.5 -5.21,10.98 -4.59,19.89zm245.2 59.62c7.81,-36.09 -18.97,-32.69 -37.47,-22 -21.1,31.82 21.1,49.25 37.47,22zm-262.97 0c7.05,-1.04 4.76,6.75 13.33,4.33 3.19,-4.76 5.64,-10.59 4.43,-19.76 -9.95,-9.65 -21.88,-1.38 -17.75,15.42l-0.01 0.01zm433.21 4.33c-2.12,5.49 -5.19,9.59 -4.41,17.73 9.77,9.77 22.91,4.58 37.48,4.58 5.78,-6.1 4.71,-15.62 2.24,-24.48 -12.19,-6.74 -22.78,-1.53 -35.33,2.16l0.01 0.01zm-152.49 0c2.29,17.73 -15.77,28.46 -15.31,44.36 0.92,32.72 57.67,33.63 79.55,13.14 25.98,-0.31 32.85,-6.44 52.79,-4.28 5.79,-11.32 0,-23.26 -4.33,-30.9 -26.11,3.97 -29.04,-15.31 -44.2,-22.32 -22.77,2.72 -44.04,0.91 -68.51,0z"></path>    <path class="fil0" d="M2979.93 402.2c-99.02,-24.55 -201.78,-35.89 -306.86,-32.82 -757.07,22.44 -1403.54,829.02 -1436.73,1800.21 -9.34,265.84 -1.53,300.88 14.67,386.82 0,0 -328.73,-679.03 233.45,-1669.36 108.75,-192.14 793.59,-933.04 1545.91,-477.58 0,0 8.91,7.21 -50.46,-7.26l0.02 -0.01z"></path>    <path class="fil0" d="M1127.6 2300.5c-31.36,-130.79 -49.11,-270.01 -51.11,-415.02 -12.71,-885.24 557.74,-1645.95 1274.11,-1715.81 359.32,-33.56 584.79,28.22 711.91,204.59 0,0 -0.43,-203.51 -285.15,-319.47 -130.61,-53.32 -323.67,-63.16 -472.81,-48.85 -716.36,69.99 -1349.97,721.41 -1317.85,1765.61 5.96,186.43 37.94,361.76 91.64,521.17 56.44,137.97 87.33,162.45 87.04,160.15 -15.61,-58.89 2.75,19.11 -37.77,-152.37l0.01 0.01z"></path>    <path class="fil0" d="M210.66 2388.14c26.64,98.37 66.4,193.66 120.24,284.53 385.78,651.35 1404.59,826.35 2270.4,385.19 237.12,-120.54 264.04,-144.11 331.34,-200.09 0,0 -434.89,616.34 -1573.6,604.22 -220.74,-2.42 -1200.67,-242.77 -1166.26,-1121.55 0,0 2.15,-11.33 17.9,47.69l-0.02 0.01z"></path>    <path class="fil0" d="M2768.66 3089.99c-99.14,90.54 -212.63,173.48 -338.54,245.37 -768.37,439.81 -1710.07,308.67 -2117.88,-283.93 -203.77,-298.28 -258.54,-525.45 -166.14,-722.01 0,0 -177.62,98.8 -141.17,404.14 16.5,140.14 101.57,313.91 186.31,437.34 408.13,592.78 1284.5,831.87 2182.91,298.16 160.49,-95.47 297.8,-208.36 411.35,-332.57 93.61,-116.28 99.87,-155.1 98.19,-153.58 -43.87,42.25 15.31,-11.76 -115,107.09l-0.03 0z"></path>    <path class="fil0" d="M3342.28 3901.2c69.44,-74.8 129.1,-159.23 177.31,-252.89 347.23,-673.05 -45.93,-1629.11 -879.32,-2128.66 -228.21,-136.67 -262.78,-146.91 -345.54,-174.16 0,0 753.23,41.09 1347.51,1012.21 115.19,188.48 432.03,1146.38 -330.54,1584.03 0,0 -10.9,4.28 30.56,-40.53l0.02 -0.01z"></path>    <path class="fil0" d="M2578.51 1361.1c129.41,35.98 259.77,87.9 387.79,156.34 780.76,417.62 1169.6,1285.25 884.19,1945.78 -144.76,330.77 -307.93,497.78 -523.81,523.81 0,0 178.52,98.2 417.62,-94.86 110.16,-88.72 212.15,-252.72 271.52,-390.09 285.89,-660.82 22.67,-1530.48 -906.68,-2007.9 -165.95,-85.42 -334.7,-142.11 -500.21,-172.08 -148.08,-17.51 -184.32,-2.47 -182.19,-1.61 59.05,14.83 -18.05,-6.83 151.75,40.61z"></path>    <path class="fil0" d="M6641.98 1959.8c15.22,266.89 -167.79,453.73 -434.69,453.73 -427.05,0 -522.39,-480.41 -522.39,-819.76 0,-324.09 64.86,-884.63 495.71,-884.63 293.58,0 434.65,221.16 461.37,484.25l579.54 -80.08c-80.06,-552.86 -461.38,-896.03 -1025.65,-896.03 -789.28,0 -1136.26,659.65 -1136.26,1368.87 0,686.28 316.45,1323.08 1082.86,1323.08 305.05,0 518.53,-102.96 713.01,-339.37l87.69 301.23 278.36 0 0 -1399.34 -1075.24 0 0 488.05 495.7 0zm1775.68 -1063.79c-591,0 -918.92,438.47 -918.92,1002.79 0,560.52 324.09,1010.45 918.92,1010.45 571.94,0 934.18,-438.51 934.18,-991.37 0,-571.94 -327.9,-1021.84 -934.18,-1021.84l0 -0.02zm3.82 369.84c129.66,0 221.16,49.55 266.9,175.38 53.39,144.93 61,327.95 61,480.45 0,232.61 -15.22,613.86 -331.71,613.86 -320.31,0 -316.49,-472.79 -316.49,-693.94 0,-221.16 19.07,-575.73 320.31,-575.73l-0.01 -0.01zm2005.92 -369.84c-591,0 -918.92,438.47 -918.92,1002.79 0,560.52 324.1,1010.45 918.92,1010.45 571.94,0 934.17,-438.51 934.17,-991.37 0,-571.94 -327.9,-1021.84 -934.17,-1021.84l0 -0.02zm3.81 369.84c129.67,0 221.16,49.55 266.94,175.38 53.37,144.93 61.01,327.95 61.01,480.45 0,232.61 -15.26,613.86 -331.77,613.86 -320.29,0 -316.45,-472.79 -316.45,-693.94 0,-221.16 19.07,-575.73 320.27,-575.73l0 -0.01zm2819.63 1605.24l0 -2615.69 -560.47 0 0 884.63c-122.02,-179.21 -266.95,-244.02 -484.25,-244.02 -564.33,0 -709.23,568.13 -709.23,1029.46 0,449.91 152.51,983.77 697.76,983.77 247.82,0 407.97,-133.48 514.73,-339.37l7.64 0 0 301.23 533.8 0 0.02 0.01zm-560.47 -808.34c0,95.34 -3.86,198.26 -49.6,285.95 -45.74,87.7 -141.08,156.35 -244.02,156.35 -278.36,0 -308.83,-354.63 -308.83,-564.32 0,-232.57 11.41,-652.01 331.71,-652.01 255.49,0 270.76,320.31 270.76,507.13l0 266.9 -0.01 0zm2808.73 -1300.23l0 -507.12 -1868.33 0 0 2615.69 1868.33 0 0 -507.12 -1258.26 0 0 -579.58 991.32 0 0 -491.85 -991.32 0 0 -530 1258.26 0 0 -0.01zm1955.21 2108.57c-30.53,-95.34 -38.14,-190.66 -38.14,-289.77l0 -903.67c0,-232.57 19.07,-446.12 -179.21,-606.27 -156.35,-129.62 -415.65,-175.36 -613.88,-175.36 -407.97,0 -865.55,137.24 -922.76,606.23l530 49.59c0,-190.66 156.34,-282.16 335.56,-282.16 83.88,0 179.22,26.67 228.76,91.5 57.21,72.46 49.6,171.61 49.6,255.49l0 45.75c-236.42,22.87 -545.26,38.13 -766.43,122.01 -255.49,95.34 -434.7,289.82 -434.7,575.76 0,366.05 266.95,549.08 610.07,549.08 289.82,0 457.58,-110.6 617.72,-339.37 -3.81,99.14 3.82,202.09 26.68,301.23l556.72 0 0 -0.02zm-610.07 -850.29c0,137.29 3.81,251.62 -76.27,373.64 -64.81,99.14 -167.76,160.15 -282.16,160.15 -156.35,0 -247.84,-102.96 -247.84,-255.45 0,-282.16 392.72,-331.76 606.27,-354.63l0 76.27 0 0.01zm848.91 -1086.71l0 1936.99 560.48 0 0 -739.73c0,-343.12 53.41,-690.14 480.44,-667.22l0 -560.52 -95.33 -7.61c-244.03,-19.07 -358.39,194.43 -415.59,400.32l-7.61 0 0 -362.23 -522.39 0zm2471.45 -3.81l-415.59 0 0 -606.26 -488.06 38.13 -49.59 568.13 -339.37 0 0 446.12 316.49 0 0 854.09c0,190.66 0,423.24 156.35,552.86 125.82,102.99 339.32,125.87 499.46,125.87 102.94,0 240.22,-15.27 350.82,-41.94l0 -423.25c-64.86,7.61 -137.29,15.27 -186.87,15.27 -240.18,0 -259.24,-57.21 -259.24,-312.68l0 -770.22 415.59 0 0 -446.12 0.01 0.02zm1879.28 709.2c0,-186.82 11.42,-381.3 -106.78,-533.8 -114.36,-148.69 -305.05,-209.68 -484.25,-209.68 -209.7,0 -430.87,110.55 -503.29,305.04l-7.64 0 0 -945.63 -560.48 0 0 2615.69 560.48 0 0 -1044.76c0,-114.36 0,-236.37 49.59,-339.33 45.75,-95.34 163.96,-144.89 266.9,-144.89 244.03,0 224.95,316.45 224.95,484.21l0 1044.76 560.52 0 0 -1231.59 0 -0.02z"></path>    <path class="fil0" d="M5181.41 3342.28l0 790.2 45 0c15.39,-55.65 15.39,-56.86 22.53,-81.71 23.71,46.17 49.77,93.57 148.09,93.57 200.2,0 222.71,-206.12 222.71,-311.56 0,-84.1 -14.22,-182.45 -78.18,-247.62 -24.91,-23.69 -66.37,-48.54 -125.6,-48.54 -90.03,0 -129.1,59.24 -148.09,88.85l0 -283.15 -86.46 0 0 -0.03zm86.47 451.4c0,-111.38 58.07,-184.83 131.53,-184.83 106.63,0 124.4,101.91 124.4,223.92 0,93.62 -7.13,239.31 -126.76,239.31 -129.15,0 -129.15,-143.37 -129.15,-189.55l0 -88.85 -0.01 0zm549.72 -245.24l0 369.64c0,34.33 0,113.71 20.1,154 35.58,73.46 106.66,77 135.07,77 101.91,0 133.86,-65.16 152.84,-103.07l0 86.46 80.54 0 0 -584.04 -86.48 0 0 266.56c0,90.03 0,261.84 -126.76,261.84 -88.86,0 -88.86,-61.62 -88.86,-159.98l0 -368.41 -86.46 0 0 -0.01zm616.02 0l0 584.04 86.48 0 0 -584.04 -86.48 0zm90.03 -103.07l0 -100.69 -93.57 0 0 100.69 93.57 0zm222.7 -103.06l0 790.2 86.52 0 0 -790.2 -86.52 0zm635.01 0l0 285.53c-15.39,-29.61 -46.21,-91.23 -145.7,-91.23 -120.84,0 -207.33,108.99 -207.33,311.56 0,87.69 18.94,296.16 204.95,296.16 104.24,0 140.99,-65.16 156.38,-93.57l0 81.71 78.16 0 0 -790.2 -86.48 0 0.01 0.03zm0 540.23c0,58.04 -2.38,106.63 -30.78,142.17 -22.53,29.61 -58.07,47.38 -94.82,47.38 -100.69,0 -131.48,-100.69 -131.48,-235.77 0,-108.99 21.31,-227.47 126.78,-227.47 33.15,0 69.88,13.04 97.15,50.98 33.15,46.16 33.15,95.95 33.15,125.56l0 97.15zm313.96 -334.09l0 584.04 86.46 0 0 -584.04 -86.46 0zm90.01 -103.07l0 -100.69 -93.57 0 0 100.69 93.57 0zm222.71 687.11l86.52 0 0 -315.11c0,-164.69 55.65,-213.24 125.57,-213.24 90.06,0 90.06,71.08 90.06,168.24l0 360.1 86.48 0 0 -371.97c0,-65.16 -1.21,-114.92 -17.77,-150.47 -21.31,-47.38 -73.46,-78.2 -139.79,-78.2 -103.07,0 -135.06,72.28 -150.46,106.61l0 -90.03 -80.59 0 0 584.04 -0.01 0.02zm1035.44 -675.26c-68.7,-1.18 -117.25,-1.18 -137.4,99.53 -20.15,-9.51 -49.77,-24.91 -97.15,-24.91 -100.69,0 -195.48,80.54 -195.48,201.4 0,88.86 42.63,130.32 67.54,154 -48.59,21.36 -75.82,54.52 -75.82,107.83 0,53.32 31.99,75.84 54.48,91.24 -23.71,8.3 -77,28.41 -77,116.09 0,137.4 157.59,152.84 232.22,152.84 56.86,0 247.62,-9.51 247.62,-169.46 0,-137.4 -101.91,-143.32 -222.75,-149.26 -120.81,-5.92 -154,-7.08 -154,-59.24 0,-37.92 27.28,-47.38 48.59,-54.52 21.31,5.92 41.47,10.68 72.24,10.68 140.99,0 196.69,-113.71 196.69,-200.23 0,-69.88 -32,-113.71 -45.05,-131.48 4.76,-37.92 16.61,-73.46 61.62,-73.46 7.13,0 11.85,0 23.69,2.38l0 -73.45 -0.02 0.02zm-231.02 146.91c72.29,0 101.91,71.08 101.91,131.48 0,86.48 -52.14,130.32 -106.61,130.32 -42.67,0 -104.29,-28.41 -104.29,-130.32 0,-33.17 7.13,-131.48 108.99,-131.48zm-92.4 503.49c162.32,4.76 181.25,5.92 202.57,11.85 43.83,13 50.98,45 50.98,69.9 0,87.64 -103.07,95.95 -152.82,95.95 -88.86,0 -150.47,-20.15 -150.47,-98.32 0,-48.59 31.99,-67.54 49.75,-79.38l-0.01 0.01zm1287.15 -427.7c-11.84,-42.63 -42.63,-148.08 -184.78,-148.08 -133.86,0 -190.77,104.29 -190.77,174.15 0,32 10.68,61.63 28.45,86.48 28.46,41.47 68.71,56.91 168.24,87.69 52.14,16.61 113.71,35.55 113.71,100.71 0,41.47 -31.95,95.97 -116.09,95.97 -112.55,0 -129.1,-81.76 -135.02,-112.58l-80.59 17.77c9.46,43.83 34.37,167.07 209.7,167.07 148.08,0 212.06,-94.78 212.06,-178.91 0,-117.25 -104.24,-151.63 -178.91,-175.33 -95.95,-28.41 -136.24,-41.47 -136.24,-100.69 0,-42.64 32,-90.03 100.71,-90.03 80.58,0 104.29,69.88 113.75,94.78l75.79 -18.99 -0.01 -0.01zm196.69 -131.48l0 369.64c0,34.33 0,113.71 20.15,154 35.55,73.46 106.63,77 135.02,77 101.91,0 133.91,-65.16 152.84,-103.07l0 86.46 80.54 0 0 -584.04 -86.46 0 0 266.56c0,90.03 0,261.84 -126.78,261.84 -88.85,0 -88.85,-61.62 -88.85,-159.98l0 -368.41 -86.48 0 0.01 -0.01zm954.88 131.48c-11.84,-42.63 -42.67,-148.08 -184.83,-148.08 -133.85,0 -190.7,104.29 -190.7,174.15 0,32 10.64,61.63 28.41,86.48 28.45,41.47 68.69,56.91 168.22,87.69 52.15,16.61 113.76,35.55 113.76,100.71 0,41.47 -32,95.97 -116.14,95.97 -112.54,0 -129.1,-81.76 -135.01,-112.58l-80.59 17.77c9.51,43.83 34.38,167.07 209.69,167.07 148.09,0 212.08,-94.78 212.08,-178.91 0,-117.25 -104.25,-151.63 -178.91,-175.33 -95.95,-28.41 -136.23,-41.47 -136.23,-100.69 0,-42.64 31.98,-90.03 100.68,-90.03 80.59,0 104.29,69.88 113.75,94.78l75.84 -18.99 -0.02 -0.01zm206.12 -267.71l0 136.24 -84.08 0 0 71.08 84.08 0 0 293.78c0,140.99 0,235.77 148.09,235.77 34.37,0 59.24,-4.76 80.59,-8.3l0 -73.46c-15.44,3.59 -30.84,5.92 -52.15,5.92 -90.06,0 -90.06,-47.38 -90.06,-159.93l0 -293.78 113.75 0 0 -71.08 -113.75 0 0 -144.54 -86.48 8.3 0.01 0zm440.72 284.33c7.08,-24.87 24.86,-92.41 116.09,-92.41 108.99,0 108.99,103.07 108.99,144.54l0 24.87c-21.31,-2.38 -43.83,-4.76 -77,-4.76 -95.95,0 -168.23,22.53 -212.06,74.66 -28.41,34.33 -43.81,81.72 -43.81,130.32 0,107.79 69.88,175.33 171.78,175.33 106.61,0 144.5,-73.46 168.19,-119.63 0,41.47 1.21,60.4 7.13,103.02l82.92 0c-9.46,-46.16 -10.68,-69.86 -10.68,-187.16l0 -171.78c0,-66.33 0,-137.4 -35.55,-180.08 -29.61,-36.71 -84.08,-61.62 -154,-61.62 -58.02,0 -95.95,16.59 -112.55,24.91 -75.79,39.09 -88.85,97.15 -94.78,125.56l85.31 14.22 0.02 -0.01zm225.08 145.71c3.55,62.78 3.55,106.61 -24.86,159.93 -23.69,41.47 -61.62,74.66 -119.68,74.66 -67.54,0 -97.15,-40.29 -97.15,-100.73 0,-94.78 54.53,-140.96 174.16,-140.96 27.23,0 41.47,2.38 67.54,7.1zm313.96 -293.8l0 584.04 86.46 0 0 -584.04 -86.46 0zm90.01 -103.07l0 -100.69 -93.57 0 0 100.69 93.57 0zm222.75 687.11l86.48 0 0 -315.11c0,-164.69 55.7,-213.24 125.57,-213.24 90.06,0 90.06,71.08 90.06,168.24l0 360.1 86.48 0 0 -371.97c0,-65.16 -1.18,-114.92 -17.77,-150.47 -21.31,-47.38 -73.46,-78.2 -139.79,-78.2 -103.07,0 -135.06,72.28 -150.46,106.61l0 -90.03 -80.56 0 0 584.04 0 0.02zm693.05 -435.94c7.1,-24.87 24.87,-92.41 116.09,-92.41 109,0 109,103.07 109,144.54l0 24.87c-21.31,-2.38 -43.83,-4.76 -77,-4.76 -95.99,0 -168.24,22.53 -212.08,74.66 -28.45,34.33 -43.83,81.72 -43.83,130.32 0,107.79 69.9,175.33 171.78,175.33 106.61,0 144.54,-73.46 168.23,-119.63 0,41.47 1.21,60.4 7.13,103.02l82.93 0c-9.51,-46.16 -10.69,-69.86 -10.69,-187.16l0 -171.78c0,-66.33 0,-137.4 -35.53,-180.08 -29.63,-36.71 -84.1,-61.62 -154,-61.62 -58.07,0 -95.99,16.59 -112.55,24.91 -75.84,39.09 -88.86,97.15 -94.78,125.56l85.3 14.22 0.01 -0.01zm225.09 145.71c3.54,62.78 3.54,106.61 -24.91,159.93 -23.69,41.47 -61.58,74.66 -119.64,74.66 -67.54,0 -97.14,-40.29 -97.14,-100.73 0,-94.78 54.48,-140.96 174.15,-140.96 27.25,0 41.47,2.38 67.54,7.1zm313.94 -499.95l0 790.2 45 0c15.39,-55.65 15.39,-56.86 22.53,-81.71 23.71,46.17 49.72,93.57 148.09,93.57 200.2,0 222.71,-206.12 222.71,-311.56 0,-84.1 -14.22,-182.45 -78.21,-247.62 -24.87,-23.69 -66.33,-48.54 -125.57,-48.54 -90.03,0 -129.14,59.24 -148.08,88.85l0 -283.15 -86.48 0 0 -0.03zm86.49 451.39c0,-111.38 58.06,-184.83 131.48,-184.83 106.66,0 124.4,101.91 124.4,223.92 0,93.62 -7.1,239.31 -126.74,239.31 -129.14,0 -129.14,-143.37 -129.14,-189.55l0 -88.85zm549.71 -451.39l0 790.2 86.46 0 0 -790.2 -86.46 0zm719.1 509.41c-3.59,-219.16 -76.99,-319.86 -208.52,-319.86 -123.22,0 -227.47,98.32 -227.47,317.53 0,152.8 55.68,299.71 222.7,299.71 84.13,0 168.24,-34.37 204.98,-170.61l-81.75 -18.95c-13,45.01 -35.53,117.3 -118.47,117.3 -137.4,0 -136.24,-174.16 -136.24,-225.14l344.76 0 0.01 0.01zm-340.02 -71.08c7.1,-82.92 33.17,-176.49 122.02,-176.49 92.41,0 119.63,88.86 119.63,176.49l-241.65 0 0.01 0zm1379.55 -50.92c-14.18,-77 -39.09,-197.85 -193.1,-197.85 -174.16,0 -218,156.38 -218,315.16 0,139.78 39.13,302.09 212.08,302.09 165.85,0 187.17,-124.4 199.02,-203.77l-87.64 -10.69c-5.92,55.7 -15.39,142.21 -105.45,142.21 -120.84,0 -122.01,-149.29 -122.01,-216.83 0,-194.25 36.71,-255.87 119.63,-255.87 86.52,0 97.15,69.88 107.83,143.34l87.64 -17.77 0 -0.02zm370.84 -197.85c-197.85,0 -226.32,190.75 -226.32,309.22 0,136.24 41.47,308.02 222.71,308.02 208.53,0 225.14,-212.08 225.14,-315.16 0,-123.17 -37.92,-302.09 -221.54,-302.09l0.01 0.01zm-2.38 72.28c125.57,0 127.94,182.42 127.94,236.93 0,66.33 -5.93,235.77 -127.94,235.77 -122.02,0 -127.94,-169.44 -127.94,-235.77 0,-59.24 3.54,-236.93 127.94,-236.93zm421.73 528.35l86.46 0 0 -338.8c0,-45.01 0,-85.3 17.82,-123.22 11.8,-23.71 35.55,-66.33 97.11,-66.33 53.32,0 91.24,21.31 91.24,133.86l0 394.49 86.46 0 0 -344.72c0,-68.71 15.44,-183.63 117.3,-183.63 88.86,0 88.86,84.1 88.86,172.95l0 355.4 86.46 0 0 -360.1c0,-61.62 0,-136.24 -24.86,-175.38 -29.63,-46.17 -81.76,-65.16 -129.15,-65.16 -107.78,0 -138.62,81.76 -154,118.47 -8.3,-39.09 -26.07,-118.47 -139.78,-118.47 -93.61,0 -120.84,56.86 -143.32,105.45l0 -88.86 -80.59 0 0 584.04 0.01 0zm898.03 0l86.46 0 0 -338.8c0,-45.01 0,-85.3 17.77,-123.22 11.85,-23.71 35.55,-66.33 97.15,-66.33 53.32,0 91.24,21.31 91.24,133.86l0 394.49 86.46 0 0 -344.72c0,-68.71 15.39,-183.63 117.3,-183.63 88.86,0 88.86,84.1 88.86,172.95l0 355.4 86.46 0 0 -360.1c0,-61.62 0,-136.24 -24.86,-175.38 -29.63,-46.17 -81.76,-65.16 -129.15,-65.16 -107.83,0 -138.62,81.76 -154,118.47 -8.3,-39.09 -26.07,-118.47 -139.78,-118.47 -93.62,0 -120.84,56.86 -143.37,105.45l0 -88.86 -80.54 0 0 584.04 0.01 0zm897.99 -584.04l0 369.64c0,34.33 0,113.71 20.15,154 35.55,73.46 106.63,77 135.07,77 101.86,0 133.86,-65.16 152.84,-103.07l0 86.46 80.54 0 0 -584.04 -86.48 0 0 266.56c0,90.03 0,261.84 -126.76,261.84 -88.86,0 -88.86,-61.62 -88.86,-159.98l0 -368.41 -86.52 0 0.01 -0.01zm616.04 584.04l86.51 0 0 -315.11c0,-164.69 55.7,-213.24 125.57,-213.24 90.06,0 90.06,71.08 90.06,168.24l0 360.1 86.48 0 0 -371.97c0,-65.16 -1.21,-114.92 -17.77,-150.47 -21.33,-47.38 -73.46,-78.2 -139.79,-78.2 -103.07,0 -135.06,72.28 -150.45,106.61l0 -90.03 -80.59 0 0 584.04 -0.01 0.02zm616.07 -584.04l0 584.04 86.48 0 0 -584.04 -86.48 0zm90.03 -103.07l0 -100.69 -93.62 0 0 100.69 93.62 0zm232.18 -33.16l0 136.24 -84.08 0 0 71.08 84.08 0 0 293.78c0,140.99 0,235.77 148.09,235.77 34.37,0 59.24,-4.76 80.59,-8.3l0 -73.46c-15.44,3.59 -30.84,5.92 -52.15,5.92 -90.03,0 -90.03,-47.38 -90.03,-159.93l0 -293.78 113.71 0 0 -71.08 -113.71 0 0 -144.54 -86.52 8.3 0.02 0zm363.72 136.23l0 584.04 86.46 0 0 -584.04 -86.46 0zm90.05 -103.07l0 -100.69 -93.61 0 0 100.69 93.61 0zm629.05 406.34c-3.54,-219.16 -77,-319.86 -208.49,-319.86 -123.22,0 -227.48,98.32 -227.48,317.53 0,152.8 55.66,299.71 222.71,299.71 84.08,0 168.23,-34.37 204.95,-170.61l-81.72 -18.95c-13.04,45.01 -35.55,117.3 -118.47,117.3 -137.45,0 -136.29,-174.16 -136.29,-225.14l344.77 0 0.01 0.01zm-340.03 -71.08c7.1,-82.92 33.17,-176.49 122.02,-176.49 92.44,0 119.68,88.86 119.68,176.49l-241.7 0 0.01 0zm868.37 -100.69c-11.84,-42.63 -42.63,-148.08 -184.78,-148.08 -133.86,0 -190.71,104.29 -190.71,174.15 0,32 10.63,61.63 28.4,86.48 28.46,41.47 68.71,56.91 168.24,87.69 52.14,16.61 113.71,35.55 113.71,100.71 0,41.47 -31.95,95.97 -116.09,95.97 -112.55,0 -129.1,-81.76 -135.02,-112.58l-80.59 17.77c9.51,43.83 34.37,167.07 209.7,167.07 148.08,0 212.06,-94.78 212.06,-178.91 0,-117.25 -104.24,-151.63 -178.91,-175.33 -95.95,-28.41 -136.24,-41.47 -136.24,-100.69 0,-42.64 32,-90.03 100.71,-90.03 80.58,0 104.29,69.88 113.75,94.78l75.79 -18.99 -0.02 -0.01z"></path>   </g>  </g> </g></svg>