<svg xmlns="http://www.w3.org/2000/svg" xmlns:xlink="http://www.w3.org/1999/xlink" xmlns:xodm="http://www.corel.com/coreldraw/odm/2003" xml:space="preserve" width="4134px" height="816px" style="shape-rendering:geometricPrecision; text-rendering:geometricPrecision; image-rendering:optimizeQuality; fill-rule:evenodd; clip-rule:evenodd" viewBox="0 0 1654.54 326.64"> <defs>  <style type="text/css">   <![CDATA[    .fil2 {fill:black;fill-rule:nonzero}    .fil0 {fill:#0054A6;fill-rule:nonzero}    .fil1 {fill:#A6BE4B;fill-rule:nonzero}   ]]>  </style> </defs> <g id="Layer_x0020_1">  <metadata id="CorelCorpID_0Corel-Layer"></metadata>  <g id="_2239453429584">   <path class="fil0" d="M276.64 67.57c0.8,1.35 0.61,3.28 0.34,4.97 -0.5,0.32 -1.75,0.57 -2.16,0 -0.41,-1.01 0.44,-1.34 0.84,-1.98 -0.03,-1.29 -0.66,-3.05 0.98,-2.99l0 0z"></path>   <path class="fil0" d="M288.75 70.72c0.13,0.4 0.39,0.71 0.34,1.32 -0.66,0.47 -1.81,0.22 -2.5,-0.16 -0.7,-1.58 1.15,-1.45 2.16,-1.16l0 0z"></path>   <path class="fil0" d="M297.86 103.04c-0.52,0.42 -0.67,0.46 -1.5,0.34 -1.75,-1.91 1.69,-2.88 1.5,-0.34z"></path>   <path class="fil0" d="M321.39 165.7c0.19,0.84 0.66,3.42 -0.66,3.31 -0.19,-0.52 -0.46,-1 -0.49,-1.66 0.29,-0.63 0.91,-0.98 1.15,-1.65z"></path>   <path class="fil0" d="M214.66 27.95c0.51,0.09 0.46,0.75 0.65,1.15 0.72,-0.55 1.04,-0.78 1.5,0.17 1.02,-0.34 2,0.16 2.81,0.5 1.49,-1.1 3.79,1.29 5.63,0.83 0.56,-0.15 0.24,0.55 0.67,0.49 1.84,-1.43 2.82,1.23 5.13,0.83 0.79,0.21 1.02,0.97 1.68,1.33 0.74,-0.25 1.18,-0.8 2.31,-0.66 0.08,1.4 1.33,1.64 2.15,2.32 0.62,-0.19 0.68,-0.98 1.17,-1.32 0.86,0.02 0.94,0.83 1.98,0.66 0.36,2.5 2.13,3.61 3.84,4.8 1.11,-0.11 0.59,-1.46 0.79,-2.15 1.99,1.03 3.61,1.53 5.49,2.49 0.8,0.03 0.59,-0.97 1.32,-1 2.2,0.39 1.62,3.57 4.98,2.81 0.49,0.94 1.07,1.8 1.32,2.99 0.08,0.69 -0.95,0.26 -1,0.83 0.69,2.02 3.08,2.33 4.15,3.97 0.53,0.04 0.69,-0.29 1.33,-0.15 0.06,1.34 0.89,2.2 1.83,2.97 2.19,1.88 2.92,4.38 5.45,2.83 0.63,0.25 1.25,0.52 2.15,0.49 0.53,0.87 1.13,1.64 1.67,2.49 2.74,0.18 3.27,2.6 4.64,4.15 0.41,3.24 2.47,4.82 3.47,7.45 0.42,0.21 0.82,0.41 1.34,0.5 0.13,0.46 0.53,0.68 0.48,1.32 3.11,1.56 3.6,5.68 7.31,6.64 -0.65,3.37 2.5,4.15 3.14,6.79 1.02,0.7 2.3,1.12 2.67,2.48 0.75,-0.16 1,0.22 1.49,0.34 0.21,1.08 0.04,1.65 0,2.82 1.11,0.68 1.81,1.8 3.64,1.32 -0.68,3.33 1.04,6.49 3.82,6.79 -0.17,2.42 1.02,3.51 1.14,5.64 0.24,0.48 0.4,1.04 1,1.16 -0.32,1.26 0.61,1.71 0.99,2.49 1.43,2.74 2.56,6.22 3.98,8.96 -0.21,0.15 -0.5,0.26 -0.65,0.49 -1.42,-0.49 -1.98,-0.96 -3.81,-0.84 -0.48,-0.68 -1.3,-1.01 -1.85,-1.64 -0.31,-2.27 -1.46,-3.73 -2.47,-5.31 -0.15,-2.37 0.64,-3.89 -0.34,-5.47 -1.13,-1.82 -4.53,-1.12 -4.97,-3.15 -0.22,-1.1 0.8,-1.65 0.52,-3.14 -2.01,-2.13 -5.25,-0.51 -7.79,-1.17 -1.08,0.2 -0.96,1.63 -1.49,2.32 0.95,1.6 2.16,2.9 3.46,4.14 0.66,-0.15 0.85,-0.15 1.49,0 -0.07,1.94 0.72,3.05 1.84,3.82 0.69,-0.03 0.78,-0.65 1.49,-0.67 0.47,0.52 1.21,0.78 1,1.99 -0.61,0.23 -1.26,0.41 -1.52,0.99 0,0.84 0.38,1.3 0.68,1.82 0.76,0.22 0.64,-0.44 1.31,-0.32 1.17,0.72 0.49,3.26 1.83,3.81 0.26,1.95 -0.35,3.01 0,4.64 0.34,1.55 1.93,2.18 2.15,3.32 0.23,1.12 -0.36,1.7 0.17,2.82 0.61,1.27 1.63,2.69 2.64,3.32 -0.28,1.65 0.46,2.32 1.02,3.14 -0.03,0.86 -1.15,0.63 -1.33,1.32 0.93,2.33 0.28,8.83 3.31,8.79 1.08,0 1.47,-1.36 2.81,-1.49 0.1,-0.99 -0.18,-1.48 0,-2.16 0.7,-0.28 1.39,-0.6 1.84,-1.15 0.04,-1.55 -0.24,-2.77 -1.17,-3.31 0.77,-3.05 -1.67,-4.55 -3.97,-2.83 -0.16,-0.42 -0.23,-0.89 -0.18,-1.49 0.77,-0.8 2.13,-0.98 2.67,-1.99 0.78,-3.95 -1.25,-4.58 -2.67,-6.3 0.4,-0.78 1.26,-1.37 2.33,-1 0.97,-0.34 1.1,-1.53 2.81,-1.16 0.45,0.66 0.79,1.43 0.67,2.66 1.08,1.64 2.5,2.92 2.83,5.31 0.25,0.49 1.13,0.39 1.29,0.99 -1.71,4.25 3.19,4.35 2.34,8.78 0.92,0.91 0.55,1.86 0.68,3.65 0.12,2.13 1.08,4.47 0,6.8 1.17,4.39 -1.14,10.11 0.98,13.09 0.12,2.22 -0.19,4 -0.98,5.3 -0.4,-0.89 -0.19,-2.36 -0.68,-3.14 -1.5,0.03 -1.39,1.7 -2.16,2.47 0.49,2.79 -1.52,3.13 -1.67,5.32 -0.38,0.31 -0.79,-0.44 -1.32,-0.5 -1.47,0.67 -1.86,2.77 -1.16,4.32 1.38,-0.08 0.72,-2.18 2.48,-1.84 0.45,0.91 0.7,1.96 1.67,2.33 0.17,-0.13 0.38,-0.18 0.67,-0.17 0.77,-0.55 0.45,-2.22 1.98,-1.99 0.41,3.7 -2.44,6.25 -1.65,10.28 0.09,0.48 0.56,0.83 0.67,1.33 0.3,1.51 -1.05,2.69 -0.67,4.48 -1.41,0.96 -0.96,3.79 -2.32,4.79 -0.73,-0.58 -0.26,-2.37 -1.17,-2.82 -1.36,-0.15 -1.22,1.2 -1.81,1.84 -0.96,-0.21 -1.09,-1.23 -1.98,-1.51 -0.53,-0.11 -0.33,0.45 -0.84,0.35 0.15,2.14 -2.33,3.52 -0.82,5.46 0.96,0.29 0.75,-0.56 1.48,-0.5 0.79,0.04 0.41,1.27 0.5,2 -0.4,0.19 -0.55,0.66 -1.16,0.66 -0.18,2.19 -0.37,4.39 -1.17,5.97 0.2,1.38 1.53,0.71 2.33,0.83 -0.2,2.32 0.54,3.64 0,5.46 -0.4,0.14 -0.62,0.5 -1.32,0.35 -0.59,0.81 -0.47,1.92 -0.32,3.14 -1.5,0.76 -4.51,-1.17 -5.36,-1.55 0,-0.42 -0.45,-3.57 -0.22,-3.77 -0.16,-0.42 -1.3,-1.47 -1.34,-1.99 0.01,-4.16 1.73,-3 0.34,-7.19 -0.08,-1.01 1.9,-4.5 1.74,-5.55 0.49,-0.49 1.42,-0.47 1.84,-1.02 -0.05,-1.21 -0.08,-2.45 -0.82,-2.98 -1.14,0.33 -2.62,3.19 -2.82,4.43 -1.42,-1.4 -1.06,-4.61 -2.72,-5.78 0,-0.78 1.41,-3.83 1.41,-4.6 -0.06,-0.78 -2.21,1.49 -2.37,0.84 0.13,-1.46 -0.51,-0.64 -1.05,-1.43 -0.39,-2.59 1.67,-7.28 2.4,-9.04 -1.09,-1.4 0.68,-4.95 -1.31,-5.63 -1.54,0.38 -0.79,2.27 -0.53,3.48 -0.51,0.53 -2.17,4.75 -2.44,5.55 -1.56,-0.37 -1.95,-2.57 -3.32,-3.12 -0.54,-2.65 -1.93,-3.37 -2.52,-5.98 -0.2,-0.47 -1.16,-1.68 -1.35,-2.14 -1,-3.23 -1.25,0.83 -2.66,-1.95 -0.22,-0.23 -1.76,-4.45 -1.97,-4.66 -0.52,-1.75 -0.54,1 -1.57,-0.22 -0.39,0.09 -0.04,-1.64 -0.67,-1.79 -0.07,-0.6 -2.76,-0.33 -1.78,-2.19 -0.67,-1.17 0.24,1.13 0,-0.45 -1.06,-0.93 -2.03,-1.96 -2.66,-3.33 -0.96,-1.01 -3.03,1.26 -3.33,-0.44 -1.89,-0.74 -0.95,-3.27 -2.88,-3.99 0.12,-0.5 -1.02,-0.83 -0.87,-1.33 -1.31,-0.03 -2.09,-5.02 -3.32,-5.1 0.1,-0.49 1.52,2.16 1.54,1.77 -1.15,-0.84 -2.23,-1.53 -3.54,-2.21 -1.49,-2.83 -4.52,-3.14 -6.21,-5.77 -1.56,-0.38 -0.7,-1.81 -2.22,-2.21 0.06,-1.84 -2.31,-2.35 -3.1,-3.33 0.01,7.32 -3.41,-9.82 -3.52,-9.49 -0.45,-0.49 -0.8,-1.08 -0.99,-1.82 -0.45,0 -0.88,0 -1.32,0 -0.23,-0.9 -0.05,-1.77 -0.34,-2.49 -0.43,-1.02 -1,-1.01 -1.49,-2.15 -0.63,-1.52 -2.55,-1.91 -3,-3.81 -2,-0.37 -3.68,-1.06 -3.47,-3.65 -0.13,-0.42 -0.67,-0.42 -0.99,-0.66 -0.62,-3.33 -3.73,-4.94 -7.3,-4.81 -0.78,-0.53 -0.4,-1.32 -0.63,-1.99 -0.97,-2.38 -3.48,-2.84 -5.32,-4.31 -0.08,-2.97 -2.94,-3.14 -3.81,-5.31 -0.84,0.05 -1.32,0.47 -2,0.67 -3.27,-1.81 -5.21,-4.96 -9.78,-5.47 -0.36,-2.03 -2.47,-3.14 -4.64,-2.82 -0.55,-0.49 -0.55,-1.54 -1.33,-1.82 -1.33,0.92 -2.68,-0.4 -4.3,0 -1.79,-2.11 -6.17,-0.31 -7.79,-2.98 -0.78,0.06 -1.35,-0.09 -1.83,-0.33 -0.58,0.87 -1.22,1.64 -2.67,1.65 -0.61,-0.74 -1,-2.08 -2.97,-1.65 -0.25,0.05 -0.56,0.48 -1,0.5 -1.65,0.03 -2.66,-1.8 -3.64,-2 -1.34,-0.26 -2.84,0.4 -4.14,0 -0.84,-0.25 -1.22,-0.9 -1.82,-1 -1.57,-0.24 -2.3,0.67 -4.14,0.67 -1.28,0 -2.63,-0.9 -3.99,-0.34 -0.21,-0.59 -0.99,-0.97 -0.48,-1.82 -0.76,-0.63 -1.83,0.03 -2.51,0 -0.78,2.03 -2.99,2.64 -5.47,2.99 0.02,-0.29 -0.12,-0.43 -0.31,-0.5 -0.21,-1.23 1.12,-0.97 1.16,-1.99 0.08,-0.51 -0.46,-0.44 -0.52,-0.82 -0.56,0.74 -1.59,0.38 -2.47,0.16 -0.71,-0.05 -0.83,0.48 -1.33,0.66 -3.35,-0.98 -6.26,1.91 -8.62,2.33 -1.02,0.17 -2.25,-0.53 -3.49,-0.34 -1.11,0.18 -2.03,1.39 -2.64,2.16 -2.11,0.48 -4.31,0.88 -5.82,1.98 -2.35,-0.36 -4.66,-0.43 -5.79,0.99 -0.62,-0.58 -0.8,-1.62 -1.81,-1.81 -0.34,0 -0.21,0.44 -0.68,0.33 -0.11,1.39 0.18,2.36 0.17,3.64 -1.78,0.89 -3.27,2.04 -3.63,4.31 -2.36,-1.31 -4.97,-0.71 -5.32,2.33 -0.93,-0.22 -1.72,-0.18 -2.47,0.16 -0.15,0.42 -0.23,0.89 -0.18,1.49 0.59,0.35 1.02,0.85 1.67,1.16 0,0.39 0,0.78 0,1.16 -1.33,0.53 -2.87,1.11 -2.83,2.32 0.03,1.22 2.05,1.75 2.32,2.99 0.77,-0.35 1.87,-0.34 2.17,-1.17 -0.34,-2.07 1.27,-2.22 1.48,-4.14 1.5,0.37 2.07,-0.78 3.16,-0.33 2.16,-1.26 0.31,-2.95 0,-4.8 0.36,0.11 0.82,0.15 1.13,0.33 1.85,-2.32 4.56,-4.63 7.97,-4.82 2.36,-1.52 5.51,-2.24 8.61,-2.98 0,0.28 0.12,0.43 0.34,0.5 0.14,1.46 -0.96,1.68 -1.49,2.49 -1.54,-0.2 -2.33,0.32 -3.15,0.82 -1.25,-0.87 -2.32,0.22 -3.98,0.5 -0.7,0.12 -1.45,-0.12 -1.83,0 -1.4,0.5 -1.97,2.38 -2.81,3.16 -1.43,-0.22 -1.64,0.79 -2.16,1.48 0.33,0.31 0.67,0.55 1.34,0.5 0.68,-0.02 0.64,-0.8 1.15,-0.99 0.96,0.26 1.42,1.01 2.48,1.15 0.87,-0.4 1.09,-1.48 1.66,-2.15 4.4,-0.01 7.02,-1.84 10.62,-2.48 0.87,-0.78 1.44,-1.86 2.98,-2 0.34,0.7 0.54,1.55 1.16,2 1.04,-0.51 1.96,-1.13 2.33,-2.32 3.76,0.07 7.35,-0.77 10.77,-0.17 0.74,-0.05 0.86,-0.67 1.5,-0.83 1.17,0.86 3.59,0.42 4.95,0 1.36,1.01 3.72,0.23 5.63,0.33 0.21,0.36 0.45,0.68 0.35,1.33 -2.37,1.17 -4.86,-0.04 -7.64,0.16 -0.83,0.06 -1.71,0.59 -2.64,0.67 -1.21,0.1 -2.45,-0.25 -3.65,0 -0.51,0.1 -0.84,0.53 -1.31,0.66 -0.91,0.24 -2.18,-0.1 -3.15,0 -0.57,0.06 -0.75,0.36 -1.17,0.34 -0.65,-0.04 -1.51,-0.64 -2.15,-0.51 -1.45,0.3 -2.11,2.71 -3.82,2.32 -1.51,0.73 0.3,3.81 -1.31,4.32 -0.87,0.09 -1.03,-1.84 -2.51,-1.67 -0.93,0.84 -2.42,1.12 -2.15,3.16 3.32,1.27 -0.49,4.17 -2.65,4.47 -0.46,0.76 -0.33,2.12 -0.34,3.32 -1.01,0.91 -3.09,0.79 -4.29,1.49 0.47,-2.6 3.19,-4.45 2.48,-7.13 -2.17,-0.03 -3.4,0.36 -4.8,1.33 0,0.49 0,0.99 0,1.48 0.41,0.5 1.1,-0.29 1.49,0.18 -0.02,0.18 0.02,0.29 0.17,0.32 -0.05,1.32 -1.73,1.02 -1.66,2.49 0.04,1.05 1.37,1.17 1.32,2.16 -0.08,1.5 -2.47,1.74 -3.14,0 0.72,-0.03 1.89,-1.19 0.97,-2.33 -1.54,0.18 -1.76,1.65 -3.3,1.83 -0.24,0.54 -0.15,1.39 -0.16,2.15 -0.34,0 -0.68,0 -1.01,0 -0.23,-1.46 0.47,-1.97 0.33,-3.31 1.06,-0.32 5.75,-3.67 2.99,-4.64 -1.76,-0.63 -3.96,2.06 -4.81,2.31 -1.52,-1.46 1.59,-2.3 1.49,-3.97 1.63,-0.26 1.99,-1.76 3.16,-2.49 0.59,-0.05 0.6,0.5 1.15,0.5 1.09,0.04 1.66,-0.43 2.17,-1 2.78,-0.09 5.17,-0.56 6.62,-1.99 0.11,-0.69 0.5,-2.27 -0.33,-2.48 -1.05,0.47 -3.24,1.17 -4.64,1.83 -2.89,-0.71 -3.91,2.4 -6.96,1.16 -1.1,0.56 -2.4,0.92 -2.66,2.32 -1.17,-0.04 -1.13,1.06 -1.48,2.32 -0.3,1.04 -0.91,2.02 -0.84,3.14 0.04,0.92 0.93,1.69 0.34,2.49 -1.76,0.29 -3.15,0.93 -3.14,3 -1.98,1.74 -4.62,2.78 -6.47,4.63 -0.86,1.78 0.53,2.59 1.16,3.81 -1.22,0.88 -1.07,3.14 -2.33,3.97 -0.57,-0.08 -0.59,-0.72 -1.16,-0.81 -1.23,0.32 -1.81,1.59 -1.32,3.15 -1.7,0.28 -2.91,1.07 -3.66,2.31 -1.15,-0.21 -1.07,-1.68 -1.65,-2.48 -0.71,-0.29 -1.95,-0.05 -2.49,-0.5 -0.53,0.56 -0.45,1.74 -1.31,1.98 0.13,-1.29 -0.25,-3.12 0.99,-3.31 0.07,-2.41 0.89,-4.07 2.16,-5.31 -0.15,-1.13 0.11,-1.86 0.48,-2.48 0.42,-0.02 0.52,0.26 0.83,0.33 1.59,-1.63 -0.02,-5.45 1.82,-6.79 1.1,0.56 1.71,1.6 2.83,2.15 2.78,-1.66 3.26,-5.93 3.31,-9.45 -2.13,-0.25 -2.12,1.54 -1.83,3.31 -0.54,0.78 -2.13,0.45 -2.82,0.33 -0.46,-1.47 1.35,-2.07 1.16,-3.81 1.21,-0.33 1.66,-1.44 2.01,-2.65 0.64,0.02 1.14,0.17 1.49,0.5 0.9,-0.42 2.29,-2.34 0.83,-3.15 -0.54,0.06 -1.01,0.76 -1.5,0.33 -0.18,-2.14 2.3,-2.98 3.16,-4.63 0.17,-2.49 1.29,-4 1.98,-5.97 0.5,0.12 0.33,0.12 0.83,0 1.09,-2.76 2.52,-5.2 3.97,-7.63 0.36,-0.12 0.87,-0.15 1.17,-0.34 0.43,-0.99 1.29,-1.56 2.14,-2.15 -0.08,-0.87 0.3,-1.25 0.18,-2.15 0.82,-0.15 1.14,0.08 1.66,-0.5 -0.17,-2.88 2.59,-2.82 2.97,-5.14 0.41,-0.03 0.52,0.26 0.82,0.34 0.92,-1.97 2.27,-3.51 4.16,-4.48 0.63,-2.34 3.8,-2.16 4.47,-4.47 1.45,-0.72 2.62,-1.69 3.64,-2.83 0.41,-0.05 0.64,-0.26 1.17,-0.16 0.25,-1.23 1.69,-1.31 1.81,-2.67 2.4,-0.08 3.05,-1.93 4.98,-2.47 0.07,-0.71 -0.18,-1.73 0.33,-1.99 0.76,-0.09 0.58,0.73 1.16,0.83 0.73,-0.63 1.33,-1.12 2.17,-0.83 0.76,-0.39 1.21,-1.11 1.48,-1.98 1.96,-0.27 3.11,-2.16 4.81,-2.16 0.44,-0.18 0.55,-0.67 0.83,-0.99 1.19,0.26 1.62,-0.69 2.31,0 1.11,-1.25 3.56,-1.09 4.99,-2.33 0.57,0.42 1.41,0.42 1.99,0 1.35,1.8 5.7,-0.14 6.8,1.67 1.84,-0.38 1.44,-4.39 -0.33,-4.49 -0.07,-0.88 -0.29,-1.6 -0.34,-2.49 0.83,0.22 0.79,1.33 1.47,1.66 1.07,0.33 1.12,-0.85 2.17,-0.17 0.47,-0.07 0.76,-0.34 0.83,-0.82 0.53,-0.05 0.36,0.64 0.84,0.66 0.78,-0.21 1.35,-1.5 1.81,-1.49 0.58,0.18 0.34,1.21 1.01,1.33 1.52,0.09 2,-0.87 2.64,-1.66 2.26,-0.12 3.73,-0.83 5.14,0.49 0.74,0.09 0.74,-0.58 1.3,-0.66 2.11,0.57 3.94,1.41 5.51,2.49 2.41,-0.62 5.13,0.48 6.78,1.99 1.84,-0.68 2.81,0.75 3.81,1.32 0.42,0.26 1.06,0.11 1.49,0.34 1.16,0.58 1.83,1.77 2.82,2.32 2.3,-0.61 3.81,2.29 6.14,1.16 0.58,0.03 0.62,0.59 1.16,0.67 0.36,-0.27 0.48,-0.73 1.15,-0.67 1.67,1.23 1.87,3.32 4.47,3.31 0.42,0.44 0.61,1.07 1,1.5 1.34,-0.26 1.84,0.92 2.82,0.48 0.59,1.05 0.26,2.96 0.34,4.49 0.63,-0.04 1.25,-1.53 1.82,-2.15 0.71,0 1.44,0 2.16,0 0.34,0.97 0.78,1.85 1.32,2.64 -0.99,1.71 -3.28,2.12 -4.63,3.49 -0.67,0.05 -0.46,-0.76 -1.01,-0.82 -0.33,0.21 -0.78,0.3 -1.15,0.49 -1.17,-1.04 -2.91,-1.26 -4.32,-0.83 -0.01,-1.41 3.93,-2.97 1.33,-4.97 -1,0.99 -2.01,1.96 -3.81,2.15 -0.79,-0.32 -1.03,-0.89 -1.83,-0.99 -0.91,-0.13 -1.7,0.69 -2.65,0.65 -0.95,-0.03 -1.39,-1.11 -2.49,-0.82 0.22,-3.61 -5.19,-2.65 -6.94,-4.81 -1.61,0.61 -3.25,-0.61 -4.33,0.34 -0.43,0.38 -0.62,-0.48 -1.16,-0.5 -1.25,1.32 0.05,3.45 0,5.47 2.05,0.2 2.8,-3.44 4.31,-0.84 -0.15,0.56 -0.27,1.15 -0.49,1.67 0.88,1.13 3.72,1.15 4.96,0.49 0.3,0.6 0.56,1.22 1.02,1.66 2.86,-1.06 5.59,1.21 8.11,1.5 0.13,0.57 0.5,0.87 0.17,1.49 0.73,1.68 3.42,1.33 5.29,0.83 0.38,0.45 0.62,1.05 0.85,1.65 1.77,-0.68 2.57,1.31 3.97,0.34 0.23,1.57 1.82,1.81 2.47,2.98 0.76,0.1 0.72,-0.63 1.51,-0.51 0.78,2.81 3.25,3.94 5.81,4.98 0.28,1.73 -1.29,2.09 -0.68,3.65 0.98,1.06 2.1,0.06 2.81,-0.5 1.05,0.12 1.37,0.96 1.82,1.66 1.85,0.61 3.08,1.8 4.33,2.98 1.71,-0.15 2.53,0.53 3.65,1 0.62,2.21 0.89,3.7 2.64,4.64 0.96,0.53 2.26,0.35 3.15,0.99 1.17,0.84 1.84,2.03 2.81,2.82 0.58,-0.14 0.63,0.24 1.17,0.16 0.63,-0.3 0.38,-1.47 1.15,-1.66 0.74,0.17 1.34,0.32 1.84,0.34 0.21,-0.16 0.32,-0.44 0.49,-0.66 -1.01,-1.17 -1.16,-2.79 -2,-3.98 -0.32,-0.46 -0.86,-0.45 -1.48,-0.99 -1.63,-1.42 -3.51,-3.18 -5.47,-3.98 -0.69,0.76 -1.32,1.57 -2.82,1.49 -1,-1.52 0.66,-2.02 1.33,-2.82 0.09,-0.53 -0.13,-0.78 -0.17,-1.16 -1.87,-1.33 -3.63,-2.79 -4.99,-4.64 -0.51,-0.03 -0.72,-0.37 -1.3,-0.33 -0.4,-0.55 -0.92,-0.97 -1,-1.83 -0.97,-0.2 -1.82,-0.5 -2,-1.49 -2.28,-0.42 -3.32,-0.88 -5.47,-1.98 -1.89,-0.99 -2.05,-1.4 -3.48,0.17 -0.56,0.02 -0.53,-0.57 -0.99,-0.68 0.01,-0.81 0.75,-1.22 0.33,-1.98 -0.62,-0.77 -2.79,0.01 -3.66,-0.49 -0.13,-0.48 -0.05,-1.44 0.34,-1.84 2.22,0.5 2.33,-1.09 4.32,-0.82 0.54,-0.13 0.49,-0.83 0.84,-1.16 -0.21,-0.75 -1.09,-0.82 -1.34,-1.49 1.83,-1.02 4.45,0.29 6.13,1.82 0.51,0.47 0.68,1.35 1.16,1.82 0.8,0.79 1.98,0.87 2.34,1.82 1.72,-0.19 2.69,1.16 3.78,1.83 0.32,0.18 0.68,0.01 0.99,0.16 1.21,0.53 1.84,2.1 2.84,2.82 2.08,0.01 2.41,1.8 3.99,2.32 0,1.72 1.18,2.17 2.65,1.99 0.83,1.04 1.18,2.58 2.31,3.32 0.38,0 0.78,0 1.15,0 2.61,2.43 5.75,4.32 7.14,7.95 -1.75,1.13 -2.31,-1.32 -3.82,-1.48 -0.6,-2.68 -2.5,-4.02 -4.95,-4.81 -1.13,2.52 1.23,4.21 3.13,4.81 0.1,0.88 0.56,1.42 1.49,1.48 0.26,1.23 0.4,2.59 2.18,2.33 0.65,0.98 1.08,2.22 2.46,2.48 1.02,-0.95 -0.44,-2.84 0.83,-3.81 3.54,1.44 3.37,6.58 7.29,7.62 0.65,2.41 2.39,3.69 3.16,5.97 0.53,0.26 0.71,0.06 1.32,0 0.45,1.34 0.96,2.57 2.32,2.98 1.16,0 0.08,-2.24 1.49,-1.98 0.07,-1.72 -0.51,-2.82 -0.83,-4.15 0.03,-0.36 -0.58,-0.07 -0.81,-0.16 -0.45,-1.62 -2.31,-1.8 -3.02,-3.15 0.05,-1.14 1.19,-1.15 1.86,-1.65 0.27,-1.53 -0.65,-1.79 -1.34,-2.33 -0.55,0.06 -1.02,0.17 -1.33,0.5 -0.95,-0.71 -1.38,-1.91 -2.49,-2.49 0,-1.92 1.68,-1.53 1.49,-3.32 -0.17,-1.74 -2.38,-2.55 -3.63,-3.63 -1.45,-2.87 -2.98,-5.66 -5.63,-7.31 -0.1,-0.61 -0.37,-1.08 -0.68,-1.48 -0.83,-0.24 -1.43,-0.37 -2.33,-0.16 -1.88,-3.65 -5.22,-5.84 -7.95,-8.63 -0.21,0.22 -0.71,0.16 -1.16,0.16 -0.82,-1.43 -4.31,-2.94 -5.29,-0.82 -0.97,-0.9 -1.91,-1.33 -1.67,-2.82 0.13,-0.81 1.39,-1.1 0.99,-2.16 -1.42,-0.36 -2.42,-1.76 -4.14,-1.33 -1.01,-1.42 -2.74,-1.22 -4.47,-1.65 -1.75,-0.45 -3.16,-1.97 -4.15,-2.99 -1.08,-0.02 -1.56,-0.63 -2.31,-0.99 -0.79,0.43 -1.82,0.64 -3.16,0.5 0,-1.1 0,-2.21 0,-3.32 -0.18,0.03 -0.29,-0.03 -0.33,-0.16 -0.82,-0.1 -0.92,0.49 -1.48,0.66 -1.13,-1.52 -4.09,-1.76 -6.46,-1.49 -0.8,-0.66 -1.78,-1.1 -2.33,-1.99 -1.77,0.33 -3.34,-0.83 -4.64,-1.49 -2.67,0.48 -3.4,-1.02 -4.81,-1.83 -0.54,0.07 -0.54,0.68 -1.15,0.66 -1.23,0.12 -1.46,-0.75 -2.01,-1.32 -2.44,-0.61 -4.09,-1.11 -6.11,-1.98 0,-0.27 0.08,-0.64 -0.16,-0.67 0.02,-0.48 0.66,-0.3 1.14,-0.32 1.54,1.19 4.03,0.56 4.98,0.32l0.01 0zm-30.5 6.8c0.32,0.07 0.4,0.35 0.81,0.33 0.27,-0.35 -0.04,-1.2 -0.48,-1.33 -0.08,0.34 -0.42,0.47 -0.33,1l0 0zm4.47 1.99c0.53,-0.39 1.18,-0.71 1.32,-1.5 -0.28,-0.42 -1.07,-0.34 -1.66,-0.49 -0.53,0.55 -0.35,1.74 0.34,1.99zm8.45 -0.33c0.7,0.08 1.22,0 1.16,-0.67 -0.21,-0.4 -0.68,-0.53 -1.16,-0.66 0,0.44 0,0.88 0,1.33l0 0zm-24.04 3.64c-1.9,-0.35 -3.11,-1.41 -4.64,-2.17 -0.92,1.09 -2.2,2.64 -3.8,2.5 -0.97,-0.08 -1.43,-1.34 -2.66,-0.99 -1.4,1.96 3.01,4.42 4.46,3.15 0.02,-0.91 -0.23,-2.13 0.68,-2.16 0.94,0.27 1.23,1.21 1.82,1.82 2.42,0.05 4.5,0.7 4.14,-2.15zm19.41 1.49c-1.32,-0.91 -3.53,-0.58 -3.16,0.83 0.28,1.04 1.42,0.37 2.14,0.67 0.98,0.39 0.67,1.39 1.51,1.81 2.49,-1.22 4.68,-0.19 7.14,-0.16 0.47,0.38 0.36,1.38 1.14,1.49 0.71,-1.16 1.52,-2.24 1.49,-4.15 -0.54,-0.42 -1.22,-0.71 -1.99,-0.49 -0.43,-0.03 -0.99,-1.43 -1.14,-0.66 -0.76,0.43 0.3,2.06 -0.69,2.49 -1.54,0.14 -2,-1.01 -3.46,-0.5 -1.44,-0.5 -1.83,-1.97 -1.66,-3.65 -1.79,-0.77 -0.59,1.76 -1.32,2.32l0 0zm-10.28 1.66c1.2,-0.95 3.92,0.87 3.82,-2 -1.39,-0.21 -2.99,-0.07 -4,-1.32 -1.06,0.65 -1.06,2.87 0.18,3.32l0 0zm-5.49 -2c0,0.4 -0.27,0.5 -0.16,1 1.86,1 2.28,-2.31 0.16,-1zm52.55 6.96c0.1,0.75 0.17,1.52 1.02,1.51 0.41,-0.18 0.52,-0.69 0.48,-1.34 -0.4,-0.15 -1.07,-0.54 -1.5,-0.17l0 0zm-31.49 3.33c1.32,0.92 2.44,-0.63 3.32,-1.17 -0.04,-2.36 -3.73,-0.87 -3.32,1.17zm-35.8 0.83c-0.24,0.53 -0.15,1.39 -0.15,2.15 0.41,0.18 0.78,0.4 1.46,0.34 0.58,-0.39 0.87,-2.51 0,-2.83 -0.44,0.08 -0.86,0.25 -1.31,0.34l0 0zm80.75 2.49c0.66,0.45 1.65,0.66 2.46,0.15 -0.09,-1.49 -1.39,-1.82 -2.16,-2.64 -0.45,0.47 -0.29,1.56 -0.3,2.49l0 0zm-87.89 -0.34c1.28,0.11 2.18,-0.16 2.68,-0.83 0,-0.49 -0.44,-0.56 -0.51,-0.99 -2.03,-0.44 -3.28,0.25 -2.17,1.82zm53.22 -0.17c0.82,-0.33 0.52,-1.75 -0.33,-1.82 -0.54,0.51 -0.64,1.67 0.33,1.82zm-48.4 0.34c0.34,-0.27 0.56,-0.69 0.5,-1.34 -0.31,-0.07 -0.29,-0.46 -0.84,-0.32 -0.31,0.47 -0.62,1.65 0.34,1.66zm36.81 0.17c0.37,0.04 0.67,0.31 0.97,0 0.09,-0.72 -0.42,-0.78 -0.83,-0.99 0.12,0.49 -0.26,0.48 -0.14,0.99zm17.56 1c0,-0.84 -1.1,-0.58 -1.66,-0.85 -0.09,0.88 1.13,1.1 1.66,0.85zm-61.67 3.97c-0.17,-0.73 -1.12,-1.08 -2.14,-0.84 -1.51,2.55 2.68,3.25 2.14,0.84zm70.93 -0.68c0.21,1.09 0.67,1.91 1.19,2.67 1.92,0.06 2.87,1.09 3.98,1.99 2.48,-0.33 3.4,1.87 4.79,3.14 1.68,-0.2 2.23,0.75 3.66,0.84 -0.03,-3.08 -2.17,-4.03 -5.31,-3.98 -0.33,-1.46 -2.01,-1.54 -2.33,-2.98 -2.49,0.06 -3.75,-1.97 -5.98,-1.67l0 -0.01zm-77.22 1.99c-2.91,-2.24 -5.11,1.89 -8.13,0.51 -1.01,1.15 -2.88,0.53 -4.48,1.15 -0.32,1.37 0.27,2.54 0.66,3.66 1.06,0.44 1.56,-0.36 2.49,-0.5 0.64,0.16 0.9,0.68 1.5,0.83 1.83,-0.03 2.77,-3.16 4.31,-3.15 1.09,0.01 0.95,1.03 2,1.49 0.83,-0.12 1.43,-0.45 1.97,-0.83 0.23,-1.31 0.08,-2.13 -0.32,-3.16l0 0zm62.14 2.33c0.87,0.09 1.5,-0.07 1.35,-1 -0.3,-0.42 -1.06,-0.37 -1.5,-0.65 -0.06,0.91 -0.11,0.96 0.15,1.65l0 0zm51.91 3.48c0.5,0.31 0.84,0.83 1.65,0.84 0.29,-0.33 0.11,-1.1 0.15,-1.67 -0.9,0.2 -0.94,-0.47 -1.64,-0.5 -0.11,0.41 -0.24,0.76 -0.16,1.33zm-22.56 1.32c0.98,0.27 1.07,1.38 2.33,1.33 1.15,-1.66 -2.43,-4.21 -2.33,-1.33zm3.82 1.66c0.11,1.44 1.02,2.08 2.32,2.33 0.33,-0.27 0.38,-0.84 0.32,-1.49 -0.67,-0.41 -1.82,-1.11 -2.64,-0.84l0 0zm-15.08 2.16c0.69,-0.14 0.82,-0.84 0.82,-1.66 -1.01,-1.28 -1.95,1.29 -0.82,1.66zm16.73 1.5c-1.39,2.41 1.43,4.55 3.66,4.97 -0.66,-2.22 -1.46,-4.3 -3.66,-4.97zm-3.31 6.28c0,-0.65 -0.15,-1.16 -0.83,-1.15 -0.48,0.55 0.45,1.49 0.83,1.15zm-10.12 3.83c0.84,0.09 0.56,-1.35 0,-1.33 -0.1,0.38 -0.33,1 0,1.33zm47.74 0c0.4,-0.53 0.07,-1.44 -0.66,-1.33 -0.13,0.78 0.11,1.22 0.66,1.33zm-23.86 0.83c0.02,-0.31 0.56,-0.11 0.66,-0.34 -0.05,-0.78 -0.11,-1.54 -1.01,-1.49 0.1,0.6 -0.24,1.7 0.35,1.83zm12.77 -0.34c0.33,0 0.2,0.45 0.67,0.34 0.13,-0.19 0.21,-0.45 0.16,-0.83 -0.23,0 -0.36,-0.09 -0.5,-0.17 0.12,0.45 -0.34,0.34 -0.34,0.66l0.01 0zm-8.81 4.64c0.41,-0.04 0.31,-0.57 0.85,-0.49 0,-0.56 0,-1.11 0,-1.66 -1.68,-0.37 -2.56,-1.54 -3.64,-2.49 -1.5,2.29 0.96,4.12 2.79,4.64l0 0zm20.56 -0.82c0.41,0.05 0.64,0.25 1.19,0.16 0.2,-0.66 0.56,-1.19 0.48,-2.16 -1.21,-1.1 -2.01,0.49 -1.67,2l0 0zm-7.45 1.65c0.41,-0.06 0.36,0.3 0.82,0.16 0.47,-0.66 0.58,-2.43 -0.48,-2.48 -0.55,0.28 -0.7,1.67 -0.34,2.32zm3.83 5.96c1,1.23 1.74,2.4 3.29,2.33 -0.21,-3.04 -1.88,-4.63 -3.14,-6.63 -2.17,1.5 -1.74,2.42 -0.15,4.3l0 0zm-10.62 -2.31c1.83,0.6 1.85,3.02 3.63,3.64 0,-0.65 0,-1.32 0,-1.99 -1.86,-0.46 -0.9,-3.7 -3.63,-3.31 -0.3,0.56 0.1,0.85 0,1.66l0 0zm-143.38 2.15c0.31,-0.03 0.36,0.19 0.66,0.16 0.31,-0.59 0.21,-1.43 -0.5,-1.48 -0.1,0.39 -0.23,0.74 -0.16,1.32l0 0zm181.99 2c-1.73,-0.63 -1.96,1.51 -1.83,3.3 0.62,0.33 1.6,0.73 2.18,0.17 0.4,-1.31 0.23,-2.49 -0.35,-3.47l0 0zm-25.35 3.8c0.51,0.7 0.87,1.55 1.66,1.99 0.55,-1.09 0.53,-2.39 -0.16,-3.32 -1.09,-0.47 -1.3,0.48 -1.5,1.33zm6.62 -0.33c-2.15,1.29 -4.23,3.32 -3.63,6.79 0.99,0.79 1.6,1.91 1.98,3.32 0.36,0.31 1.16,0.17 1.31,0.66 -0.15,1.05 -0.64,2.4 0,3.33 0.53,-0.1 0.6,0.29 1.18,0.16 0.63,-0.58 1.07,-1.36 1.98,-1.66 0.77,0.83 1.84,1.37 2.99,1.83 0.41,-1.19 0.63,-3.93 -0.98,-4.32 -0.4,0.46 -1.21,0.49 -1.67,0.83 0,-0.55 -0.54,-0.56 -0.5,-1.16 0.55,-1.15 1.02,-1.51 1.01,-2.32 -0.07,-1.98 -3.16,-2.61 -2.98,-4.14 0.09,-0.99 1.19,-0.58 1.3,-1.82 -0.73,-0.43 -0.96,-1.37 -2,-1.5l0.01 0zm-17.25 10.45c-0.09,-0.35 0.28,-1.16 -0.32,-1 -0.24,0.25 -0.27,1.14 0.32,1zm11.28 2.64c-4.46,-2.98 -2.14,5.51 0.68,4.98 0.4,-1.69 0.78,-3.41 1.46,-4.81 -0.4,-0.4 -1.51,-0.43 -2.14,-0.17l0 0zm16.42 5.64c0.5,-0.32 0.44,-1.2 0.48,-1.99 -1.62,-1.79 -2.33,1.88 -0.48,1.99zm-6.78 -1.49c-0.19,0.2 0.03,0.6 -0.18,1 -0.55,0.95 -1.42,1.5 -1.32,2.32 0.09,0.96 1.17,1.46 1.97,1.98 0.72,-0.35 1.36,-0.75 2.18,-0.99 1.9,1.33 -1.54,3.9 0.64,5.14 0.25,-0.26 0.67,-0.35 1.16,-0.33 0.86,-2.46 -0.26,-5.06 -1.16,-6.8 0.49,-0.95 1.26,-1.62 1.33,-2.98 -1.51,-0.18 -3.49,-0.62 -4.62,0.66l0 0zm-11.13 6.8c0.94,0.05 0.94,-0.84 1.16,-1.49 -1.31,-0.59 -0.11,-2.69 -1.81,-2.82 0.38,1.63 -0.35,3.34 0.65,4.31l0 0zm5.97 3.8c0.76,1.53 2.93,2.58 3.3,3.65 -0.1,0.62 0.31,0.71 0.18,1.34 1.04,-0.2 0.56,-1.9 0.67,-2.98 -0.98,-1.9 -1.42,-4.35 -3.46,-5.15 -0.1,-0.81 -0.14,-1.64 -0.84,-1.83 -1.41,-0.23 -0.39,3.9 0.15,4.97l0 0zm9.78 -0.99c-0.95,1.42 -0.01,3.42 1.16,4.14 2.9,-0.81 0.91,-3.77 -1.16,-4.14zm25.21 6.8c0.73,-1.41 0.03,-3.52 -1.33,-3.8 -0.63,1.24 -0.66,4.12 1.33,3.8zm-23.72 0.66c0.53,-0.08 0.58,0.3 1.15,0.17 -0.01,-0.66 0.45,-1.45 0,-1.98 -0.85,-0.34 -1.48,0.93 -1.15,1.81zm9.63 10.77c0.62,-2.15 1.5,-6.57 -1.51,-6.62 -0.77,-1.07 -2.19,-5.44 -3.98,-5.3 -1.9,0.13 -1.29,3.73 -2.14,5.46 2.13,1.75 -1.18,3.15 -1.15,4.81 0,0.76 0.98,1.42 1.15,2.15 0.36,1.55 -0.23,3.13 0.83,4.15 -0.11,2.07 -0.5,5.16 0.66,6.62 0.65,-0.03 1.61,-1.05 2.16,-0.15 -0.28,1 -1.3,1.25 -1.51,2.3 1.15,0.41 2.71,-0.14 2.67,1.51 -0.04,0.87 -1.39,1.16 -1.99,2.14 -0.8,1.29 -0.47,2.31 -0.68,3.65 1.92,-0.27 1.51,-3.45 3.99,-2.64 0.68,-0.98 0.33,-2.98 0.82,-4.15 0.4,-0.31 0.98,0.19 1.49,-0.16 0.82,-1.36 -0.11,-2.7 -0.66,-3.65 1.47,-2.2 -0.09,-4.28 -0.83,-6.14 1.26,-0.68 1.36,-2.54 0.68,-3.98l0 0zm5.96 -0.15c1.87,0.19 1.36,-2.31 0.5,-2.82 -0.72,0.36 -0.85,1.89 -0.5,2.82zm6.46 3.8c1.31,0.27 1.72,-0.07 2.48,-0.66 0.04,-3.14 -4.15,-2.53 -2.48,0.66zm2.98 3.16c1.37,-0.53 2.98,-1.66 2.51,-3.48 -0.94,-0.22 -1.68,0.44 -2.66,-0.17 -0.18,1.14 -1.11,3.03 0.15,3.65l0 0zm-1.17 2.32c-1.15,-1.3 -2.74,-0.19 -4.62,-0.67 -0.88,2.37 -3.37,6.69 -0.5,8.47 1.3,-0.22 1.3,-1.69 2.83,-1.68 0.83,0.55 1.02,1.73 1.81,2.34 1.28,-1.53 3.66,-3.43 1.97,-5.97 0.95,-0.63 2.37,-2.66 0.68,-3.49 -0.94,0.11 -1.25,0.85 -2.17,1l0 0zm-10.58 13.92c0.15,0 0.33,0 0.48,0 0.04,-0.41 0.04,-0.82 -0.33,-0.83 -0.08,0.35 -0.47,0.53 -0.15,0.83zm3.13 12.26c-1.25,-2.64 -3.34,2.91 -0.82,2.99 0.72,-0.55 0.87,-1.68 0.82,-2.99zm7.31 2.99c0.66,-0.92 0.53,-2.51 -0.18,-3.32 -2.93,-0.27 -2.84,4.79 0.18,3.32zm-5.8 1.98c0.3,0.14 0.59,0.28 0.98,0.34 0.87,-0.46 1.51,-2.62 0.16,-2.98 0.22,1.47 -1.46,1.07 -1.14,2.64l0 0zm-2.51 0.51c-2.49,-0.91 -2.66,3.3 0,3.14 1.34,-0.5 0.91,-2.82 0,-3.14zm0.18 14.09c0.79,-0.09 0.5,-1.28 0.82,-1.84 -0.27,0 -0.54,0 -0.82,0 -0.17,0.44 -0.32,1.42 0,1.84z"></path>   <path class="fil0" d="M174.54 31.6c0.52,0.19 0.91,0.51 1.33,0.82 -0.22,0.57 -1.13,0.73 -1.67,0.5 0.1,-0.46 0.24,-0.86 0.34,-1.32l0 0z"></path>   <path class="fil0" d="M102.77 35.91c0.26,0.96 2.28,3.47 1.84,3.76 -0.81,1.68 -1.87,3.1 -3.65,3.82 -0.4,-0.06 -0.62,-0.28 -1.17,-0.18 -0.62,0.15 -0.69,0.86 -0.97,1.33 0.04,0.84 0.81,0.94 0.65,1.99 -1.04,0.74 -2.3,0.77 -2.65,1.99 -0.17,0.53 0.17,1.21 0,1.81 -0.33,1.12 -1.37,1.84 -1.48,2.82 -1.67,0.39 -5.63,-1.44 -7.01,-2.42 -1.48,1.12 -2.93,2.25 -3.97,3.81 -1.03,0.1 -1.04,-0.82 -1.82,-1 -1.08,1.71 -2.38,3.6 -5.46,2.82 -0.58,1.15 -2.25,1.17 -2.65,2.48 -0.52,0.13 -0.49,-0.28 -1,-0.15 -0.39,2.04 3.88,1.46 2.48,3.97 -0.91,0.04 -2,-0.11 -2.65,0.17 -0.66,-0.71 -0.28,-1.46 -0.34,-2.65 -2.82,-1.23 -2.25,3.08 -4.97,1.98 -1.25,0.66 -0.14,2.33 -0.33,3.15 -1.88,-0.6 -2.71,1.52 -4.31,2.16 -0.13,-0.62 -0.67,-0.88 -0.83,-1.5 0.71,-1.17 1.73,-2.02 2.98,-2.65 0.6,-1.58 1.82,-4.13 -0.16,-5.14 -0.51,0.02 -0.73,0.38 -1.33,0.34 -0.63,-2.06 0.8,-3.38 2.65,-3.48 1.04,1.4 3.5,1.36 5.81,1.49 2.24,-1.67 7.3,-2.1 5.29,-6.47 1.64,-1.36 3.71,-0.2 6.15,-0.17 0.87,-0.51 1.37,-1.38 1.98,-2.15 -0.12,-0.77 -0.81,-0.95 -1.49,-1.15 1.72,-0.93 3.84,-1.47 4.49,-3.49 0.51,0.04 0.91,0.17 1.31,0.34 0.97,-0.71 1.7,-1.63 1.84,-3.16 1.32,-0.5 2.58,-0.09 3.64,-0.5 1,-0.38 1.52,-1.73 2.8,-1.49 1.14,-1.12 1.5,-3.04 4.33,-2.47l0 -0.01z"></path>   <path class="fil0" d="M112.38 39.39c0.56,0.11 0.86,0.48 1.66,0.33 0.17,0.53 0.33,1.1 0.33,1.83 -0.42,-0.07 -0.38,0.29 -0.83,0.17 -0.66,-0.29 -0.96,-0.93 -1.5,-1.34 -0.04,-0.49 0.37,-0.51 0.34,-0.99l0 0z"></path>   <path class="fil0" d="M261.24 46.69c0.6,-0.07 0.84,0.75 0.49,1.15 -0.25,-0.3 -0.61,-0.51 -0.49,-1.15z"></path>   <path class="fil0" d="M89.18 55.81c1.97,1.51 2.52,4.47 1.41,5.23 0.6,2.25 -0.64,2.92 -0.65,4.98 -1.69,1.19 -1.77,3.99 -2.84,5.8 -0.83,-0.39 -5.36,-3.67 -6.71,-3.43 -0.34,0.06 -2.58,1.62 -3.32,2.49 -0.36,0.42 -0.39,1 -0.67,1.33 -0.71,0.86 -1.77,1.23 -1.81,2.15 -0.03,1.1 1.47,1.46 0.65,2.65 -1.36,0.25 -1.17,-1.18 -2.14,-1.16 -1.25,0.04 -0.88,1.29 -1.82,2.16 -0.91,0.18 -0.68,-0.75 -1.51,-0.67 -0.86,0.68 -0.13,2.29 -0.64,3.49 -1.61,0.19 -3.11,1.3 -2.67,3.98 -0.55,0.29 -1,0.66 -1.65,0.82 -0.22,0.71 0.02,0.83 0,1.66 0.28,0.49 1.08,0.48 1.49,0.83 0.44,0.87 -0.04,1.74 0.5,2.32 2.65,-0.02 1.55,-2.75 3.14,-3.81 0.85,-0.06 1.16,0.39 1.66,0.66 0.59,-1.12 0.49,-2.93 1.16,-3.98 0.53,0.12 0.48,-0.28 0.99,-0.16 1.23,-1.93 2.61,-3.69 3.82,-5.63 2.36,0.42 1.95,-3.21 3.82,-3.82 0.94,1.42 1.27,2.54 1.51,4.33 -2.14,2.72 -1.72,8 -3.51,11.11 0.58,1.68 0.23,3.69 -0.81,4.96 -0.63,2.98 -0.12,7.07 -1.31,9.45 -0.66,0.08 -3.58,-0.06 -3.85,-0.35 -1.68,0.49 -1.51,2.8 -3.32,3.16 -0.74,1.41 -0.6,3.71 -1.65,4.8 0.74,2.85 -0.77,4.26 -2.31,5.31 -0.6,-0.01 -0.96,-0.26 -1.49,-0.34 -2.1,0.93 0.11,2.11 0,3.82 -0.41,0.7 -1.21,0.73 -2.17,0.5 -0.62,0.21 -0.78,0.87 -0.99,1.49 0.45,-0.48 1.47,-0.35 2.14,-0.18 0,0.4 0,0.78 0,1.17 -0.82,0.47 -1.5,-0.09 -1.99,-0.49 -2.75,0.21 -1.86,2.54 -2.46,4.46 0.19,1.63 3.71,2.24 4.45,0.83 0.09,-1.3 -0.74,-2.17 0.17,-2.98 1.11,0 1.27,1 2.17,0.83 1.55,-0.3 1.75,-5.47 3.64,-6.3 0.02,-0.8 0.03,-1.59 -0.34,-1.99 1.25,-1.36 2.67,-2.54 3,-4.8 0.93,-0.15 3.24,0.21 3.61,0.61 -0.22,2.97 -1.34,5.04 -1.65,7.96 -0.58,0.24 -2.94,0.72 -3.29,1.2 -0.05,0.69 0.16,1.6 -0.34,1.83 -0.96,0.19 -3.56,4.36 -3.32,5.48 0.42,1.65 1.82,-0.07 3.16,0.83 1.06,-0.45 0.16,-2.54 0.5,-3.32 0.44,-0.23 0.88,-0.45 1.33,-0.67 0.07,-0.96 1.71,-2.41 2.3,-2.87 2.03,0.42 1.04,1.69 0.83,3.32 -0.21,1.4 0.08,3.86 0.25,5.6 0.17,1.96 0.51,4.08 0.67,5.63 0.11,1.33 -0.21,2.69 0.15,3.98 0.73,2.45 0.35,7.58 1.66,9.61 0.79,3.05 -6.71,3.54 -3.88,5.55 0.94,-0.05 1.27,-1.42 2.01,-1.15 1.35,2.1 0.16,4.97 1.13,7.13 0.58,0.13 2.31,-1.34 2.83,-1.25 0.33,0.98 -0.19,2.27 0,3.64 2.25,3.18 2.91,7.1 4.99,10.27 0.15,1.68 -1.81,5.2 -2,7.06 2.74,0.65 -0.25,5.73 2.8,6.46 -0.01,1.15 0.16,2.48 -0.49,2.98 0.25,1.15 1.39,1.4 2.33,1.84 0.18,0.24 0.19,0.69 0.48,0.82 0.1,1.02 -0.25,2.01 0.17,2.82 0.22,0.37 0.78,0.62 1.01,0.99 0.59,1.06 0.75,3.26 1.97,3.98 -0.11,0.68 0.16,0.96 0.16,1.49 2.24,2.54 4.15,5.37 6.31,7.97 0.38,0 0.78,0 1.15,0 0.09,0.91 0.53,1.47 0.68,2.3 -1.72,-0.09 -2.04,-1.58 -3.63,-1.81 -0.56,0.81 -0.08,1.62 -0.19,2.82 -0.51,-0.09 -0.58,0.3 -1.16,0.16 -0.39,-2.2 -1.15,-4.05 -2.65,-5.13 -0.15,-1.73 -0.17,-3.59 -0.34,-5.31 -1.61,-1.13 -2.09,-3.41 -3.48,-4.82 -0.38,-2.79 -2.91,-3.46 -3.97,-5.62 0.15,-1.22 0.57,-2.11 -0.49,-2.66 -0.73,0.37 -0.47,1.77 -0.5,2.82 -1.52,0.28 -1.77,2.44 -1.34,4.15 1.12,0.07 0.95,-1.16 2,-1.16 0.59,0.15 0.79,0.64 0.84,1.33 -1.54,0.41 -3.24,1.44 -3.33,2.98 -0.03,0.52 0.63,1.06 0.67,1.81 0.03,0.66 -0.42,1.24 -0.34,1.66 0.11,0.6 1.12,2.04 1.84,2.49 0.21,0.17 0.75,-0.08 0.99,0 1.14,0.39 1.85,2.35 2.81,2.16 -0.58,0.76 -2.27,0.6 -2.49,2 -0.14,0.98 0.66,1.27 0.83,2.32 0.06,0.34 -0.31,0.75 -0.33,1.15 -0.02,0.77 0.52,1.64 0.33,2.5 -0.07,0.3 -0.48,0.7 -0.48,0.98 0,2.09 2.08,3.46 3.81,2.98 0.53,0.69 1.1,1.33 2.3,1.33 0.15,0.47 -0.17,1.36 0,2.15 0.13,0.54 0.74,0.6 1.33,1.5 0.3,0.44 0.26,1.01 0.52,1.32 0.48,0.63 1.47,1.03 1.99,1.66 0.63,0.81 0.58,1.54 1.65,1.81 0.74,0.19 1.5,-0.38 2.13,0 0.14,0.69 0.35,1.35 0.36,2.16 1.66,0.86 1.84,3.77 3.81,3.82 0.42,1.94 2.85,1.88 4.48,2.64 0.59,-0.1 0.9,-0.54 1.48,-0.65 0.5,0.78 -0.07,1.9 0.34,2.98 0.48,0 0.98,0 1.48,0 0.31,0.64 0.65,1.24 1.17,1.65 1.82,-0.39 2.54,3.67 2.59,5.51 -0.67,0.16 -1.54,-0.73 -2.49,-0.83 -0.95,0.39 -1.27,0.21 -2.33,0 -1.79,0.61 -3.69,0.19 -5.13,-0.34 -1.65,0.27 -4.12,0.76 -5.13,-0.32 -2.2,0.61 -3.32,-1.55 -5.97,-0.83 -0.59,0.09 -0.4,-0.59 -0.99,-0.5 -5.12,0.43 -7.07,-2.79 -11.6,-2.81 -0.75,-0.49 -1.17,3.56 -1.78,2.99 -0.12,0.24 -0.52,0.23 -0.49,0.67 -1.79,-2.58 -5.04,-3.7 -7.95,-5.15 -0.58,-0.13 -0.63,0.26 -1.18,0.17 -0.53,-0.55 -1.42,-1.47 -2.71,-1.26 -0.85,-1.92 -4.04,-1.5 -4.66,-3.65 -0.79,-0.32 -1.74,-0.46 -2.64,-0.67 -0.41,-1.53 0.3,-3.26 -0.99,-3.99 -1.37,-0.02 -1.54,1.12 -3.15,0.85 -2.01,-1.74 0.81,-11.68 -1.09,-13.37 -1.25,0.08 -1.73,-0.58 -3.15,-0.33 -0.64,-0.76 -0.48,-1.79 -0.34,-2.98 -0.5,-0.3 -1.61,-0.07 -1.82,-0.67 -2.02,1.54 0.73,11.06 -0.03,13.21 -2.59,-1.76 -4.08,-4.65 -6.95,-6.14 -0.26,-0.39 -0.34,-0.99 -0.66,-1.33 -0.75,-0.17 -0.55,0.57 -1.15,0.5 -0.39,-1.37 -2.35,-1.91 -2.34,-3.14 -0.39,-0.43 -0.37,0.32 -0.48,0.66 -0.35,-1.23 0.91,1.7 -0.97,1.64 -0.25,-0.81 -0.56,-0.24 -0.92,-0.95 -0.14,-0.25 -0.38,-3.67 -0.58,-3.9 -0.2,-0.3 -0.38,2.23 -0.92,1.49 -1.11,-1.56 -3.85,-0.66 -2.6,-3.16 -0.14,-1.36 -3.42,-4.8 -4.11,-4.84 -2.05,-1.54 -4.47,-6.67 -6.7,-8.04 0.09,-0.71 -0.5,-7.28 -0.36,-8 1.23,-0.45 6.51,-4.19 7.06,-5.35 -0.48,-2.11 0.68,-2.77 1.15,-4.3 -0.14,-1.16 -1.23,-1.79 -0.8,-3 -0.15,-0.36 -0.59,-0.41 -0.85,-0.65 -1.84,0.26 -1.41,2.77 -2.81,3.48 -0.76,-0.9 -1.05,-2.29 -2.16,-2.83 -0.77,0.12 -0.89,0.89 -1.64,1 -1.69,-2.44 0.77,-3.99 0.79,-6.63 1.67,0.03 2,-1.23 3.32,-1.49 0.61,-3.15 -1.95,-2.86 -3.12,-1.49 -1.03,-0.47 -1.26,-1.73 -2.65,-1.83 -0.9,0.57 -0.71,2.16 -1.17,3.15 -1.51,-1.47 -1.34,-5.13 0.34,-6.29 0.59,-4.84 -1.58,-6.44 -1.18,-10.77 0.44,-0.08 0.51,-0.5 1,-0.51 0.43,-0.98 0.21,-2.18 0.66,-3.31 0.26,-0.61 0.87,-0.85 0.99,-1.49 0.31,-1.35 -0.67,-3.29 1.18,-3.64 0.69,1.81 -1.11,4.96 -0.84,6.28 0.12,0.59 0.51,1.04 1.01,1 1.53,-0.12 0.9,-4.22 2.13,-5.13 2.28,0.05 -0.94,4.5 1.65,4.13 1.34,-0.18 2.82,-7.13 -0.98,-5.47 -0.33,-2.27 0.96,-5.6 1.99,-7.61 0.97,0.68 1.65,1.65 2.99,1.98 1.46,-0.4 2.11,-3.05 1.32,-4.63 -1.1,-0.1 -1.47,-0.99 -2.48,-1.16 -0.82,0.71 -2.27,2.23 -3.82,1.16 -0.32,-0.32 -0.05,-0.61 0,-1.01 -2.02,-1.19 -1.23,-4.08 0.5,-4.97 0,-0.66 0,-1.32 0,-1.99 2.72,-0.9 1.97,-4.3 2.34,-7.45 1.67,-1.53 1.56,-4.14 2.64,-6.46 0.93,-2.01 3.38,-3.21 2.64,-6.32 0.49,-0.07 0.71,-0.38 1.15,-0.49 0.38,-1.23 1.41,-1.93 1.85,-3.31 0.3,-0.97 -0.06,-2.07 0.32,-2.99 0.63,-1.48 2.79,-2.07 3.32,-3.48 0.19,-2.94 2.62,-3.67 3.31,-6.13 0.63,0.04 0.81,0.52 1.33,0.66 1.35,-0.52 1.09,-2.66 2.81,-2.82 0.72,-1.35 -0.12,-2.33 -0.81,-3.15 0.73,-1.89 3.08,-2.21 3.8,-4.13 0.2,-1.09 -0.72,-1.06 -0.51,-2.16 0.53,-0.99 1.85,-1.14 1.83,-2.66 1.9,0.51 1.9,-1.78 2.49,-2.81 0.94,0.11 1.12,0.98 1.65,1.48 -0.23,2.86 -2.14,4.07 -2.67,6.64 -0.3,0.28 -0.47,0.73 -0.96,0.83 -0.27,1.53 0.7,3.15 -0.85,3.81 -0.96,0.16 -0.63,-1.01 -1.49,-1 -0.61,1.81 -0.38,4.48 -0.48,6.8 -1.21,1.31 -1.7,4.34 -2.5,6.46 -0.32,0.91 -1.25,1.98 -0.17,3.17 0.67,-0.12 0.96,0.15 1.5,0.15 -0.09,-0.99 -0.24,-2.58 1.5,-2.49 -0.17,-0.83 -0.66,-1.31 -0.5,-2.49 0.89,-0.36 1.72,-0.81 1.98,-1.81 2.45,-0.44 2.36,-3.39 3.97,-4.64 1.1,0.04 1.71,0.51 2.67,0.66 0.37,0.05 0.19,-0.48 0.49,-0.5 0.02,-1.84 -2.51,-1.15 -2.49,-2.98 0.55,-0.43 1.22,0.27 1.82,-0.17 0.96,-0.93 0.75,-3.02 0.84,-4.8 0.53,-0.12 1.03,-0.31 1.49,-0.51 0.91,-0.8 1.25,-2.17 2.49,-2.64 -0.13,-0.51 0.3,-0.5 0.15,-1 1.46,-0.71 2.06,-2.51 3.15,-3.81 0.26,-0.28 0.76,-0.37 1,-0.66 1.28,-1.63 1.92,-4.42 4.01,-4.49 0.75,-0.61 0.22,-1.71 0.96,-2.15 1.19,-0.09 0.71,1.51 1.5,1.83 0.61,0.18 0.53,-0.35 0.83,-0.5 -1.17,-4.97 3.58,-6.63 4.97,-10.11 1.88,-0.22 2.93,-1.27 3.81,-2.48 1.83,-0.4 2.24,0.62 2.99,1.32 0.63,-0.09 0.79,-0.65 0.98,-1.15 -0.31,-0.73 -0.9,-1.2 -0.64,-2.49 1.83,-0.6 2.78,-2.09 4.64,-2.65l0 0.01zm-13.27 12.41c-2.13,-0.56 -2.71,2.79 -1,3.15 0.55,-0.54 0.69,-1.51 1.16,-2.15 0.4,-0.07 0.36,0.31 0.83,0.17 0.7,-0.82 0.4,-1.32 1.16,-1.99 1.47,-1.26 4.98,-1.41 4.48,-3.98 -3.51,-2.14 -4.96,2.94 -6.64,4.8l0.01 0zm-15.56 18.91c0.44,0.21 0.92,0.4 1.65,0.33 0.09,-0.67 0.36,-1.19 0.32,-1.99 -1.19,-0.55 -2.06,0.4 -1.97,1.66zm3.28 1.99c1.06,0.47 0.61,2.38 1.84,2.64 0.59,-1.65 -1.16,-2.21 -1.5,-3.48 0.13,0.52 -0.45,0.32 -0.34,0.84zm-5.46 0.82c-2.55,2.54 2.37,3.79 1.98,6.79 2.84,0.85 5.71,-2.45 3.98,-5.13 -0.43,0 -0.87,0 -1.32,0 -0.37,0.83 -0.26,2.18 -0.99,2.66 -2.39,-0.28 -1.45,-3.85 -3.65,-4.32l0 0zm9.94 7.63c-0.72,1.14 -2.09,1.14 -1.49,2.98 1.6,0.36 1.45,2.43 2.52,3.31 0.12,-0.74 0.39,-1.35 0.47,-2.15 -0.22,-0.61 -1.04,-0.62 -0.98,-1.49 0.52,-0.57 0.92,-1.28 2.14,-1.16 0.39,-0.67 0.55,-1.55 0.65,-2.49 0.46,-0.21 0.89,-0.44 1.34,-0.67 0.55,-1.47 -0.17,-2.69 -1.01,-3.31 -3.31,-0.65 -2.38,3.01 -3.63,4.98l-0.01 0zm-6.11 21.38c0.07,-0.31 0.35,-0.41 0.32,-0.83 -0.23,0 -0.38,-0.09 -0.51,-0.16 -0.29,0.43 -0.41,0.79 0.19,0.99l0 0zm-2.67 17.9c0.04,-0.41 0.57,-0.88 0.67,-1.49 0.09,-0.58 -0.15,-1.35 0,-1.82 0.19,-0.73 0.79,-1.05 0.83,-1.67 0.14,-2.64 -2.64,-2.47 -3.15,-0.49 -0.4,1.58 0.74,2.79 0.33,4.47 -0.33,1.36 -3.19,2.92 -1.49,4.97 1.35,-0.1 1.86,-0.66 2.81,-0.82 0.66,-0.94 -0.13,-1.91 0,-3.15l0 0zm-12.92 0c1.7,0.69 2.53,-1.45 1.99,-2.98 -1.62,0.13 -2.54,1.17 -1.99,2.98zm-3.15 7.12c-1.19,0.45 -1,1.64 -1.66,2.83 -0.72,1.31 -1.89,1.49 -2.01,2.49 -0.08,0.92 0.83,1.88 0.68,2.82 -0.16,1.14 -1.73,2.08 -2.16,3.31 -0.82,2.44 -0.28,4.66 0.18,6.63 -0.46,0.79 -0.82,1.71 -0.66,3.14 -0.19,0.54 -0.92,0.53 -1.01,1.16 -0.16,3.35 -1.75,7.62 1.16,9.3 0.79,-0.73 0.74,-2.32 0.5,-3.65 1.15,-0.76 2.03,-2.28 1.99,-3.81 -0.02,-0.63 -0.47,-1.26 -0.49,-1.84 -0.11,-2.6 1.81,-4.08 2.81,-6.14 -2.78,-2.21 1.22,-3.79 1.49,-6.28 0.15,-1.23 -0.55,-1.37 -0.82,-2.98 0.31,-0.75 1.31,-0.81 1.98,-1.17 0.79,-2.56 -0.04,-5.4 0.65,-7.78 0.41,-1.31 2,-2.14 1.34,-3.49 -2.19,0.3 -4.62,1.79 -3.97,5.46l0 0zm22.38 -3.8c-2.3,-2.9 -3.82,3.97 -0.17,2.81 0.34,-0.88 0.31,-1.77 0.17,-2.81zm-34.16 5.97c0.9,1.53 0.4,3.4 -1.15,3.81 -0.22,2.17 -2.16,2.58 -1.49,5.63 -1.14,0.95 -1.21,3.84 1.15,3.48 0.97,-0.99 0,-1.96 -0.16,-3.15 1.21,-1.99 1.92,-4.5 3.81,-5.81 -1.08,-2.29 1.11,-4.61 0.65,-6.79 -1.5,0.37 -2.05,1.69 -2.81,2.83l0 0zm37.32 -0.5c0.22,-0.5 0.44,-1 0.34,-1.83 -0.27,-0.08 -0.44,-0.24 -0.69,-0.33 -0.05,0.86 -0.77,2 0.35,2.16l0 0zm-15.92 4.14c2.19,0.87 3.84,-1.27 2.97,-3.82 -0.27,0.32 -0.45,-0.85 -0.97,-0.82 -1.64,0.6 -1.38,3.06 -2,4.64l0 0zm-27.86 -1.49c0.65,0.53 1.4,0.38 2.33,0.34 2.19,-2.76 -2.59,-5.04 -2.33,-0.34zm0.83 13.76c0.52,-0.95 1.26,-1.61 1.32,-2.99 -2.84,-1.7 -3.79,2.54 -1.32,2.99zm-5.79 2.32c0.67,0.87 1.72,0.24 2.49,-0.16 -0.09,-0.7 -0.26,-1.31 -0.34,-2 -1.37,-1.15 -2.6,0.1 -2.15,2.16l0 0zm54.37 -2.65c-1.13,0.48 -0.92,1.87 -1.17,3.31 -0.18,1.06 -1.28,2.28 -0.15,2.83 2.13,-0.44 3.14,-4.66 1.32,-6.14l0 0zm-45.77 2.81c0.77,-0.22 1.13,-0.87 1.17,-1.81 -0.29,-0.23 -0.55,-0.45 -1.17,-0.35 -0.18,0.7 -0.18,1.47 0,2.16zm-0.97 4.98c0.51,-0.03 0.72,-0.38 0.64,-1 -0.22,0 -0.36,-0.07 -0.47,-0.16 -0.24,0.2 -0.17,0.72 -0.17,1.16l0 0zm11.42 9.45c0.12,0.68 -0.24,0.85 -0.15,1.48 -1.69,0.37 -1.99,2.13 -1.84,4.31 -0.83,0.53 -1.72,1.03 -1.83,2.33 1.93,1.1 0.12,3.11 0.17,4.64 0.04,0.99 1.13,1.91 1.35,3.15 0.56,3.39 -0.02,6.22 0.15,9.11 1.4,1.58 2.55,3.41 4.47,4.49 0.41,1.06 1.02,1.96 2.32,2.14 1.92,-1.74 1.06,-6.08 0.33,-8.45 1.34,-0.93 1.42,-2.91 0,-3.81 -0.07,-3.36 0.23,-7.3 -0.99,-10.11 -0.6,-0.39 -2.08,0.09 -2.63,-0.33 -0.33,-1.36 0.88,-1.21 0.81,-2.32 -0.24,-0.71 -1.26,-0.62 -1.83,-1 -0.26,-3.04 1.76,-3.78 1.99,-6.31 -0.89,-0.73 -1.42,0.45 -2.32,0.68l0 0zm36.64 2.98c1.03,-0.51 1.3,-1.8 1.5,-3.15 -2.22,-2.08 -2.72,1.7 -1.5,3.15zm3.8 15.57c0.2,-0.57 1.02,-0.87 1.18,-1.48 0.58,-2.5 -2.05,-3.6 -1.83,-6.3 -0.86,-0.25 -0.91,-1.31 -2,-1.33 -1,0.63 -0.56,2.33 -0.17,3.32 1.38,0.28 2.23,1.89 0.99,2.98 -0.73,-0.09 -1.02,0.29 -1.81,0.17 -0.17,-0.77 -0.23,-1.65 -1,-1.83 -0.46,0.59 -0.28,1.81 -0.32,2.82 1.41,1.24 1.83,3.16 2.98,4.98 -0.01,1.11 0.13,2.09 1.33,1.98 0.83,-1.81 0.09,-3.66 0.65,-5.31l0 0zm-33.66 13.93c1.44,0.66 2.15,-2.16 0.36,-2.16 -0.53,0.46 -0.54,1.42 -0.36,2.16zm8.3 1.65c0.1,1.07 1.09,1.81 1.82,3.01 0.71,1.13 0.97,2.04 2.16,2.32 0.25,1.62 0.38,3.38 1.01,4.63 0.32,0 0.64,0 0.97,0 1.02,-1.15 -0.38,-2.22 -0.65,-3.14 0.85,-3.72 -1.71,-6.61 -4.31,-7.97 0,-0.44 0.06,-0.94 -0.18,-1.17 -0.13,0 -0.32,0 -0.48,0 0.29,0.88 -0.39,1.58 -0.34,2.32l0 0zm-5.78 -0.64c-3.34,-0.32 -2.18,3.99 0.15,4.47 1.77,-0.96 0.52,-3.23 -0.15,-4.47zm17.23 10.6c0.9,-1.6 -0.14,-2.63 0,-4.63 -3.55,-1.93 -2.01,4.17 0,4.63zm0 2.16c-1.53,-1.37 -2.82,0.02 -2.65,2.15 -1.17,0.55 -1.4,2.87 0.32,2.99 0.52,-0.12 0.32,-0.9 0.82,-1.01 0.76,0.48 1.11,1.34 2.17,1.49 1.52,-1.56 0.05,-4.27 -0.66,-5.62l0 0z"></path>   <path class="fil0" d="M125.8 64.25c0.15,0.08 0.3,0.14 0.33,0.34 -0.2,0.94 -0.68,1.6 -1.15,2.31 -1.28,-0.85 0.21,-2.14 0.82,-2.65l0 0z"></path>   <path class="fil0" d="M254.28 67.57c0.28,0.54 0.38,0.93 0.16,1.65 -1.12,0 -2.36,0.14 -2.66,-0.66 -0.24,-1.38 1.4,-0.91 2.5,-0.99l0 0z"></path>   <path class="fil0" d="M62 67.74c0.47,0.77 -0.06,1.76 -0.5,2.14 -0.46,0 -0.89,0 -1.35,0 -0.97,-1.26 0.53,-2.15 1.85,-2.14l0 0z"></path>   <path class="fil0" d="M59.5 73.87c-1.49,0.57 -2.02,-1.03 -3.31,-1.17 -0.59,1.41 -1.51,2.47 -2.48,3.49 -0.86,-0.46 -1.51,-1.16 -2.18,-1.83 0.18,-0.85 1.06,-1.59 2.66,-1.82 2.36,-0.35 5.08,-2.51 5.31,1.33l0 0z"></path>   <path class="fil0" d="M148.85 76.02c0.49,-0.04 0.58,0.59 0.32,0.83 -0.56,0.12 -0.57,-0.59 -0.32,-0.83z"></path>   <path class="fil0" d="M55.53 76.69c0.27,0.77 -0.15,0.97 -0.52,1.48 -1.05,-0.26 -0.6,-2.1 0.52,-1.48z"></path>   <path class="fil0" d="M147.69 77.01c-0.52,1.43 -1.42,2.47 -3.49,2.33 -0.21,-0.73 -0.1,-0.93 0.17,-1.5 1.76,0.37 1.76,-1.01 3.32,-0.83z"></path>   <path class="fil0" d="M176.87 80.5c1.85,0.59 4.22,2.07 6.12,1.15 1.7,1.44 4.15,0.24 5.49,2.15 0.65,0.07 0.64,-0.55 1.47,-0.32 0.52,0.91 -0.31,1.31 -0.33,2.15 0.46,1.99 4.15,0.72 4.82,2.49 1.22,-0.13 1.59,0.62 1.8,1.49 -1.1,0.58 -1.85,-0.23 -2.3,-0.83 -2.83,-0.14 -6.11,-1.26 -9.45,-0.99 -0.44,-0.51 -0.6,-1.29 -1.18,-1.66 -1.45,0.19 -2.74,0.66 -3.29,-0.66 0.16,-0.62 0.63,-0.9 0.47,-1.82 -0.18,-0.47 -0.66,-0.56 -1.14,-0.34 -0.42,0.39 -0.3,1.26 -0.67,1.67 -1.52,0.27 -2.68,-0.15 -4.14,-0.34 -0.59,-2.13 1.86,-2.52 2.32,-4.15l0.01 0.01z"></path>   <path class="fil0" d="M194.1 84.98c-0.16,0.37 -0.58,0.52 -1.16,0.49 -0.12,-0.51 -0.12,-0.32 0,-0.83 0.69,-0.16 0.86,-0.18 1.16,0.34z"></path>   <path class="fil0" d="M150.34 89.12c0.71,1.94 -1.39,1.42 -2.32,0.82 0.6,-0.49 1.51,-1.52 2.32,-0.82z"></path>   <path class="fil0" d="M204.7 94.09c-0.2,-0.34 -0.45,-0.65 -0.65,-1 -0.51,-0.11 -0.5,0.28 -0.99,0.17 -0.1,-1.12 -1.42,-1.02 -2,-1.66 0,-0.11 0,-0.22 0,-0.33 0.93,-1.41 2.49,-0.8 3.14,0.33 0.45,0 0.9,0 1.35,0 0.32,1.59 4.39,1.28 4.63,2.99 0.06,0.52 -0.33,1.51 -1.18,1.66 -1.86,0.3 -1.95,-2.5 -4.3,-2.16z"></path>   <path class="fil0" d="M166.1 92.1c-0.83,1.11 -2.72,1.85 -4.65,1.33 -0.66,0.51 -0.83,1.49 -1.5,1.98 -2.66,0.4 -5.08,-0.21 -6.95,0.84 0,-0.23 0,-0.44 0,-0.67 0.87,-0.47 1.61,-1.55 2.81,-2.15 0.73,-0.03 0.82,0.6 1.48,0.66 1.38,-0.4 2.24,-1.32 3,-2.33 1.91,0.26 5.31,-1.58 5.81,0.34l0 0z"></path>   <path class="fil0" d="M171.89 94.09c-2.32,0.32 -3.54,-0.45 -4.81,-1.16 0.77,-1.87 3.89,-1.79 5.82,-1.33 0.57,1.3 -0.67,1.63 -1.01,2.49l0 0z"></path>   <path class="fil0" d="M180.02 94.42c-1.69,0.13 -3.63,0.17 -5.32,-0.5 0.07,-0.52 -0.29,-0.59 -0.16,-1.16 1.73,-0.02 4.95,-1.24 5.48,1.66l0 0z"></path>   <path class="fil0" d="M189.8 94.91c0,0.34 0,0.67 0,0.99 -2.36,1.16 -5.13,-1.02 -7.81,-1.48 0.75,-1.91 3.97,-0.74 4.64,0.32 1.13,-0.02 2.12,-0.35 3.17,0.17l0 0z"></path>   <path class="fil0" d="M151.33 96.73c-0.24,0.09 -0.43,0.25 -0.67,0.34 -0.64,-0.62 -1.14,-1.38 -1.66,-2.16 0.88,-1.87 2.56,0.17 2.33,1.82l0 0z"></path>   <path class="fil0" d="M220.95 98.56c-0.12,3.1 5.25,2.64 3.49,5.8 -2.34,-1.37 -5.96,-1.42 -5.96,-5.13 -0.4,0.26 -0.49,0.86 -0.85,1.16 -2.25,0.42 -2.06,-1.6 -4.32,-1.16 -0.54,-0.95 -1.43,-1.55 -2.31,-2.16 -0.19,-1.28 1.09,-1.13 1.99,-1.33 0.55,0.05 0.36,-0.63 0.82,-0.66 1.29,-0.41 1.94,0.4 2.5,1.17 2.32,0.01 2.57,2.06 4.64,2.31z"></path>   <path class="fil0" d="M164.11 96.41c1.43,0.49 0.57,2.39 -0.52,2.65 -1.17,-0.52 -0.54,-2.48 0.52,-2.65z"></path>   <path class="fil0" d="M148.35 97.73c-0.44,0.29 -1.58,0.54 -2.17,0.17 0.05,-0.27 -0.13,-0.28 -0.15,-0.5 0.15,-1.11 2.59,-1.16 2.31,0.33l0.01 0z"></path>   <path class="fil0" d="M170.56 98.73c1.06,-0.9 3.49,0.25 2.15,1.33 -1.4,0.29 -1.47,-0.74 -2.34,-1 -0.67,0.18 -0.69,1.07 -1.63,1 -0.56,-1.29 1.16,-2.63 1.82,-1.33l0 0z"></path>   <path class="fil0" d="M228.58 104.86c0.28,0.54 0.61,1.04 0.49,1.99 -0.97,-0.13 -1.43,-0.78 -1.66,-1.66 0.36,-0.13 0.57,-0.42 1.17,-0.33z"></path>   <path class="fil0" d="M117.69 110c-0.04,1.2 -0.04,2.36 0.32,3.14 -0.44,0.41 -0.82,0.16 -1.65,0.35 -0.46,-0.89 -0.76,-1.89 -0.67,-3.32 0.71,-0.02 1.17,-0.28 2,-0.17l0 0z"></path>   <path class="fil0" d="M114.71 120.11c0.16,0 0.32,0 0.49,0 0.31,1.06 -0.57,2.97 -1.99,2.33 0.12,-1.15 1.27,-1.29 1.5,-2.33z"></path>   <path class="fil0" d="M230.73 145.81c1.55,0.11 2.53,1.62 1.85,3.48 -0.98,-0.78 -1.93,-2.24 -1.85,-3.48z"></path>   <path class="fil0" d="M246.64 153.43c0.64,-0.11 0.79,1.47 0,1.32 0,-0.43 0,-0.87 0,-1.32z"></path>   <path class="fil0" d="M237.03 153.93c1.32,1.18 0.4,3.65 0.65,5.47 0.08,0.49 0.35,0.87 0.34,1.33 -0.02,0.96 -0.73,1.84 -0.66,2.65 0.13,1.64 2.57,3.05 0.16,4.13 -0.63,-1.12 -1.09,-2.61 -1.49,-3.97 -0.31,-1.05 0.02,-2.59 -0.32,-4.14 -0.32,-1.38 -2.03,-2.63 -1.32,-4.48 1.39,0.95 1.57,-0.68 2.64,-1l0 0.01z"></path>   <path class="fil0" d="M248.65 156.92c0.26,0.26 0.12,0.97 0.15,1.48 -0.42,0.31 -0.97,-0.39 -1.81,-0.17 -0.46,-1.38 0.73,-1.84 1.66,-1.31l0 0z"></path>   <path class="fil0" d="M239 176.8c-0.54,0.32 -1.21,0.54 -2.13,0.5 -0.89,-2.15 2.37,-3.23 2.13,-0.5z"></path>   <path class="fil0" d="M238.19 180.11c0.12,0.4 0.34,1.16 0,1.5 -0.4,-0.06 -0.64,-0.27 -1.16,-0.16 -0.63,-1.05 -0.19,-1.77 1.16,-1.34l0 0z"></path>   <path class="fil0" d="M93.82 180.11c0.76,1.62 1.52,3.24 1.98,5.15 -1.41,-0.95 -2.41,-2.36 -1.98,-5.15z"></path>   <path class="fil0" d="M238.01 184.42c0.92,-0.1 1.29,0.39 2.16,0.33 -0.02,1.76 -1.28,2.11 -0.65,4.16 -0.39,0.1 -0.45,0.53 -0.83,0.65 -0.96,0.08 -0.99,-0.8 -2.16,-0.49 -1.62,-1.17 0.1,-3.73 1.32,-3.48 -0.08,-0.54 0.29,-0.6 0.16,-1.17l0 0z"></path>   <path class="fil0" d="M92 186.08c0.65,0.66 0.69,1.94 0.65,3.31 -0.8,-0.53 -0.53,-2.11 -0.65,-3.31z"></path>   <path class="fil0" d="M235.05 192.88c-0.78,-1.53 1.28,-2.72 1.48,-1.33 0.1,0.62 -0.47,1.33 -1.48,1.33z"></path>   <path class="fil0" d="M92.32 193.54c0.74,0.48 1.14,1.3 1.65,1.99 3.38,-0.11 2.75,3.77 5,4.8 0.9,0.15 1.21,-0.32 1.97,-0.32 1.1,0.97 -1.17,3.1 0.5,3.65 0.65,0.02 0.66,-0.57 1.15,-0.66 0.52,1.51 -0.32,4.4 2.49,3.98 0.25,1.02 0.13,2.4 0.83,2.98 0.41,-0.09 0.69,-0.32 1.01,-0.51 5.34,4.15 8.11,10.89 14.92,13.6 0.36,0.68 0,1.24 -0.5,1.49 -2.5,-2.64 -6.31,-3.88 -8.96,-5.97 0.22,-1.05 -0.71,-1.81 -1.49,-1.33 -1.24,-1.53 -2.18,-3.99 -4.98,-3.49 -0.77,-0.13 -0.6,-1.27 -1.66,-1.14 -0.23,-3.42 -1.66,-5.64 -3.64,-7.3 -1.82,1.7 -0.34,4.86 -0.15,6.63 -0.83,0.03 -1.31,-0.53 -1,-1.17 -1.04,-1.95 -2.17,-3.8 -3.31,-5.62 0.42,-2.61 -0.42,-5.05 -1.85,-6.31 0.52,-1.46 -0.17,-3.35 -1.83,-2.65 -0.62,-0.68 -0.84,-1.93 -0.15,-2.65l0 0z"></path>   <path class="fil0" d="M235.38 194.87c1.37,1.9 0.49,5.37 -1.17,6.62 -1.51,-0.08 -1.52,-1.66 -3.31,-1.48 -0.22,-1.03 0.36,-1.29 0.82,-1.66 0.57,0.05 0.46,0.75 0.86,1 0.73,-0.23 1.21,-0.76 1.63,-1.33 -0.14,-1.24 -1.05,-3.5 1.16,-3.15l0.01 0z"></path>   <path class="fil0" d="M229.91 201c0.45,0.21 0.31,1.03 0.34,1.66 -0.93,-0.1 -1.01,-1.27 -0.34,-1.66z"></path>   <path class="fil0" d="M235.88 206.31c1.11,1.02 0.43,2.74 -0.69,3.32 -0.78,-0.42 -1.33,-0.05 -1.98,-0.51 0.03,-1.79 1.18,-2.47 2.67,-2.81l0 0z"></path>   <path class="fil0" d="M234.71 212.45c0.16,0.41 0.19,1.01 0.16,1.65 -0.48,0.32 -1.11,0.53 -1.49,0.99 -0.85,-0.5 -0.46,-2.07 0,-2.64 0.76,0.07 0.83,-0.23 1.33,0l0 0z"></path>   <path class="fil0" d="M105.08 215.26c0.18,0.61 -0.4,0.47 -0.32,0.99 -0.57,-0.04 -1.35,0.13 -1.65,-0.15 -1.69,0.94 -0.11,2.2 0.49,3.12 -0.19,0.82 -1.25,0.77 -1.67,1.34 -0.35,-0.24 -0.33,-0.89 -0.82,-1 -0.34,0.05 -0.33,0.45 -0.65,0.5 0.28,2.99 3.14,2.53 5.94,2.82 1.02,1.73 3.82,3.34 2.34,6.46 -1.55,-0.61 -1.78,-2.39 -3.31,-2.98 -0.57,-0.21 -1.38,0.09 -2,-0.17 -1.46,-0.57 -2.11,-2.52 -3.49,-2.98 0.23,-2.75 -3.46,-3.21 -2.33,-5.8 2.35,1.18 3.26,-1.04 2.5,-2.64 1.76,0.16 3.9,-0.74 4.97,0.49l0 0z"></path>   <path class="fil0" d="M106.4 218.57c1.98,-0.03 3.19,1.38 2.98,2.99 -1.31,-0.67 -2.93,-1.05 -2.98,-2.99z"></path>   <path class="fil0" d="M111.72 222.88c0.57,0.09 0.74,0.58 0.66,1.33 -1,0.14 -0.76,-0.73 -0.66,-1.33z"></path>   <path class="fil0" d="M114.19 224.21c0.29,0.56 0.29,1.49 -0.33,1.65 -0.21,-0.33 -0.67,-0.41 -0.82,-0.83 0.08,-0.58 0.54,-0.8 1.15,-0.82l0 0z"></path>   <path class="fil0" d="M123.65 225.04c0.17,0 0.33,0 0.5,0 0.12,0.37 0.54,0.95 0.15,1.32 -0.68,0.06 -1,-0.86 -0.65,-1.32l0 0z"></path>   <path class="fil0" d="M120.34 226.86c-1.01,0.7 -2.02,1.42 -3.48,1.65 -0.15,-0.13 -0.11,-0.45 -0.34,-0.51 0.34,-1.81 2.83,-3.14 3.82,-1.14l0 0z"></path>   <path class="fil0" d="M128.96 228c-0.13,0.44 -0.39,0.72 -0.84,0.85 -0.68,-0.58 -1.41,-1.14 -2.15,-1.66 0,-0.16 0,-0.33 0,-0.49 1.45,-0.62 2.06,0.91 2.99,1.3z"></path>   <path class="fil0" d="M213.99 227.36c0.47,0.3 -0.09,1 -0.18,1.32 -0.83,-0.26 -0.24,-1 0.18,-1.32z"></path>   <path class="fil0" d="M121.34 227.68c1.13,0.18 1.22,1.41 2.64,1.34 -0.07,1.47 -0.83,2.24 -1.33,3.31 -0.89,-0.26 -1.13,-1.18 -1.82,-1.66 0.13,-1.03 0.34,-2 0.51,-2.99l0 0z"></path>   <path class="fil0" d="M116.01 232.82c-0.11,0.51 0.29,0.5 0.19,1.02 -1.44,-0.58 -1.85,0.77 -2.99,0.98 -0.3,-1.08 -0.52,-2.25 -1.17,-2.98 -0.58,-0.07 -0.88,-0.45 -1.66,-0.35 0.23,-4.3 3.04,0.56 4.15,1.33 0.5,0 1.01,0 1.49,0l-0.01 0z"></path>   <path class="fil0" d="M131.94 229.52c1.47,-0.09 2.12,0.62 2.65,1.48 -0.63,1.27 -1.66,-0.38 -2.65,-0.33 0,-0.38 0,-0.77 0,-1.15l0 0z"></path>   <path class="fil0" d="M125.97 230.83c1.4,0.94 2.15,2.57 3.97,2.82 0.53,0.08 1.09,-0.32 1.68,-0.16 0.69,0.2 1.16,1.31 2.14,1.82 1.03,0.54 1.94,0.32 2.49,1.33 0.63,-0.13 0.79,0.2 1.32,0.18 2.09,2.15 6.29,2.21 9.12,3.62 1.66,-0.11 3.42,0.99 4.49,0 0.56,0.61 1.86,0.46 1.97,1.49 -0.63,0.62 -1.45,0.19 -1.97,-0.15 -3.56,-0.02 -8.18,-0.17 -10.64,-1.83 -1.62,1.02 -2.36,-0.78 -3.29,-1.16 -1.17,-0.46 -2.16,-0.09 -3.49,0 -0.79,-0.62 -1.76,-1.28 -2.82,-1.15 -1.46,-2.01 -4.39,-2.57 -6.45,-3.99 0.23,-1.19 1.41,-1.44 1.48,-2.82l0 0z"></path>   <path class="fil0" d="M223.44 233.49c-0.44,0 -0.88,0 -1.34,0 -0.79,-1.01 0.05,-2.39 1.15,-2.49 0.49,0.65 0.69,1.69 0.19,2.49l0 0z"></path>   <path class="fil0" d="M210.5 232.16c0.45,0.57 -0.41,1.24 -0.65,1.67 -0.54,-0.66 0.31,-1.37 0.65,-1.67z"></path>   <path class="fil0" d="M140.22 232.5c0,0.32 0,0.66 0,0.99 -0.48,0.46 -1.68,0.44 -1.99,-0.16 -0.07,-1.03 1.41,-0.96 1.99,-0.83z"></path>   <path class="fil0" d="M118.68 235.14c0.52,0.23 0.55,0.05 1.14,0 0.44,2.2 3.48,1.75 3.01,4.81 -0.46,0.26 -0.99,0.45 -1.65,0.49 -0.14,-0.35 -0.37,-0.64 -0.35,-1.14 -2.25,-1.16 -3.55,-3.17 -3.97,-5.46 1.01,-0.6 1.44,0.71 1.82,1.3l0 0z"></path>   <path class="fil0" d="M130.11 242.44c-1.25,0.19 -1.79,1.08 -2.15,2.15 -1.44,-1.21 -3.43,-1.85 -4.8,-3.14 0.41,-0.74 1.29,-1.04 1.48,-2 2.13,0.69 4.92,0.74 5.47,2.99l0 0z"></path>   <path class="fil0" d="M133.27 242.62c0.74,0.51 1.16,2.03 2.49,1.47 0.1,0.5 0.62,0.6 0.49,1.33 -1.56,0.87 -4.52,0.1 -3.98,-2.65 0.51,0.12 0.49,-0.29 1,-0.15l0 0z"></path>   <path class="fil0" d="M196.42 256.37c0.21,0.84 -0.67,1.19 -1.17,0.82 0,-0.75 0.67,-1.03 1.17,-0.82z"></path>   <path class="fil0" d="M193.94 257.35c0.41,-0.02 0.5,0.28 0.8,0.35 -0.23,0.39 -0.09,1.22 -0.8,1.15 -0.41,-0.45 -0.3,-0.97 0,-1.5z"></path>   <path class="fil0" d="M65.28 275.29c0.9,1.06 2.04,2.9 2.83,3.95 1.98,-0.26 2.75,1.82 3.49,3.32 1.6,0.43 2.05,-1.16 2.48,-1.32 0.76,0.3 0.2,1.91 0.83,2.31 3.17,-0.06 3.2,2.99 5.31,3.98 0,0.32 0,0.66 0,0.99 -1.13,-0.51 -2.42,-0.88 -2.97,-2 -3.21,2.89 -5.31,-1.72 -6.95,-3.47 -1.24,0.13 -1.97,-0.27 -3.16,-0.17 -0.37,-1.32 0.31,-2.72 -0.34,-3.8 -0.63,0.1 -0.68,0.13 -1.16,-0.17 -0.09,-0.87 -0.23,-2.73 -0.36,-3.62l0 0z"></path>   <path class="fil0" d="M259.73 278.07c0.4,-0.05 0.37,0.31 0.84,0.17 0.71,1.22 0.07,3.07 -1.17,3.32 0.11,-1.17 0.11,-2.43 0.33,-3.49z"></path>   <path class="fil0" d="M104.92 284.55c0.79,0.17 0.56,-0.67 1.33,-0.5 1.15,0.17 0.92,1.73 1.82,2.15 0.88,0 1.05,-0.71 1.98,-0.67 0.48,2.84 -3.27,1.49 -4.3,2.82 -0.47,1.87 1.05,1.71 0.98,3.16 -3.94,0.47 -4.98,-3.26 -8.44,-3.82 -0.25,-0.69 -0.83,-1.05 -1.32,-1.49 -0.47,-0.14 -0.44,0.23 -0.81,0.16 -0.42,-0.5 -0.66,-1.13 -1.19,-1.49 -2.75,0.55 -3.19,-2.21 -5.95,-2.16 -1.18,-2.86 1.67,-1.27 1.63,-2.48 1.19,0.44 2.15,2.57 3.17,3.15 0.64,-0.3 1.56,-0.18 1.82,0.34 3.07,-0.58 7.44,-0.82 9.28,0.83l0 0zm-5.14 0.66c-0.37,2.01 1.44,3.05 2.81,3.81 2.25,-1.63 -0.17,-5.98 -2.81,-3.81z"></path>   <path class="fil0" d="M82.88 289.68c1.83,0.45 2.92,1.61 4.78,2 0.61,-0.3 0.61,-1.18 1.19,-1.49 1.98,0.84 0.34,2.94 0.81,4.79 1.34,-0.12 1.96,0.74 2.99,1.34 0.48,-0.15 0.69,-0.56 1.32,-0.5 0.17,0.33 0.33,0.66 0.51,0.99 3.96,0.55 7.43,1.62 9.95,3.65 0.8,-0.7 2.74,-0.56 3.97,-0.34 0.58,0.76 0.13,2.53 0.5,3.48 0.78,-0.49 1.14,-1.39 1.99,-1.82 0.47,0.38 0.62,1.04 1.15,1.33 3.39,0.02 5.79,-0.58 6.97,1.82 2.01,-0.29 3.34,1.37 5.29,1.65 0.87,0.08 1.04,-0.51 1.67,-0.65 0.86,0.14 0.93,1.05 1.33,1.65 2.66,-0.36 4.62,0 6.12,1.49 0.6,-0.04 0.8,-0.25 1.33,0 0.41,2.78 -1.19,3.56 -1.64,5.48 -3.19,0.11 -6.05,-0.4 -8.31,-2.15 -1.51,0.33 -2.45,-0.32 -3.81,0.32 -0.82,-0.16 -0.87,-1.11 -1.31,-1.65 -1.77,-0.31 -2.87,-0.28 -4.14,-1 -0.62,0.06 -0.7,0.65 -1.5,0.49 -0.76,-1.45 1.3,-1.43 1.65,-2.31 -0.73,-2.05 -3.68,-1.02 -4.46,-3.15 -1.53,-0.02 -2.41,0.58 -3.01,1.48 -0.74,-0.26 -1.04,0.06 -1.97,0 -0.21,-2.71 -1.79,-4.06 -4.14,-4.63 -0.46,0.65 -0.6,1.62 -1.34,1.99 -1.16,-0.51 -1.41,-0.35 -2.48,0.15 -0.22,-1.14 -0.99,-1.76 -2.14,-1.97 -1.02,0.37 -0.74,1.45 -1.85,1.31 -1.31,-0.14 -0.84,-2.78 -2.15,-3.31 -1.5,0.64 -2.05,-0.44 -3.48,-0.32 -0.5,-1.19 0.26,-2.22 0.67,-2.99 -0.37,-2.5 -3.07,-2.66 -4.46,-4.14 -0.8,-0.26 -0.57,0.13 -1.36,0.16 -0.09,-1.17 -0.8,-1.73 -0.64,-3.15l0 0z"></path>   <path class="fil0" d="M250.28 161.39c0.21,1.45 -0.8,2.06 -0.33,3.14 0.62,1.42 2.9,0.15 4.49,0.66 0.58,-0.23 0.2,-1.44 0.51,-1.98 0.24,0.63 1.04,0.7 1.48,1.16 0,0.38 0,0.76 0,1.15 -0.62,0.18 -0.53,-0.34 -0.84,-0.49 -0.37,0.19 -0.45,0.67 -0.84,0.83 0.33,0.72 0.7,1.41 1.5,1.65 -0.13,2.31 2.11,3.4 2.8,5.14 0.17,0.35 0,0.84 0.19,1.16 0.54,1 0.92,0.85 1.33,2.17 0.14,0.46 0.86,0.86 0.99,1.16 0.3,0.75 0.1,1.82 0.32,2.66 0.73,0.55 0.8,1.74 2,1.81 0.58,0.81 0.56,2.2 1.66,2.49 0.48,3.55 2.3,5.75 2.99,9.12 1.62,0.83 0.46,3.47 2.14,4.29 -0.79,2.38 1.52,4.34 1.66,6.47 0.09,1.33 -0.42,2.57 1,3.15 -0.09,2.19 -0.31,5.5 1.66,6.13 -1.17,3.17 0.91,6.99 -0.34,9.95 0.13,1.26 0.58,2.19 1.49,2.65 0.18,1.01 -0.39,1.28 -0.48,2 -0.65,-0.04 -0.87,0.35 -1.32,0.49 -1.35,2.92 -2.49,6.03 -2.84,9.95 0.58,1 2.17,0.22 2.66,-0.34 -0.17,-2.4 0.42,-4.1 1,-5.8 0.43,0 0.88,0 1.31,0 0.23,1.13 -0.31,2.73 -1.16,3.33 -0.4,4.07 -0.29,8.65 -2.14,11.26 0.46,2.23 0.46,3.58 -0.17,5.64 -1.76,0.17 -2.56,1.31 -2.83,2.98 -2.1,0.82 -2.95,2.9 -3.82,4.97 1.03,2.52 3.83,-2.22 3.98,-3.81 0.7,-0.05 0.74,-0.74 1.51,-0.67 0.4,0.88 0.03,1.91 -0.64,2.16 -1.03,3.21 -2.11,6.33 -3.36,9.29 -0.55,0 -0.57,-0.55 -1.13,-0.49 -2.59,0.96 -1.16,2.43 -0.51,4.3 -1.74,0.07 -2.79,-0.54 -4.47,-0.5 -1.68,1.87 -3.01,4.08 -5.97,4.63 -0.09,0.6 -0.38,0.97 -0.34,1.67 1.42,0.75 0.21,4.11 1.66,4.8 0.93,-0.07 1.29,-0.18 2.16,0 0.09,1.79 -2.56,1.69 -3.82,1.16 0.15,-3.02 -3.42,-2.33 -4.47,-4.14 -1.9,0.67 -2.57,3.3 -0.81,4.64 1.31,0 2.64,0 3.96,0 -0.08,0.53 0.31,0.59 0.18,1.17 -2.4,-0.17 -3.53,2.95 -0.68,3.14 -0.95,2.18 -3.19,3.42 -5.12,4.81 -1.52,1.06 -2.03,2.54 -3.66,3.15 -0.38,0.15 -0.91,-0.02 -1.33,0.17 -0.54,0.24 -0.91,0.89 -1.49,1.16 -1.46,0.72 -3.19,0.62 -4.15,2.16 -0.36,-0.19 -0.53,-0.58 -0.98,-0.67 -0.67,0.38 -1.31,1.3 -2.34,0.83 -0.73,1.14 -1.7,2.04 -2.15,3.48 -1.4,-0.13 -2.4,1.18 -3.5,1.5 -2.02,0.59 -4.81,-0.47 -5.63,1.32 -0.47,0.12 -0.45,-0.28 -0.98,-0.17 -0.84,0.09 -0.8,1.07 -1.49,1.32 -0.91,0.05 -1.8,0.03 -2.3,-0.33 -0.54,1.35 -2.58,2.51 -4.15,1.32 -1.02,0.59 -1.1,1.33 -2.34,1.51 -0.56,0.08 -1.33,-0.32 -1.81,-0.18 -1.58,0.49 -1.32,2.55 -2.67,3.33 -1.1,0.23 -1.34,-0.41 -1.64,-1 -2.41,0.17 -2.77,-3.09 -4.48,-4.14 0.14,-1.23 1.17,-1.19 2.16,-0.84 0.78,-0.65 1.26,-1.88 0.5,-2.82 -0.96,1.09 -0.98,-0.31 -1.66,-0.32 -3.42,-0.01 -1.12,4.62 -1,7.12 -0.8,0.69 -1.08,1.91 -1.49,2.98 -2.76,0.3 -6.7,-0.48 -8.96,1.17 -1.61,-0.66 -2.33,0.99 -3.63,1.32 -0.96,0.23 -1.9,-0.38 -2.99,-0.49 -2.59,-0.26 -5.19,-0.38 -6.63,1.65 -2.55,-1.08 -5.53,0.08 -8.63,-0.82 -0.64,0.07 -0.62,0.81 -1.16,0.98 -2.2,-0.32 -2.98,0.5 -4.13,-1.14 -0.65,0.21 -1.21,0.57 -1.67,0.98 -1.18,-0.78 -2.98,-0.2 -4.13,-1.16 -0.68,0 -0.72,0.61 -1.16,0.82 -1.69,-0.63 -3.49,-0.5 -4.82,0.34 -0.81,-0.34 -1.34,-0.98 -2.14,-1.33 -2.15,1.02 -5.6,-1.1 -7.79,0.51 -0.32,-0.25 -0.95,-0.19 -1.19,-0.51 -0.55,0.21 -0.5,1.04 -1.29,0.99 0.03,-2.04 -2.08,-1.96 -3.67,-1.97 0.18,-1.36 1.17,-1.04 1.17,-2.16 -0.01,-0.99 -1.81,-1.49 -1.32,-3.14 0.12,-0.16 0.44,-0.11 0.49,-0.35 1.48,-0.04 1.57,1.31 2.65,1.65 0.52,-0.19 0.72,-0.71 1.32,-0.82 0.86,0.7 1.18,1.94 2.16,2.5 0.87,-0.19 1.45,-0.66 1.99,-1.17 0.85,0.49 1.54,1.11 2.32,1.66 1.29,-0.22 3.45,-0.74 4.32,0.17 0.74,-0.09 0.94,-0.73 1.66,-0.83 1.43,0.23 3.45,0.65 4.81,0 1.49,1.59 4.54,0.72 6.94,0.83 0.43,0.66 0.79,1.43 1.5,1.81 4.03,-0.12 8.17,-3.68 11.26,-0.82 0.89,-0.8 2.02,-2.48 1.35,-3.82 -1.47,0.26 -3.17,1.26 -4.33,0.01 -1.12,1.26 -5.3,1.21 -5.8,-0.83 -1.99,0.07 -3.18,-0.59 -4.81,0 -3.14,-1.6 -8.33,0.76 -10.44,-1.99 -1.07,1.4 -2.6,0.57 -4.15,0.66 -0.67,-0.24 -0.79,-0.96 -1.48,-1.17 -1.18,-0.33 -2.52,0.71 -3.81,0.35 -1.16,-0.35 -1.18,-1.32 -2.49,-1.67 -1.41,0.36 -2.85,0.45 -3.65,-0.49 -0.61,-0.12 -0.63,0.35 -1.16,0.33 -1.44,-1.43 -3.87,-1.9 -4.79,-3.82 -1.3,0.74 -2.72,-0.59 -4.16,0.16 -0.47,-1.97 -3.68,-3.68 -4.14,-0.65 -1.3,-0.48 -1.24,-2.03 -2.33,-2.81 -1.26,-0.93 -3.49,-0.57 -4.13,-2.33 -2.05,0.83 -2.72,-0.86 -3.33,-1.98 0.12,-1.33 0.56,-3.25 -0.82,-3.49 -0.85,0.3 -0.68,1.42 -0.49,2.32 -0.6,0.61 -1.04,1.4 -2.17,1.5 -0.74,-0.77 -1.19,-1.92 -0.98,-2.83 0.29,-1.36 2.63,-1.57 2.65,-2.98 2.49,-0.25 4.26,0.25 5.97,0.82 0.3,1.64 -1,1.87 -2,1.33 -0.64,0.19 -0.58,1.41 -0.32,2 1.69,-0.36 2,0.65 2.81,1.15 0.7,-0.4 1.1,-1.1 1.32,-1.98 1.42,0.6 3.36,-0.79 4.65,0.48 0.74,-0.27 1.02,-1.07 1.31,-1.81 2.97,0.66 3.48,4.54 6.64,5.31 0.45,0.1 1.06,-0.08 1.51,0 0.84,0.12 1.49,0.82 2.3,0.99 1.58,0.35 2.82,-0.28 4.63,-0.34 0.91,-0.26 0.72,-1.62 1.65,-1.81 0.8,0.19 0.48,1.54 0.85,2.15 1.16,1.06 5.05,1.68 4.14,-1.67 0.14,-0.14 0.46,-0.09 0.51,-0.33 1.11,-0.26 0.91,0.74 1.65,0.84 0.57,-0.05 0.89,-0.35 1.32,-0.51 1.1,1.29 2.78,0.95 4.49,1.5 0.87,-0.19 0.82,-1.27 1.32,-1.83 -0.5,-1.87 -1.78,-2.97 -3.15,-3.97 -1.28,0.1 -1.41,1.35 -2.83,1.32 -0.11,-0.53 -0.35,-0.96 -0.65,-1.32 -0.78,-0.06 -0.91,0.52 -1.5,0.67 -1.97,-0.03 -3.78,-1.07 -5.62,-0.67 -0.86,-0.22 -0.86,-1.25 -2.18,-1 -0.6,0.23 -0.8,0.84 -1.48,1 -0.35,-0.21 -0.66,-0.46 -1,-0.65 0.68,-2.16 -2.11,-1.72 -2.3,-3.49 -1.13,-0.08 -1.58,0.54 -2.49,0.66 -1.13,-0.62 -2.76,-1.81 -4,-0.5 -1.44,-0.56 -2.99,-0.21 -4.63,-0.35 -0.67,-0.53 -0.05,-2.36 -0.5,-3.13 -4.11,-1.36 -7.3,0.38 -11.93,-0.5 0.54,-0.49 2.49,-2.15 2.84,-2.83 2.03,1.07 1.42,0.59 3.51,0 0.55,-0.06 1.35,-1.09 1.66,-0.88 0.95,-0.94 1.4,-0.32 2.91,-0.39 0.68,-0.2 1.31,1.95 1.51,1.29 0.32,0.32 0.79,0.08 1.16,0 0.16,0.82 0.36,-2.55 0.72,-1.77 0.87,-0.32 1.52,0.91 1.75,-0.3 0.43,0.3 1.15,-0.5 1.74,-0.39 1.86,-0.37 2.09,-1.39 3.8,-0.87 1.77,-0.44 1.18,0.48 2.83,-0.09 0.52,-0.14 1.83,-1.54 2.33,-1.65 0.95,-0.26 1.39,-0.09 1.47,-0.8 0.52,0.09 1.72,0.34 2.52,0.2 0.83,-0.14 0.28,-0.67 0.78,-1.26 1.61,0.73 3.08,1.17 3.98,0.21 0.49,0 0.63,-0.37 1.08,-0.3 1.31,-0.46 0.97,-1.34 2.63,-0.98 0.56,-0.36 1.28,-0.77 1.65,-1.36 2.95,-0.07 5.78,-2.77 8.25,-3.22 0.54,-1.33 2.67,0.19 3.31,-1.05 0.53,-0.12 0.97,-2.78 1.37,-2.73 0.98,-1.49 2.08,2.67 2.41,0.29 1.32,1.08 2.69,-3.58 4.49,-2.52 0.78,-0.48 1.93,-0.91 2.71,-0.87 0.76,0.24 0.43,2.83 0.72,3.72 1.35,1.46 4.56,0.15 3.68,-2.67 1.37,-0.03 1.57,-1.28 3.29,-1 0.14,0.86 -0.15,2.4 0.68,3 1,-0.69 2.98,-0.46 3.81,-1.33 2.88,0.58 5.02,-0.79 6.47,-2.16 0.56,0.3 1.02,-0.18 1.66,0.16 2.89,-1.17 6.28,-1.07 8.27,-3.31 0.34,0 0.66,0 1.01,0 0.84,-1.31 3.5,-0.79 4.47,-1.99 1.93,0.58 2.98,-0.21 3.46,-1.49 1.1,0.05 1.03,1.22 2.34,1 0.07,-1.75 -0.21,-3.96 2.15,-3.82 0.82,-0.62 0.91,-1.96 1.82,-2.48 0.76,-0.01 0.69,0.55 1.17,0 0.3,-2.12 2.35,-2.51 2.31,-4.98 1.91,-0.13 3.13,-0.96 3.99,-2.15 -0.26,-2.78 -2.89,-1.14 -4.47,-1.99 -0.77,0.17 -0.93,0.95 -1.67,1.16 -0.61,-0.15 -1.17,-0.37 -1.84,-0.48 -1.18,0.81 -2.22,2.55 -1.8,4.46 0.33,0.55 1.23,0.55 1.34,1.34 -0.3,1.75 -2.08,2.02 -3,3.13 -1.46,-0.67 -2.04,1.14 -2.99,1.49 -0.53,0.21 -1.15,-0.03 -1.66,0.18 -1.07,0.43 -1.66,1.55 -2.66,1.98 -1.65,0.01 -2.9,0.41 -3.63,1.32 -1.44,-0.25 -1.69,0.63 -2.48,1.01 -1.52,-0.64 0.2,-2.15 0.5,-2.98 2.18,-1.01 8.08,-0.39 7.29,-3.65 -0.66,-2.57 -5.65,-1.08 -6.65,0.99 -1.37,0.29 -2.47,-0.09 -3.8,0.16 -0.55,0.34 -0.75,1.02 -1.16,1.49 -2.06,-0.1 -4.3,-1.92 -4.64,1.01 -0.66,0.11 -2.6,0.07 -3.2,-0.3 0.49,-1.65 3.34,-1.4 4.04,-2.86 1.53,0.07 1.79,-1.75 3.14,-1.33 -0.1,-0.52 0.18,-1.82 0.23,-2.21 1.21,-0.94 2.53,-0.67 3.74,-1.6 0.22,-2.17 2.22,-2.56 2.84,-4.31 1.37,3.45 -2.54,4.12 -1.68,7.47 0.2,-0.04 0.3,0.02 0.35,0.16 0.86,0.29 0.99,-0.55 1.64,-0.67 0.61,-0.09 1.24,0.29 1.82,0.16 2.88,-0.57 2.08,-4.01 3.98,-5.79 -0.11,-0.72 0.27,-0.93 0.16,-1.66 0.45,0 0.9,0 1.33,0 0.99,-1.17 1.78,-2.53 2.51,-3.97 1.56,-0.35 3.85,-4.84 3.46,-6.47 -0.31,-1.36 -1.86,-1.1 -2.32,-2.49 0.82,-1 1.52,-2.14 2.84,-2.65 0.86,0.5 1.71,0.54 2.97,0.33 1.13,-2.04 -0.53,-3.65 -1.66,-4.49 1.36,-1.49 1.51,-4.23 3.14,-5.46 -0.11,-0.87 0.14,-1.41 0.32,-1.99 2.35,-0.31 1.89,-3.42 4.34,-3.64 0.48,-3.1 2.48,-4.69 5.14,-5.64 0.8,2.84 -1.85,3.54 -1.68,6.29 -0.62,0.37 -1.34,0.64 -1.82,1.17 0,1.11 0,2.22 0,3.31 -0.46,0.79 -1.53,1.01 -1.98,1.83 0.02,1.68 -0.36,2.94 -0.84,4.14 -2.94,-0.58 -3.72,2.4 -3.3,5.14 0.75,0.45 1.81,0.55 2.81,0.34 0.52,-1.75 1.82,-2.71 2.66,-4.16 0.89,0.28 0.42,1.89 1.32,2.16 1,0.07 1.45,-1.12 2.15,-0.82 0.44,0.57 -0.17,1.18 0,1.99 0.85,0.35 3.27,-1.01 3.66,-1.83 0.6,-1.26 -0.12,-3.15 0.17,-4.64 0.24,-1.35 2.18,-2.27 1.97,-4.15 -0.1,-0.99 -1.17,-1.26 -0.66,-2.32 0.32,-0.32 0.79,-0.07 1.17,0 2.22,-1.65 0,-5.04 0.49,-7.78 0.75,-0.18 1.62,-0.26 2.49,-0.33 0.67,-1.34 -0.39,-2.08 -1,-2.65 1.81,-1.62 3.55,-3.3 4.63,-5.64 2.38,-0.02 2.64,-2.8 0.86,-3.64 -0.12,-1.38 1.03,-2.97 0.97,-4.32 0.66,0.13 0.35,1.21 1,1.32 1.54,0.26 1.59,-0.94 2.81,-0.98 -0.09,2.34 -1.34,3.96 0.5,5.3 1.41,-0.21 1.43,-1.8 2.99,-1.83 2.51,-3.79 -2.32,-5.01 -4.65,-6.46 -0.7,0.35 -1.35,0.74 -2.14,0.99 -0.08,-2.05 0.07,-3.9 1.01,-4.95 0.8,0.48 -0.56,1.7 0.16,2.63 3,0.78 3.76,-3.04 0.97,-3.14 1,-1.46 -0.57,-2.39 -0.49,-3.65 0.04,-0.74 0.72,-0.79 0.98,-1.49 0.53,-1.28 0.13,-2.34 0,-3.82 -1.35,-0.54 -1.21,-3.09 0.2,-3.48 -0.07,-0.77 -0.98,-0.72 -1.02,-1.5 0.79,-1.82 -0.63,-2.88 -1.32,-3.81 0.3,-1.68 1.88,-1.31 2.48,-0.15l0 0zm4 49.38c0.07,-0.5 -0.22,-0.67 -0.51,-0.81 -0.02,0.77 -0.22,-0.38 -0.82,0 -0.17,0.44 -0.34,0.86 -0.33,1.48 0.49,-0.12 0.47,0.29 0.98,0.16 0.5,-0.51 -0.08,-1.57 0.68,-0.83l0 0zm2.15 -33.63c-1.77,0.35 -3.25,2.38 -1.82,3.97 -1.16,0.29 -1.99,1.87 -1.17,3.15 0.12,0.04 0.33,0 0.33,0.16 1.65,0.03 2.19,-1.8 1.49,-3.15 1.42,-1.76 3.67,-4.88 2.49,-7.61 -1.96,-0.69 -1.67,2.11 -1.32,3.48zm2.48 4.63c0.34,0.15 0.48,0.51 1.01,0.51 0.73,-0.56 1.18,-1.52 0.65,-2.48 -1.41,-0.65 -1.57,0.8 -1.66,1.97zm1.17 6.47c1.17,0.99 1.7,-0.89 2.82,-0.5 0.49,-0.75 0.58,-1.82 0,-2.48 -2.26,-0.31 -2.39,1.48 -2.82,2.98l0 0zm-1.03 -0.67c0.2,-0.66 0.2,-1.15 0,-1.82 -1.34,-0.08 -0.64,1.62 0,1.82zm-2.8 9.3c2.09,1.6 2.92,-1.53 2.99,-3.5 -0.35,-0.24 -0.73,-0.47 -1.16,-0.66 -1.04,0.95 -1.82,2.19 -1.83,4.16l0 0zm-7.45 -1.66c0.42,0.18 0.55,0.65 1.15,0.65 0.29,-0.69 0.54,-1.83 0.19,-2.64 -0.99,-0.48 -1.44,0.85 -1.34,1.99l0 0zm5.81 2.81c-1.24,0.06 -1.52,2.68 -1.17,4.15 2.78,1.1 3.24,-4.27 1.17,-4.15zm-8.63 7.29c-0.79,1.36 -0.94,4.28 0.33,5.3 1.56,-0.79 2.72,-5.28 -0.33,-5.3zm-5.81 11.11c-0.81,0.8 -0.94,2.25 -2.15,2.64 0.07,0.8 -0.35,1.2 0,1.83 0.3,0.09 0.7,0.08 0.83,0.33 1.17,-0.28 1.13,-2.05 2.83,-1.31 0.81,-0.53 1.27,-1.38 1.31,-2.67 -0.58,-0.61 -1.76,-0.66 -2.82,-0.82l0 0zm13.76 5.14c-1.13,0.37 -2.23,1.6 -1.65,3.14 1.26,-0.16 3.01,-1.95 1.65,-3.14zm-26.34 6.95c-0.67,0.02 -0.82,-0.53 -1.51,-0.51 -0.81,0.2 -1.05,0.95 -1.8,1.18 -0.66,0.09 -0.82,-0.3 -1.5,-0.16 -0.41,0.09 -0.37,0.65 -1.01,0.5 -0.7,2.63 -4.49,2.57 -3.64,6.29 -1.15,-0.11 -1.9,0.18 -2.48,0.66 0.3,1.15 0.67,2.21 1.82,2.49 1.04,-0.73 1.45,-2.09 2.49,-2.82 1.03,0.3 1.94,0.72 2.82,1.16 1.57,-0.37 2.73,-1.13 3.48,-2.33 0.23,0.49 1.06,0.38 1.49,0.68 0.38,0.55 0.16,1.72 0.68,2.13 0.36,0 0.45,0.3 0.98,0.18 1.14,-0.84 -0.21,-1.97 0,-2.99 0.19,-0.94 1.43,-1.34 1.64,-2.47 0.11,-0.48 -0.17,-1 -0.15,-1.5 0.13,-1.89 2.56,-3.31 1.32,-5.3 -0.75,-0.26 -0.98,0.12 -1.65,0.34 -0.52,-0.69 -0.16,-2.28 -1.01,-2.67 -1.11,0.91 -1.07,3.56 -1.97,5.14l0 0zm45.07 -3.46c0,0.6 0.1,1.12 0.67,1.14 0.03,-0.12 0.14,-0.18 0.33,-0.16 -0.01,-0.61 0.09,-1.31 -0.33,-1.49 -0.04,0.35 -0.44,0.32 -0.67,0.51l0 0zm-54.7 1.65c0.37,0.18 0.7,0.42 1.33,0.33 0.5,-0.67 0.61,-1.68 0,-2.33 -1.13,-0.04 -1.44,0.76 -1.33,2l0 0zm50.89 -1.16c0,0.55 0,1.09 0,1.65 0.52,0.22 0.54,0.04 1.18,0 0.35,-0.47 0.51,-1.12 0.48,-1.98 -0.42,-0.6 -1.2,0.02 -1.66,0.33l0 0zm-47.08 1.65c0.44,0.3 0.89,0.58 1.67,0.49 1.5,-2.37 -2.52,-3.45 -1.67,-0.49zm43.93 8.78c0.24,-1.08 2,-2.87 0.65,-3.47 -0.26,0.94 -1.82,2.69 -0.65,3.47zm-11.09 -0.48c0.6,0.04 0.59,-1.01 0.34,-1.33 -0.62,-0.05 -0.61,1.01 -0.34,1.33zm11.42 4.46c0.53,-0.15 0.61,-1.39 0.32,-1.81 -0.14,0 -0.32,0 -0.48,0 -0.27,0.44 -0.46,1.5 0.16,1.81zm1.17 2.82c-1.66,0 -1.74,-1.58 -2.5,-2.49 -2.49,1.01 -0.8,6.15 -4.13,6.31 -0.39,0.77 -0.57,1.73 -0.49,2.99 -0.95,0.59 -1.97,1.1 -2.17,2.47 -2.47,0.71 -5.01,0.97 -6.62,2.82 -0.47,-0.13 -0.44,-0.77 -1.15,-0.66 -1.37,0.7 -3.11,1.01 -2.68,3.49 1.21,0.04 2.52,-0.05 4.15,-0.17 0.52,0.8 -0.31,1.91 0.17,2.65 0.14,0.48 0.53,-0.11 0.84,0 0.1,0.62 0.45,0.96 0.65,1.49 1.31,-0.39 2.02,-1.4 2.98,-2.16 0.69,-0.11 0.86,0.27 1.5,0.18 0.97,-0.48 1.62,-1.26 1.82,-2.5 2.35,-0.96 1.03,-5.62 3.97,-5.96 0.6,-0.09 0.42,0.6 1,0.5 0.62,-0.66 1.49,-1.05 2.67,-1.17 0.34,-0.64 0.36,-1.61 0.32,-2.66 0.51,0.05 1.01,-0.73 1.67,-1.15 1.16,-0.75 0.78,-0.87 1.31,-2.15 0.8,-1.93 2.07,-3.19 0.99,-4.8 -2.59,-1.69 -3.81,1.04 -4.29,2.98l-0.01 -0.01zm-5.8 -1.32c0.11,-0.18 0.65,-0.77 0.16,-1 -0.28,0.2 -0.83,0.84 -0.16,1zm-3.49 5.63c2.03,0.32 2.44,-2.99 1.33,-3.81 -0.63,1.08 -1.47,1.94 -1.33,3.81zm-34.8 -0.17c0.11,0.05 0.32,0 0.33,0.17 1.15,-0.02 1.36,-1.53 0.84,-2.32 -1.46,-0.32 -1.17,1.05 -1.17,2.15zm16.57 1.51c1.04,0.63 2.11,0.8 3.31,0.81 0.67,-2.14 -1.04,-2.48 -2.31,-3.14 -0.36,0.74 -0.94,1.27 -1,2.33l0 0zm13.59 2.48c1.17,-0.03 1.5,0.83 2.66,0.83 0.16,-0.44 0.33,-0.88 0.32,-1.5 -1.16,-0.22 -1.26,-1.49 -2.65,-1.49 -0.18,0.69 -0.62,1.49 -0.33,2.16zm-17.56 1.32c0.94,0.91 1.91,0.12 2.82,-0.33 0.13,-0.62 -0.21,-0.79 -0.17,-1.33 -1.26,-0.9 -2.96,-0.32 -2.65,1.66zm10.6 -0.49c-0.78,0.29 -3.26,2.99 -3.32,3.48 -0.15,1.16 0.73,2.97 2.34,3.15 0.58,-0.61 0.11,-1.26 0,-1.99 0.46,-2.14 3.38,-1.82 3.32,-4.48 -0.62,-0.1 -1.47,-0.5 -2.34,-0.16l0 0zm-4.97 7.12c-0.57,-2.34 -5.01,-0.03 -4.47,2.66 1.99,1.1 4.94,-0.7 4.47,-2.66zm-7.29 2.98c-0.29,0.59 -0.58,1.2 -0.67,2.01 0.36,0.13 0.48,0.49 1.01,0.49 1.08,-0.17 1.24,-3.27 -0.34,-2.5zm6.29 3.14c-1.27,0.9 -1.1,1.84 -2.32,2.17 -1.69,0.47 -2.68,-1.39 -3.8,-1.33 -1.41,0.08 -1.41,1.53 -1.32,3.66 -3.09,1.95 -6.08,3.98 -8.8,6.29 -1.64,-0.21 -2.33,0.54 -3.97,0.34 -1.96,2.02 -4.07,3.89 -6.82,5.14 -0.07,1.35 1.35,2.08 0.5,3.97 0.49,-0.02 0.44,0.46 0.69,0.67 1.58,-1.01 2.33,-1.88 4.61,-1.16 0.94,-1.95 4.6,-0.89 5.64,-2.33 1.3,-1.73 -1.55,-3.67 1.01,-4.8 0.7,0.55 1.47,0.15 2.31,0 0.39,-0.93 0.92,-2.31 2.01,-1.99 0.03,1.07 -0.6,1.51 -0.67,2.47 1.32,1.08 3.44,-0.38 4.3,-1.32 1.14,0.23 2.23,-0.81 2.65,-1.82 -0.08,-0.74 -0.94,-0.73 -0.82,-1.65 0.79,-1.44 2.22,-2.7 4.49,-2.16 1.15,-0.57 1.83,-3.12 3.63,-1.99 0.27,-1.57 1.54,-2.1 1.49,-3.98 -1.64,-2.5 -3.15,-0.26 -4.8,-0.18l-0.01 0zm-8.45 0.84c0,-1.67 -1.52,-0.89 -2.48,-0.49 -0.22,0.7 -0.07,0.89 0,1.66 0.7,-0.53 1.94,-0.49 2.48,-1.17zm21.06 3.32c-1.11,0.75 -2.1,1.07 -1.17,2.82 0.85,-0.06 1.78,-0.95 2.5,-0.16 0.59,-1.09 1.12,-1.86 0.81,-3.49 -0.62,-0.99 -1.22,0.18 -2.14,0.83l0 0zm-5.81 2.15c0.89,0.32 1.73,-0.47 1.51,-1.81 -1.14,-0.02 -1.14,1.08 -1.51,1.81zm-1 1.33c0.02,-0.32 0.85,-1.21 0,-1.33 -0.25,0.22 -0.6,1.23 0,1.33zm-36.29 0.99c0.28,0 0.55,0 0.81,0 -0.2,-0.8 0.84,-0.4 0.85,-0.99 -0.51,-0.07 -0.8,0.25 -1.17,-0.5 -0.75,0.28 -0.91,0.75 -0.49,1.49l0 0zm33.81 3.49c-0.35,1.72 -3.33,1.91 -2.16,4.15 2.37,-0.76 5.08,-1.81 4.48,-4.98 -0.97,0.07 -1.67,0.41 -2.32,0.83zm-5.81 4.47c0.11,-1.03 -0.85,-1.95 -1.82,-2.47 -0.86,0.34 -0.55,1.88 -1.16,2.47 -1.27,0.46 -1.86,-0.21 -2.65,-0.66 -0.5,0.71 -0.77,2.67 -0.17,3.48 1.41,-1.57 5.59,-0.35 5.8,-2.82l0 0zm-72.93 0.67c0.54,0.02 0.58,-0.43 0.67,-0.83 -0.24,-0.09 -0.41,-0.25 -0.67,-0.33 -0.08,0.38 -0.32,0.84 0,1.16l0 0zm15.74 0.82c0.85,0.95 2.93,0.88 2.49,-1.16 -0.71,-0.17 -1.46,-0.3 -2.14,-0.49 -0.2,0.48 -0.47,0.85 -0.35,1.65l0 0zm4.48 -1.49c0.1,0.61 -0.36,0.63 -0.32,1.15 0.53,-0.07 0.58,0.32 1.17,0.17 -0.08,-0.63 0.3,-0.8 0.15,-1.48 -0.49,-0.11 -0.48,0.29 -1,0.16l0 0zm-55.52 2.32c1.23,0.57 2.46,0.56 3.65,0.33 0.25,-1.82 -4.09,-2.72 -3.65,-0.33zm17.42 -1c0,0.33 0,0.67 0,1 0.41,0.3 0.87,0.56 1.65,0.5 1.35,-1.24 -0.42,-2.68 -1.65,-1.5l0 0zm79.22 3.32c1.03,0.67 1.73,-0.53 3.3,0 0.39,-0.78 0.87,-1.45 0.84,-2.65 -1.96,-1.96 -3.91,0.15 -4.14,2.65zm22.54 -0.99c0.23,-0.37 0.42,-0.8 0.32,-1.49 -2.5,-2.13 -3.4,2.09 -0.32,1.49zm-49.74 -1c-1.66,0.7 -3.02,0.61 -4.79,1.67 -0.2,4.68 7.91,1.65 4.79,-1.67zm-46.91 3.98c0.6,0.48 1.13,0.19 1.84,0.33 0.07,-0.81 0.64,-1.11 1.49,-1.15 0.9,-4.16 -4.78,-3.15 -3.33,0.82l0 0zm91.67 -0.5c1.41,-0.05 1.42,-1.39 1,-2.48 -1.51,-0.21 -2.24,1.86 -1,2.48zm-99.79 -0.83c-0.35,4.41 2.62,0.85 4.66,1.84 0.85,-3.38 -3.04,-3.66 -4.66,-1.84zm35.13 2.48c-1.1,-1.17 -2.29,-2.32 -3.95,-2.98 -0.87,1.17 -2.06,2.04 -2.99,3.14 0.96,0.19 0.76,-0.19 1.15,-0.32 0.29,3.05 4.53,2.11 5.16,4.82 -0.15,0.41 -0.41,0.69 -0.84,0.81 -1.25,-1.13 -5.07,-0.86 -4.98,1.35 0.36,0.78 1.25,0.7 1.83,0.16 0.8,0.64 1.42,1.69 2.33,1.65 0.57,-0.01 1.04,-0.77 1.66,-1.16 0.15,-0.1 0.47,0.09 0.63,0 1.14,-0.65 1.87,-1.53 2.83,-1.66 0.25,0.43 0.54,0.77 0.84,1.17 0.52,-0.02 0.73,-0.37 1.33,-0.33 0.14,-0.69 -0.26,-0.86 -0.17,-1.5 -2.9,0.07 -1.98,-4.25 0.98,-2.81 0.39,0.58 0.45,1.43 0.69,2.15 2.45,-0.4 2.52,-4.03 1.15,-5.8 -1.35,-0.21 -2.48,-0.63 -2.82,-1.83 -2.58,0.09 -3.64,1.67 -4.83,3.14l0 0zm-10.76 -0.99c-0.9,0.25 -0.96,1.37 -2.16,1.34 0,0.66 0,1.33 0,1.99 2.13,0.02 0.73,3.31 1.67,4.14 0.27,-1.34 1.16,-2.04 2.33,-2.48 0.21,-1.18 0.51,-2.26 0.65,-3.49 -0.95,-0.38 -1.49,-1.15 -2.49,-1.5zm71.12 4.82c0.76,-0.63 1.81,-0.46 1.82,-1.49 0,-1.28 -2.19,-1.9 -2.81,-0.17 -0.98,-0.26 -1.21,0.08 -1.99,0.33 -1.77,-1.53 -4.48,0.28 -6.14,-0.82 -1.07,0.51 -1.22,1.99 -2.16,2.64 -2.41,0.17 -3.8,1.38 -5.31,2.49 -1.59,-0.5 -2.86,0.18 -3.98,0.99 -1.35,-0.71 -2.02,0.74 -2.64,1.33 -1.82,0.03 -3.09,0.67 -4.14,1.5 -0.51,-0.19 -0.95,-0.38 -1.66,-0.34 -1.21,1.31 -5.17,2.72 -3.15,5.13 1.41,-0.31 2.07,1.02 3.31,1.01 2.51,-0.05 6.19,-5.94 10.29,-4.15 1.65,-1.4 2.66,-4.2 5.79,-3.15 0.99,-0.89 1.81,-1.97 2.48,-3.15 1.32,-0.13 1.69,-1.19 2.82,-1.49 2.2,0.31 2.53,2.45 5.31,2.15 0.49,-0.42 1.11,-1.95 2.16,-2.81l0 0zm-45.75 0.16c1.37,0.6 1.96,-0.73 3.15,-0.83 0,-0.38 0,-0.77 0,-1.16 -1.39,-0.99 -2.97,0.34 -3.15,1.99zm-29.03 0c-1.47,-0.64 -3.33,-2.12 -4.62,-0.66 -0.04,1.26 -0.36,3.05 0.65,3.65 0.43,0.5 0.69,-0.53 1.33,-0.34 0.68,0.38 0.84,1.28 2.17,1 0.65,-0.78 0.8,-2.34 0.47,-3.65l0 0zm43.29 1.48c-1.52,-1.32 -3.65,0.04 -5.64,-0.48 -1.49,1.34 -5.62,2.47 -3.64,5.64 0.96,-0.14 2.08,-1.56 2.97,-2.32 2.7,0.21 5.69,0.17 6.64,-2.16 0.24,0.18 0.39,0.48 0.81,0.49 0,-0.6 0,-1.21 0,-1.82 -0.57,0.01 -0.73,0.47 -1.14,0.65l0 0zm-22.04 4.65c-1.93,-1.03 -5.21,-0.76 -6.63,0.51 -1.07,-0.57 -1.8,0.49 -2.49,0.82 -0.93,-0.89 -2.1,-0.09 -3.15,0.33 -1.72,-0.53 -4.31,-0.95 -6.31,-1 -0.43,1.86 0.02,4.16 2.16,3.99 0.71,-0.18 0.83,-0.94 1.65,-1 0.46,0.27 0.74,0.71 1.15,1 1.32,-1.02 3.97,-0.68 4.82,-2.16 0.81,0.18 1.33,1.5 2.5,1.48 0.78,0 1.72,-1.2 2.63,-1.31 0.87,-0.11 1.88,0.67 2.65,0.49 1.12,-0.25 1.04,-1.36 1.66,-1.66 1.87,1.15 5.97,0.44 4.15,-2.15 -1.12,0.27 -2.61,0.55 -3.64,0 -0.5,0.13 -0.45,0.79 -1.15,0.66l0 0zm-24.54 3.49c1.09,0.32 1.02,-1.42 0.34,-1.49 -0.35,0.26 -0.39,0.82 -0.34,1.49zm18.39 4.47c0.59,-2.71 -1.42,-2.45 -2.81,-1.65 -1.58,2.39 1.58,3.69 2.81,1.65zm-19.72 0c0.53,-0.08 0.35,0.51 1,0.33 0.24,-0.36 0.42,-0.8 0.33,-1.49 -0.75,-0.72 -1.64,-0.1 -1.33,1.16l0 0zm32.49 0.33c-0.16,0.41 -0.39,0.71 -0.33,1.32 0.73,0.74 1.72,0.35 2.81,0.35 0.43,-0.46 0.35,-1.17 0.17,-1.84 -0.92,-0.5 -1.71,-0.11 -2.65,0.16l0 0.01zm-11.44 0c0.17,1.32 -1.18,2.13 -1.15,3.32 0.07,2.46 4.33,2.52 5.97,0.99 1.95,-0.03 2.46,-0.48 3.96,-0.32 0.43,-0.85 0,-1.75 -0.33,-2.32 -1.95,0.3 -2.17,-1.15 -3.31,-1.67 -1.71,0.2 -3.3,0.06 -5.14,0z"></path>   <path class="fil1" d="M223.49 30.16c-7.42,-1.84 -15.13,-2.69 -23.01,-2.46 -56.78,1.69 -105.27,62.18 -107.76,135.02 -0.7,19.94 -0.11,22.56 1.1,29.01 0,0 -24.65,-50.93 17.51,-125.2 8.16,-14.41 59.52,-69.98 115.94,-35.82 0,0 0.67,0.54 -3.78,-0.54l0 -0.01z"></path>   <path class="fil1" d="M84.57 172.53c-2.35,-9.8 -3.68,-20.25 -3.83,-31.12 -0.96,-66.39 41.82,-123.45 95.55,-128.69 26.95,-2.51 43.86,2.12 53.39,15.35 0,0 -0.03,-15.26 -21.38,-23.96 -9.8,-4 -24.28,-4.74 -35.46,-3.66 -53.73,5.24 -101.25,54.1 -98.84,132.41 0.45,13.99 2.85,27.14 6.87,39.09 4.24,10.35 6.55,12.18 6.53,12.01 -1.17,-4.41 0.21,1.44 -2.83,-11.43l0 0z"></path>   <path class="fil1" d="M15.8 179.11c2,7.38 4.98,14.52 9.02,21.34 28.93,48.85 105.34,61.97 170.28,28.89 17.78,-9.04 19.8,-10.81 24.85,-15.01 0,0 -32.62,46.22 -118.02,45.32 -16.56,-0.19 -90.05,-18.21 -87.47,-84.12 0,0 0.16,-0.85 1.34,3.58l0 0z"></path>   <path class="fil1" d="M207.65 231.75c-7.44,6.79 -15.95,13.01 -25.39,18.4 -57.63,32.98 -128.26,23.15 -158.84,-21.3 -15.28,-22.37 -19.39,-39.4 -12.46,-54.15 0,0 -13.32,7.41 -10.59,30.31 1.24,10.51 7.62,23.55 13.97,32.8 30.61,44.46 96.34,62.39 163.72,22.37 12.04,-7.16 22.33,-15.63 30.85,-24.95 7.02,-8.72 7.49,-11.63 7.36,-11.52 -3.29,3.17 1.15,-0.88 -8.62,8.04l0 0z"></path>   <path class="fil1" d="M250.67 292.59c5.21,-5.61 9.68,-11.95 13.3,-18.97 26.04,-50.48 -3.45,-122.18 -65.95,-159.65 -17.12,-10.25 -19.71,-11.02 -25.92,-13.06 0,0 56.49,3.08 101.06,75.92 8.64,14.13 32.41,85.97 -24.79,118.8 0,0 -0.81,0.32 2.3,-3.04l0 0z"></path>   <path class="fil1" d="M193.39 102.08c9.7,2.7 19.48,6.59 29.08,11.73 58.56,31.32 87.72,96.39 66.31,145.93 -10.85,24.81 -23.09,37.33 -39.28,39.28 0,0 13.39,7.37 31.32,-7.11 8.26,-6.66 15.91,-18.96 20.36,-29.26 21.44,-49.56 1.7,-114.78 -68,-150.59 -12.44,-6.41 -25.1,-10.66 -37.51,-12.9 -11.11,-1.32 -13.83,-0.19 -13.66,-0.12 4.42,1.11 -1.36,-0.52 11.38,3.04z"></path>   <path class="fil0" d="M498.14 146.98c1.14,20.02 -12.58,34.03 -32.6,34.03 -32.03,0 -39.18,-36.03 -39.18,-61.48 0,-24.31 4.87,-66.34 37.18,-66.34 22.02,0 32.6,16.58 34.6,36.31l43.47 -6c-6.01,-41.47 -34.61,-67.2 -76.93,-67.2 -59.19,0 -85.22,49.47 -85.22,102.66 0,51.47 23.74,99.23 81.22,99.23 22.88,0 38.89,-7.72 53.47,-25.45l6.58 22.59 20.88 0 0 -104.95 -80.65 0 0 36.6 37.18 0zm133.18 -79.78c-44.33,0 -68.92,32.88 -68.92,75.21 0,42.04 24.3,75.78 68.92,75.78 42.89,0 70.06,-32.89 70.06,-74.35 0,-42.9 -24.59,-76.64 -70.06,-76.64l0 0zm0.28 27.74c9.73,0 16.59,3.71 20.02,13.15 4,10.87 4.57,24.6 4.57,36.03 0,17.45 -1.14,46.04 -24.87,46.04 -24.03,0 -23.74,-35.46 -23.74,-52.04 0,-16.59 1.43,-43.18 24.02,-43.18l0 0zm150.44 -27.74c-44.32,0 -68.91,32.88 -68.91,75.21 0,42.04 24.3,75.78 68.91,75.78 42.9,0 70.07,-32.89 70.07,-74.35 0,-42.9 -24.6,-76.64 -70.07,-76.64l0 0zm0.29 27.74c9.72,0 16.59,3.71 20.02,13.15 4,10.87 4.57,24.6 4.57,36.03 0,17.45 -1.14,46.04 -24.88,46.04 -24.02,0 -23.73,-35.46 -23.73,-52.04 0,-16.59 1.43,-43.18 24.02,-43.18l0 0zm211.47 120.39l0 -196.18 -42.04 0 0 66.35c-9.15,-13.44 -20.02,-18.3 -36.31,-18.3 -42.33,0 -53.2,42.61 -53.2,77.21 0,33.74 11.44,73.78 52.34,73.78 18.58,0 30.59,-10.01 38.6,-25.45l0.57 0 0 22.59 40.04 0 0 0zm-42.04 -60.63c0,7.15 -0.29,14.87 -3.72,21.45 -3.43,6.58 -10.58,11.73 -18.3,11.73 -20.87,0 -23.16,-26.6 -23.16,-42.33 0,-17.44 0.86,-48.9 24.88,-48.9 19.16,0 20.3,24.02 20.3,38.04l0 20.01 0 0zm210.66 -97.51l0 -38.04 -140.13 0 0 196.18 140.13 0 0 -38.03 -94.37 0 0 -43.47 74.35 0 0 -36.89 -74.35 0 0 -39.75 94.37 0 0 0zm146.63 158.14c-2.29,-7.15 -2.86,-14.3 -2.86,-21.73l0 -67.78c0,-17.44 1.43,-33.46 -13.44,-45.47 -11.72,-9.72 -31.17,-13.15 -46.04,-13.15 -30.6,0 -64.91,10.29 -69.2,45.47l39.75 3.72c0,-14.3 11.72,-21.17 25.16,-21.17 6.29,0 13.44,2 17.16,6.87 4.29,5.43 3.72,12.87 3.72,19.16l0 3.43c-17.73,1.71 -40.9,2.86 -57.48,9.15 -19.16,7.15 -32.6,21.74 -32.6,43.18 0,27.45 20.02,41.18 45.75,41.18 21.74,0 34.32,-8.29 46.33,-25.45 -0.29,7.43 0.28,15.15 2,22.59l41.75 0 0 0zm-45.75 -63.77c0,10.29 0.28,18.87 -5.72,28.02 -4.86,7.44 -12.58,12.01 -21.16,12.01 -11.73,0 -18.59,-7.72 -18.59,-19.16 0,-21.16 29.45,-24.88 45.47,-26.59l0 5.72 0 0zm63.67 -81.5l0 145.27 42.03 0 0 -55.48c0,-25.74 4.01,-51.76 36.03,-50.04l0 -42.04 -7.15 -0.57c-18.3,-1.43 -26.87,14.58 -31.17,30.02l-0.57 0 0 -27.16 -39.17 0zm185.35 -0.29l-31.17 0 0 -45.47 -36.6 2.86 -3.72 42.61 -25.45 0 0 33.46 23.73 0 0 64.05c0,14.3 0,31.75 11.73,41.47 9.44,7.72 25.45,9.44 37.46,9.44 7.72,0 18.01,-1.15 26.31,-3.15l0 -31.74c-4.86,0.57 -10.3,1.14 -14.02,1.14 -18.01,0 -19.44,-4.29 -19.44,-23.45l0 -57.76 31.17 0 0 -33.46 0 0zm140.95 53.19c0,-14.01 0.85,-28.6 -8.01,-40.04 -8.58,-11.15 -22.88,-15.72 -36.32,-15.72 -15.73,0 -32.32,8.29 -37.75,22.88l-0.57 0 0 -70.92 -42.04 0 0 196.17 42.04 0 0 -78.36c0,-8.57 0,-17.72 3.72,-25.45 3.43,-7.15 12.3,-10.86 20.02,-10.86 18.3,0 16.87,23.73 16.87,36.31l0 78.36 42.04 0 0 -92.37 0 0z"></path>   <path class="fil2" d="M388.6 250.67l0 59.26 3.38 0c1.15,-4.17 1.15,-4.26 1.69,-6.13 1.77,3.47 3.73,7.02 11.1,7.02 15.02,0 16.7,-15.46 16.7,-23.37 0,-6.3 -1.06,-13.68 -5.86,-18.57 -1.87,-1.77 -4.98,-3.64 -9.42,-3.64 -6.75,0 -9.68,4.45 -11.11,6.67l0 -21.24 -6.48 0 0 0zm6.49 33.85c0,-8.35 4.35,-13.86 9.86,-13.86 8,0 9.33,7.64 9.33,16.79 0,7.02 -0.54,17.95 -9.51,17.95 -9.68,0 -9.68,-10.75 -9.68,-14.21l0 -6.67 0 0zm41.22 -18.39l0 27.72c0,2.58 0,8.53 1.51,11.55 2.67,5.51 8,5.78 10.13,5.78 7.64,0 10.04,-4.89 11.46,-7.73l0 6.48 6.05 0 0 -43.8 -6.49 0 0 19.99c0,6.75 0,19.64 -9.51,19.64 -6.66,0 -6.66,-4.62 -6.66,-12l0 -27.63 -6.49 0 0 0zm46.2 0l0 43.8 6.49 0 0 -43.8 -6.49 0zm6.76 -7.73l0 -7.55 -7.02 0 0 7.55 7.02 0zm16.7 -7.73l0 59.26 6.49 0 0 -59.26 -6.49 0zm47.62 0l0 21.41c-1.15,-2.22 -3.46,-6.84 -10.92,-6.84 -9.07,0 -15.55,8.18 -15.55,23.37 0,6.57 1.42,22.21 15.37,22.21 7.82,0 10.57,-4.89 11.73,-7.02l0 6.13 5.86 0 0 -59.26 -6.49 0 0 0zm0 40.52c0,4.35 -0.17,7.99 -2.3,10.66 -1.69,2.22 -4.36,3.55 -7.12,3.55 -7.55,0 -9.86,-7.55 -9.86,-17.68 0,-8.17 1.6,-17.06 9.51,-17.06 2.49,0 5.24,0.98 7.29,3.82 2.48,3.47 2.48,7.2 2.48,9.42l0 7.29zm23.55 -25.06l0 43.8 6.49 0 0 -43.8 -6.49 0zm6.75 -7.73l0 -7.55 -7.02 0 0 7.55 7.02 0zm16.7 51.53l6.49 0 0 -23.63c0,-12.35 4.18,-15.99 9.42,-15.99 6.75,0 6.75,5.33 6.75,12.61l0 27.01 6.49 0 0 -27.9c0,-4.88 -0.09,-8.61 -1.33,-11.28 -1.6,-3.55 -5.51,-5.87 -10.49,-5.87 -7.73,0 -10.13,5.43 -11.28,8l0 -6.75 -6.05 0 0 43.8 0 0zm77.66 -50.64c-5.15,-0.09 -8.79,-0.09 -10.3,7.46 -1.52,-0.71 -3.74,-1.86 -7.29,-1.86 -7.55,0 -14.66,6.04 -14.66,15.1 0,6.66 3.2,9.77 5.06,11.55 -3.64,1.6 -5.68,4.09 -5.68,8.09 0,4 2.4,5.69 4.08,6.84 -1.78,0.62 -5.77,2.13 -5.77,8.71 0,10.3 11.82,11.46 17.41,11.46 4.27,0 18.58,-0.71 18.58,-12.71 0,-10.3 -7.65,-10.75 -16.71,-11.19 -9.06,-0.45 -11.55,-0.53 -11.55,-4.45 0,-2.84 2.04,-3.55 3.64,-4.09 1.6,0.45 3.11,0.81 5.42,0.81 10.58,0 14.75,-8.53 14.75,-15.02 0,-5.24 -2.4,-8.53 -3.38,-9.86 0.36,-2.85 1.25,-5.51 4.63,-5.51 0.53,0 0.88,0 1.77,0.18l0 -5.51 0 0zm-17.33 11.02c5.43,0 7.65,5.33 7.65,9.86 0,6.48 -3.91,9.77 -8,9.77 -3.2,0 -7.82,-2.13 -7.82,-9.77 0,-2.49 0.53,-9.86 8.17,-9.86zm-6.93 37.76c12.18,0.35 13.6,0.44 15.2,0.89 3.28,0.97 3.82,3.37 3.82,5.24 0,6.57 -7.73,7.19 -11.46,7.19 -6.67,0 -11.29,-1.51 -11.29,-7.37 0,-3.64 2.4,-5.06 3.74,-5.95l-0.01 0zm96.54 -32.08c-0.89,-3.2 -3.2,-11.1 -13.86,-11.1 -10.04,0 -14.31,7.82 -14.31,13.06 0,2.4 0.8,4.62 2.14,6.48 2.13,3.11 5.15,4.27 12.61,6.58 3.92,1.24 8.53,2.66 8.53,7.55 0,3.11 -2.39,7.2 -8.7,7.2 -8.44,0 -9.69,-6.13 -10.13,-8.44l-6.04 1.33c0.71,3.29 2.57,12.53 15.72,12.53 11.11,0 15.91,-7.11 15.91,-13.42 0,-8.79 -7.82,-11.37 -13.42,-13.15 -7.2,-2.13 -10.22,-3.11 -10.22,-7.55 0,-3.2 2.4,-6.75 7.55,-6.75 6.05,0 7.83,5.24 8.54,7.11l5.68 -1.43 0 0zm14.75 -9.86l0 27.72c0,2.58 0,8.53 1.51,11.55 2.67,5.51 8,5.78 10.13,5.78 7.64,0 10.04,-4.89 11.46,-7.73l0 6.48 6.04 0 0 -43.8 -6.48 0 0 19.99c0,6.75 0,19.64 -9.51,19.64 -6.66,0 -6.66,-4.62 -6.66,-12l0 -27.63 -6.49 0 0 0zm71.62 9.86c-0.89,-3.2 -3.2,-11.1 -13.87,-11.1 -10.04,0 -14.3,7.82 -14.3,13.06 0,2.4 0.8,4.62 2.13,6.48 2.14,3.11 5.15,4.27 12.62,6.58 3.91,1.24 8.53,2.66 8.53,7.55 0,3.11 -2.4,7.2 -8.71,7.2 -8.44,0 -9.68,-6.13 -10.13,-8.44l-6.04 1.33c0.71,3.29 2.58,12.53 15.73,12.53 11.1,0 15.9,-7.11 15.9,-13.42 0,-8.79 -7.82,-11.37 -13.42,-13.15 -7.19,-2.13 -10.21,-3.11 -10.21,-7.55 0,-3.2 2.4,-6.75 7.55,-6.75 6.04,0 7.82,5.24 8.53,7.11l5.69 -1.43 0 0zm15.45 -20.08l0 10.22 -6.3 0 0 5.33 6.3 0 0 22.04c0,10.57 0,17.68 11.11,17.68 2.58,0 4.44,-0.36 6.05,-0.62l0 -5.51c-1.16,0.27 -2.32,0.44 -3.92,0.44 -6.75,0 -6.75,-3.55 -6.75,-11.99l0 -22.04 8.53 0 0 -5.33 -8.53 0 0 -10.84 -6.49 0.62 0 0zm33.06 21.33c0.53,-1.87 1.86,-6.93 8.71,-6.93 8.17,0 8.17,7.73 8.17,10.84l0 1.86c-1.6,-0.18 -3.29,-0.35 -5.78,-0.35 -7.19,0 -12.61,1.69 -15.9,5.59 -2.13,2.58 -3.29,6.13 -3.29,9.78 0,8.08 5.24,13.15 12.89,13.15 7.99,0 10.83,-5.51 12.61,-8.97 0,3.11 0.09,4.53 0.54,7.72l6.21 0c-0.7,-3.46 -0.8,-5.24 -0.8,-14.03l0 -12.89c0,-4.97 0,-10.3 -2.66,-13.5 -2.22,-2.76 -6.31,-4.62 -11.55,-4.62 -4.35,0 -7.2,1.24 -8.44,1.86 -5.69,2.94 -6.67,7.29 -7.11,9.42l6.4 1.07 0 0zm16.88 10.92c0.27,4.71 0.27,8 -1.87,12 -1.77,3.11 -4.62,5.6 -8.97,5.6 -5.07,0 -7.29,-3.02 -7.29,-7.56 0,-7.1 4.09,-10.57 13.06,-10.57 2.05,0 3.11,0.18 5.07,0.53zm23.55 -22.03l0 43.8 6.48 0 0 -43.8 -6.48 0zm6.75 -7.73l0 -7.55 -7.02 0 0 7.55 7.02 0zm16.7 51.53l6.49 0 0 -23.63c0,-12.35 4.18,-15.99 9.41,-15.99 6.76,0 6.76,5.33 6.76,12.61l0 27.01 6.48 0 0 -27.9c0,-4.88 -0.08,-8.61 -1.33,-11.28 -1.6,-3.55 -5.51,-5.87 -10.48,-5.87 -7.73,0 -10.13,5.43 -11.29,8l0 -6.75 -6.04 0 0 43.8 0 0zm51.98 -32.69c0.53,-1.87 1.86,-6.93 8.71,-6.93 8.17,0 8.17,7.73 8.17,10.84l0 1.86c-1.6,-0.18 -3.29,-0.35 -5.77,-0.35 -7.2,0 -12.62,1.69 -15.91,5.59 -2.13,2.58 -3.29,6.13 -3.29,9.78 0,8.08 5.25,13.15 12.89,13.15 7.99,0 10.84,-5.51 12.61,-8.97 0,3.11 0.09,4.53 0.54,7.72l6.22 0c-0.72,-3.46 -0.8,-5.24 -0.8,-14.03l0 -12.89c0,-4.97 0,-10.3 -2.67,-13.5 -2.22,-2.76 -6.31,-4.62 -11.55,-4.62 -4.35,0 -7.2,1.24 -8.44,1.86 -5.69,2.94 -6.66,7.29 -7.11,9.42l6.4 1.07 0 0zm16.88 10.92c0.27,4.71 0.27,8 -1.87,12 -1.77,3.11 -4.62,5.6 -8.97,5.6 -5.06,0 -7.29,-3.02 -7.29,-7.56 0,-7.1 4.09,-10.57 13.07,-10.57 2.04,0 3.11,0.18 5.06,0.53zm23.55 -37.49l0 59.26 3.37 0c1.15,-4.17 1.15,-4.26 1.69,-6.13 1.78,3.47 3.73,7.02 11.11,7.02 15.01,0 16.7,-15.46 16.7,-23.36 0,-6.31 -1.07,-13.69 -5.87,-18.58 -1.86,-1.77 -4.97,-3.64 -9.41,-3.64 -6.75,0 -9.69,4.45 -11.11,6.67l0 -21.24 -6.48 0 0 0zm6.48 33.85c0,-8.35 4.36,-13.86 9.86,-13.86 8,0 9.33,7.64 9.33,16.79 0,7.03 -0.53,17.95 -9.5,17.95 -9.69,0 -9.69,-10.75 -9.69,-14.21l0 -6.67zm41.23 -33.85l0 59.26 6.48 0 0 -59.26 -6.48 0zm53.93 38.2c-0.27,-16.43 -5.77,-23.98 -15.64,-23.98 -9.24,0 -17.06,7.37 -17.06,23.81 0,11.46 4.18,22.48 16.71,22.48 6.3,0 12.61,-2.58 15.37,-12.8l-6.13 -1.42c-0.98,3.38 -2.67,8.8 -8.89,8.8 -10.3,0 -10.22,-13.06 -10.22,-16.89l25.86 0 0 0zm-25.5 -5.33c0.53,-6.22 2.49,-13.23 9.15,-13.23 6.93,0 8.97,6.66 8.97,13.23l-18.12 0 0 0zm103.47 -3.82c-1.07,-5.77 -2.94,-14.83 -14.49,-14.83 -13.06,0 -16.35,11.72 -16.35,23.63 0,10.49 2.94,22.66 15.91,22.66 12.44,0 14.04,-9.33 14.93,-15.28l-6.58 -0.81c-0.44,4.18 -1.15,10.67 -7.91,10.67 -9.06,0 -9.15,-11.2 -9.15,-16.26 0,-14.57 2.76,-19.19 8.98,-19.19 6.48,0 7.28,5.24 8.08,10.75l6.58 -1.33 0 -0.01zm27.81 -14.83c-14.84,0 -16.97,14.3 -16.97,23.19 0,10.21 3.11,23.1 16.7,23.1 15.64,0 16.88,-15.91 16.88,-23.64 0,-9.24 -2.84,-22.66 -16.61,-22.66l0 0.01zm-0.18 5.42c9.42,0 9.6,13.68 9.6,17.77 0,4.97 -0.45,17.68 -9.6,17.68 -9.15,0 -9.6,-12.71 -9.6,-17.68 0,-4.45 0.27,-17.77 9.6,-17.77zm31.63 39.62l6.48 0 0 -25.41c0,-3.37 0,-6.39 1.34,-9.24 0.89,-1.78 2.67,-4.97 7.28,-4.97 4,0 6.85,1.6 6.85,10.04l0 29.58 6.48 0 0 -25.85c0,-5.15 1.16,-13.77 8.8,-13.77 6.66,0 6.66,6.3 6.66,12.97l0 26.65 6.49 0 0 -27c0,-4.63 0,-10.22 -1.87,-13.16 -2.22,-3.46 -6.13,-4.88 -9.69,-4.88 -8.08,0 -10.39,6.13 -11.55,8.88 -0.62,-2.93 -1.95,-8.88 -10.48,-8.88 -7.02,0 -9.06,4.26 -10.75,7.9l0 -6.66 -6.04 0 0 43.8 0 0zm67.35 0l6.49 0 0 -25.41c0,-3.37 0,-6.39 1.33,-9.24 0.89,-1.78 2.66,-4.97 7.28,-4.97 4,0 6.85,1.6 6.85,10.04l0 29.58 6.48 0 0 -25.85c0,-5.15 1.16,-13.77 8.8,-13.77 6.66,0 6.66,6.3 6.66,12.97l0 26.65 6.49 0 0 -27c0,-4.63 0,-10.22 -1.87,-13.16 -2.22,-3.46 -6.13,-4.88 -9.68,-4.88 -8.09,0 -10.4,6.13 -11.55,8.88 -0.63,-2.93 -1.96,-8.88 -10.49,-8.88 -7.02,0 -9.06,4.26 -10.75,7.9l0 -6.66 -6.04 0 0 43.8 0 0zm67.35 -43.8l0 27.72c0,2.58 0,8.53 1.51,11.55 2.67,5.51 8,5.78 10.13,5.78 7.64,0 10.04,-4.89 11.46,-7.73l0 6.48 6.04 0 0 -43.8 -6.48 0 0 19.99c0,6.75 0,19.64 -9.51,19.64 -6.66,0 -6.66,-4.62 -6.66,-12l0 -27.63 -6.49 0 0 0zm46.2 43.8l6.49 0 0 -23.63c0,-12.35 4.18,-15.99 9.42,-15.99 6.75,0 6.75,5.33 6.75,12.61l0 27.01 6.49 0 0 -27.9c0,-4.88 -0.09,-8.61 -1.34,-11.28 -1.6,-3.55 -5.51,-5.87 -10.48,-5.87 -7.73,0 -10.13,5.43 -11.28,8l0 -6.75 -6.05 0 0 43.8 0 0zm46.21 -43.8l0 43.8 6.48 0 0 -43.8 -6.48 0zm6.75 -7.73l0 -7.55 -7.02 0 0 7.55 7.02 0zm17.41 -2.49l0 10.22 -6.31 0 0 5.33 6.31 0 0 22.04c0,10.57 0,17.68 11.11,17.68 2.57,0 4.44,-0.36 6.04,-0.62l0 -5.51c-1.16,0.27 -2.31,0.44 -3.91,0.44 -6.75,0 -6.75,-3.55 -6.75,-11.99l0 -22.04 8.53 0 0 -5.33 -8.53 0 0 -10.84 -6.49 0.62 0 0zm27.28 10.22l0 43.8 6.48 0 0 -43.8 -6.48 0zm6.75 -7.73l0 -7.55 -7.02 0 0 7.55 7.02 0zm47.18 30.47c-0.26,-16.43 -5.77,-23.98 -15.64,-23.98 -9.24,0 -17.06,7.37 -17.06,23.81 0,11.46 4.18,22.48 16.71,22.48 6.3,0 12.61,-2.58 15.37,-12.8l-6.13 -1.42c-0.98,3.38 -2.67,8.8 -8.89,8.8 -10.3,0 -10.22,-13.06 -10.22,-16.89l25.86 0 0 0zm-25.5 -5.33c0.53,-6.22 2.49,-13.23 9.15,-13.23 6.93,0 8.98,6.66 8.98,13.23l-18.13 0 0 0zm65.13 -7.55c-0.89,-3.2 -3.2,-11.1 -13.86,-11.1 -10.04,0 -14.31,7.82 -14.31,13.06 0,2.4 0.8,4.62 2.13,6.48 2.14,3.11 5.16,4.27 12.62,6.58 3.91,1.25 8.53,2.67 8.53,7.55 0,3.11 -2.4,7.2 -8.71,7.2 -8.44,0 -9.68,-6.13 -10.12,-8.44l-6.05 1.33c0.72,3.29 2.58,12.53 15.73,12.53 11.11,0 15.9,-7.11 15.9,-13.42 0,-8.79 -7.81,-11.37 -13.41,-13.15 -7.2,-2.13 -10.22,-3.11 -10.22,-7.55 0,-3.2 2.4,-6.75 7.55,-6.75 6.04,0 7.82,5.24 8.53,7.11l5.69 -1.43 0 0z"></path>  </g> </g></svg>