<?xml version="1.0" encoding="UTF-8" standalone="no"?><!DOCTYPE svg PUBLIC "-//W3C//DTD SVG 1.1//EN" "http://www.w3.org/Graphics/SVG/1.1/DTD/svg11.dtd"><svg width="100%" height="100%" viewBox="0 0 144 36" version="1.1" xmlns="http://www.w3.org/2000/svg" xmlns:xlink="http://www.w3.org/1999/xlink" xml:space="preserve" xmlns:serif="http://www.serif.com/" style="fill-rule:evenodd;clip-rule:evenodd;stroke-linejoin:round;stroke-miterlimit:2;"><rect id="Artboard1" x="0" y="0" width="143.484" height="35.313" style="fill:none;"/><clipPath id="_clip1"><rect x="0" y="0" width="143.484" height="35.313"/></clipPath><g clip-path="url(#_clip1)"><rect id="Artboard2" x="-3.28" y="0.315" width="146.695" height="34.855" style="fill:none;"/><rect x="-4.028" y="-0.162" width="23.53" height="10.483" style="fill:#4eee3d;"/><rect x="-4.028" y="25.19" width="23.53" height="10.483" style="fill:#4eee3d;"/><rect x="21.279" y="25.19" width="23.53" height="10.483" style="fill:#4eee3d;"/><rect x="46.586" y="25.19" width="23.53" height="10.483" style="fill:#4eee3d;"/><rect x="71.893" y="25.19" width="23.53" height="10.483" style="fill:#4eee3d;"/><rect x="97.199" y="25.19" width="23.53" height="10.483" style="fill:#4eee3d;"/><rect x="122.506" y="25.19" width="23.53" height="10.483" style="fill:#4eee3d;"/><rect x="8.189" y="12.784" width="23.53" height="10.483" style="fill:#4eee3d;"/><rect x="33.06" y="12.784" width="23.53" height="10.483" style="fill:#4eee3d;"/><rect x="57.93" y="12.784" width="23.53" height="10.483" style="fill:#4eee3d;"/><rect x="82.801" y="12.784" width="23.53" height="10.483" style="fill:#4eee3d;"/><rect x="107.671" y="12.784" width="23.53" height="10.483" style="fill:#4eee3d;"/><rect x="-4.028" y="12.784" width="10.599" height="10.483" style="fill:#4eee3d;"/><rect x="133.04" y="12.784" width="12.719" height="10.483" style="fill:#4eee3d;"/><rect x="21.279" y="-0.162" width="23.53" height="10.483" style="fill:#4eee3d;"/><rect x="46.586" y="-0.162" width="23.53" height="10.483" style="fill:#4eee3d;"/><rect x="71.893" y="-0.162" width="23.53" height="10.483" style="fill:#4eee3d;"/><rect x="97.199" y="-0.162" width="23.53" height="10.483" style="fill:#4eee3d;"/><rect x="122.506" y="-0.162" width="23.53" height="10.483" style="fill:#4eee3d;"/></g></svg>