<?xml version="1.0" encoding="UTF-8" standalone="no"?><!DOCTYPE svg PUBLIC "-//W3C//DTD SVG 1.1//EN" "http://www.w3.org/Graphics/SVG/1.1/DTD/svg11.dtd"><svg width="100%" height="100%" viewBox="0 0 250 166" version="1.1" xmlns="http://www.w3.org/2000/svg" xmlns:xlink="http://www.w3.org/1999/xlink" xml:space="preserve" xmlns:serif="http://www.serif.com/" style="fill-rule:evenodd;clip-rule:evenodd;stroke-linejoin:round;stroke-miterlimit:2;"><rect id="Artboard1" x="0" y="0" width="249.681" height="165.677" style="fill:none;"/><path d="M118.337,70.276c12.551,6.745 12.551,6.745 15.733,12.632c0.835,5.806 0.835,5.806 0.576,7.992c-2.606,3.301 -4.719,3.893 -8.577,4.269c-6.693,0.431 -12.462,-1.183 -18.842,-3.283c-2.097,-0.662 -4.195,-1.319 -6.293,-1.973c-0.911,-0.297 -1.822,-0.593 -2.76,-0.898c-2.348,-0.774 -2.348,-0.774 -4.983,-0.378c0.071,0.989 0.142,1.978 0.216,2.997c3.69,1.135 7.381,2.264 11.073,3.393c1.561,0.48 1.561,0.48 3.154,0.97c12.7,4.161 12.7,4.161 25.588,2.386c2.548,-2.043 3.716,-3.608 5.064,-6.808c0.44,-5.861 -0.741,-9.913 -3.757,-14.742c-0.047,-0.66 -0.095,-1.319 -0.144,-1.998c-1.224,-0.553 -2.449,-1.105 -3.711,-1.674c-0.048,-0.659 -0.095,-1.319 -0.144,-1.998c4.523,-5.439 4.523,-5.439 6.774,-5.644c1.303,1.2 2.587,2.426 3.856,3.672c4.202,2.615 7.997,1.9 12.629,0.862c2.926,-1.522 5.452,-3.167 6.702,-6.643c1.784,-0.162 1.784,-0.162 3.647,1.554c0.657,0.645 1.315,1.291 1.992,1.956c3.233,2.011 4.467,1.876 8.077,1.528c0.918,-0.079 1.836,-0.157 2.781,-0.238c2.695,-0.515 4.612,-1.409 6.978,-2.913c-0.518,17.599 -1.046,34.319 -7.197,50.738c-5.1,13.848 -3.111,31.756 -2.605,46.996c-22.072,2.007 -44.802,-2.264 -67.543,-0.196c-3.135,-6.819 -6.265,-13.64 -9.367,-20.477c-5.481,-11.504 -12.835,-19.624 -21.767,-27.76c-6.158,-5.655 -9.07,-10.214 -9.915,-19.175c-0.317,-5.693 -0.222,-9.88 2.82,-14.586c4.815,-5.534 10.134,-10.471 16.007,-14.529c0.651,-0.474 1.302,-0.948 1.973,-1.436c11.075,-4.573 21.859,0.199 31.965,5.404Z" style="fill:#767676;fill-rule:nonzero;"/><path d="M22.116,22.782c8.243,-1.713 16.053,1.095 22.875,5.704c6.547,5.776 9.478,12.983 10.076,21.811c-0.452,7.945 -3.364,15.479 -8.971,21.159c-6.84,6.079 -14.825,7.464 -23.558,7.672c-3.26,-0.572 -5.89,-1.626 -8.778,-3.217c-0.946,-0.505 -0.946,-0.505 -1.911,-1.021c-4.167,-2.492 -6.189,-5.376 -8.653,-9.525c0.866,-0.14 0.866,-0.14 1.749,-0.284c2.625,-0.432 5.248,-0.879 7.872,-1.326c0.908,-0.147 1.816,-0.294 2.752,-0.446c0.877,-0.151 1.755,-0.303 2.659,-0.459c0.806,-0.135 1.613,-0.27 2.443,-0.409c2.545,-0.706 4.164,-1.587 6.228,-3.283c2.365,-4.62 2.18,-8.138 0.818,-13.051c-2.989,-3.167 -4.755,-4.468 -8.99,-5.348c-1.408,0.021 -2.817,0.087 -4.223,0.188c-0.796,0.054 -1.591,0.108 -2.411,0.164c-1.237,0.092 -1.237,0.092 -2.499,0.185c-0.837,0.058 -1.674,0.117 -2.537,0.177c-2.063,0.144 -4.127,0.294 -6.19,0.444c1.394,-3.943 2.839,-6.586 3.714,-8.088c1.258,-2.16 1.856,-2.333 3.823,-3.764c0.84,-0.328 0.877,-0.842 1.742,-1.18c0.807,-0.657 1.614,-1.315 2.445,-1.992c3.146,-2.379 5.816,-3.101 9.525,-4.111Z" style="fill:#787878;fill-rule:nonzero;"/><path d="M123.847,3.39c2.744,2.265 5.455,5.196 5.783,5.508c0.208,1.595 0.355,3.201 0.477,4.807c0.08,1.027 0.16,2.053 0.242,3.111c0.082,1.118 0.163,2.237 0.247,3.389c0.086,1.142 0.171,2.284 0.259,3.461c0.179,2.422 0.356,4.845 0.531,7.268c0.269,3.71 0.553,7.418 0.837,11.127c0.172,2.349 0.344,4.699 0.514,7.049c0.087,1.112 0.173,2.224 0.263,3.37c0.072,1.037 0.144,2.073 0.218,3.142c0.067,0.911 0.134,1.821 0.203,2.76c-0.048,2.667 -0.412,4.284 -1.54,6.624c-4.108,3.523 -4.108,3.523 -7.297,3.402c-2.464,-0.532 -4.492,-1.341 -6.776,-2.499c-0.724,-0.356 -1.449,-0.713 -2.196,-1.081c-1.783,-1.196 -1.783,-1.196 -2.891,-4.112c-0.21,-1.533 -0.373,-3.073 -0.506,-4.616c-0.082,-0.936 -0.164,-1.872 -0.248,-2.836c-0.349,-4.283 -0.695,-8.566 -1.024,-12.85c-0.178,-2.257 -0.365,-4.512 -0.562,-6.766c-0.284,-3.257 -0.539,-6.516 -0.787,-9.777c-0.093,-1.001 -0.185,-2.003 -0.281,-3.035c-0.463,-6.673 0.249,-10.119 3.904,-15.473c3.454,-2.906 6.449,-2.829 10.63,-1.973Z" style="fill:#767676;fill-rule:nonzero;"/><path d="M147.394,6.277c3.449,1.724 5.293,3.018 7.639,6.344c0.382,2.05 0.382,2.05 0.568,4.457c0.111,1.355 0.111,1.355 0.223,2.737c0.07,0.974 0.139,1.948 0.211,2.952c0.076,1.003 0.152,2.007 0.231,3.041c0.158,2.124 0.312,4.249 0.461,6.374c0.231,3.247 0.486,6.492 0.743,9.737c0.151,2.064 0.301,4.129 0.449,6.193c0.078,0.97 0.156,1.939 0.237,2.938c0.327,4.959 0.537,8.509 -2.124,12.766c-3.381,3.028 -7.232,3.357 -11.449,3.052c-3.384,-1.861 -5.112,-3.719 -6.819,-7.425c-0.402,-2.079 -0.402,-2.079 -0.603,-4.351c-0.079,-0.856 -0.158,-1.712 -0.24,-2.593c-0.074,-0.918 -0.147,-1.837 -0.224,-2.783c-0.118,-1.429 -0.118,-1.429 -0.239,-2.886c-0.162,-2.015 -0.319,-4.03 -0.471,-6.046c-0.239,-3.071 -0.516,-6.136 -0.794,-9.202c-0.153,-1.962 -0.304,-3.923 -0.452,-5.885c-0.088,-0.911 -0.176,-1.822 -0.266,-2.76c-0.386,-5.845 0.395,-8.986 3.733,-13.541c2.762,-3.117 5.351,-3.128 9.186,-3.119Z" style="fill:#767676;fill-rule:nonzero;"/><path d="M99.309,11.656c2.967,2.321 4.507,3.767 5.927,7.505c0.175,1.358 0.302,2.724 0.397,4.091c0.059,0.82 0.118,1.64 0.179,2.485c0.059,0.881 0.118,1.762 0.178,2.669c0.064,0.905 0.128,1.81 0.194,2.743c0.204,2.891 0.401,5.783 0.598,8.675c0.137,1.96 0.274,3.92 0.412,5.88c0.337,4.806 0.668,9.612 0.996,14.418c-5.869,-0.365 -5.869,-0.365 -8.651,-0.781c-2.525,-0.281 -4.858,-0.099 -7.383,0.165c-0.87,0.088 -1.739,0.177 -2.635,0.267c-0.656,0.072 -1.311,0.143 -1.987,0.216c-0.48,-5.431 -0.937,-10.863 -1.373,-16.299c-0.151,-1.847 -0.308,-3.694 -0.473,-5.54c-0.235,-2.66 -0.447,-5.32 -0.655,-7.983c-0.078,-0.82 -0.155,-1.639 -0.235,-2.484c-0.389,-5.369 0.225,-8.403 3.061,-12.975c3.18,-4.19 6.769,-3.898 11.45,-3.052Z" style="fill:#767676;fill-rule:nonzero;"/><path d="M174.941,14.833c2.744,2.264 5.455,5.195 5.783,5.507c0.677,5.148 1.103,10.321 1.531,15.502c0.15,1.743 0.312,3.485 0.487,5.225c0.253,2.513 0.463,5.026 0.666,7.543c0.085,0.772 0.171,1.544 0.259,2.339c0.233,3.388 0.272,5.473 -1.5,8.321c-2.607,3.029 -4.744,5.455 -8.663,5.659c-3.269,0.06 -3.946,-0.329 -6.802,-2.524c-0.649,-0.791 -1.299,-1.582 -1.968,-2.398c-0.318,-0.303 -0.636,-0.605 -0.964,-0.918c-0.316,-2.666 -0.574,-5.311 -0.79,-7.988c-0.065,-0.807 -0.131,-1.613 -0.198,-2.444c-0.136,-1.712 -0.269,-3.425 -0.4,-5.138c-0.203,-2.612 -0.431,-5.222 -0.659,-7.832c-0.129,-1.663 -0.257,-3.326 -0.383,-4.989c-0.107,-1.167 -0.107,-1.167 -0.217,-2.358c-0.258,-3.754 -0.142,-5.953 1.447,-9.313c3.648,-4.654 6.98,-5.298 12.371,-4.194Z" style="fill:#767676;fill-rule:nonzero;"/><path d="M232.667,8.45l-48.311,7.949l3.949,30.272l48.311,-7.95l-3.949,-30.271Z" style="fill:#767676;"/><path d="M229.356,38.017c2.399,0.932 4.996,1.165 7.531,0.674c7.971,-1.543 13.402,-9.727 12.121,-18.263c-1.281,-8.537 -8.793,-14.214 -16.763,-12.671c-2.535,0.491 -4.918,1.688 -6.91,3.47l4.021,26.79Z" style="fill:#767676;"/><path d="M45.995,30.868c11.796,-1.478 23.592,-2.955 35.745,-4.478c1.083,10.903 2.166,21.806 3.282,33.04c-5.533,2.682 -7.099,3.314 -13.05,4.004c-1.97,0.236 -1.97,0.236 -3.979,0.477c-2.037,0.228 -2.037,0.228 -4.115,0.461c-1.381,0.163 -2.762,0.327 -4.186,0.495c-3.4,0.401 -6.801,0.791 -10.203,1.173c0.259,-0.83 0.517,-1.659 0.783,-2.514c3.786,-13.214 2.539,-20.656 -4.277,-32.658Z" style="fill:#767676;fill-rule:nonzero;"/></svg>