<?xml version="1.0" encoding="UTF-8" standalone="no"?><!DOCTYPE svg PUBLIC "-//W3C//DTD SVG 1.1//EN" "http://www.w3.org/Graphics/SVG/1.1/DTD/svg11.dtd"><svg width="100%" height="100%" viewBox="0 0 618 157" version="1.1" xmlns="http://www.w3.org/2000/svg" xmlns:xlink="http://www.w3.org/1999/xlink" xml:space="preserve" xmlns:serif="http://www.serif.com/" style="fill-rule:evenodd;clip-rule:evenodd;stroke-linejoin:round;stroke-miterlimit:2;"><g id="Layer-1" serif:id="Layer 1"></g><rect id="Artboard1" x="-0" y="0" width="617.341" height="156.083" style="fill:none;"/><path d="M113.116,10.141l-14.794,9.213c32.018,0.844 53.782,-8.482 53.782,-8.482c-23.207,10.302 -47.708,11.231 -57.997,11.097l-17.627,10.969c-0,0 55.111,-1.249 90.191,-32.145c-0,0 -21.683,14.667 -53.555,9.348" style="fill:#d71920;fill-rule:nonzero;"/><path d="M179.416,32.738l-1.443,0c-0,0 0.653,0.886 -0.259,2.11l-12.219,15.167l1.469,-14.433c0.292,-1.855 1.897,-2.854 1.897,-2.854l-5.213,-0l-0,0.01l-13.153,0l-13.927,17.277l1.468,-14.343c0.004,-0.015 0.021,-0.031 0.023,-0.044c0.274,-1.872 1.9,-2.882 1.9,-2.882l-1.625,-0l0,-0.006l-16.741,-0.002l0,0.008c-0.875,-0.039 -42.828,-1.813 -49.112,8.398c2.583,-4.738 4.331,-8.196 4.444,-8.343l-30.452,0c0.317,0.086 1.998,0.918 1.428,2.365l0,0.003c-1.584,4.938 -5.453,16.383 -9.766,24.868c-5.657,11.104 -18.391,15.173 -27.132,18.006c-0.803,0.259 -0.677,0.801 0.162,0.807c21.505,0.121 39.161,-1.45 52.52,-22.57c3.097,-4.898 6.135,-10.256 8.519,-14.622c-0.152,0.323 -0.273,0.654 -0.367,1.013c-2.742,11.394 20.586,12.121 20.243,14.844c-0.31,2.401 -14.21,1.663 -23.378,-1.092c-0.049,-0.015 -0.086,-0.036 -0.121,-0.052c-1.762,-0.529 -2.505,-1.472 -2.505,-1.472l0.079,0.653l-0.008,-0.005c0,-0 0.012,0.044 0.019,0.099l0.37,3.039c0.368,3.206 0.853,7.718 0.853,7.718c0,-0 48.594,5.606 49.491,-8.809c0.673,-10.907 -22.729,-12.224 -22.471,-14.614c0.239,-2.242 11.631,-2.524 18.541,-1.587c0.019,0.006 0.036,0.011 0.058,0.011c3.089,0.446 3.525,1.971 3.525,1.971l0.507,-1.063l0.009,-0c0.006,-0.048 4.178,-8.755 4.542,-9.511l-3.138,30.571l0,0.001c-0.275,1.877 -1.9,2.891 -1.9,2.891l3.278,0l15.068,0.008l13.945,-17.301l-1.481,14.426c-0.283,1.86 -1.892,2.867 -1.892,2.867l1.602,0l0,0.005l16.749,-0.009l27.02,-33.52l-11.426,-0.002Z" style="fill:#14469e;fill-rule:nonzero;"/><path d="M25.767,120.739l-7.794,0l-11.858,-26.749l0.282,7.576l-0,19.173l-5.987,0l-0,-33.502l7.793,0l11.861,26.75l-0.283,-7.679l0,-19.071l5.986,0l-0,33.502Z" style="fill:#d71920;fill-rule:nonzero;"/><path d="M49.656,105.896c0,-1.168 -0.047,-2.191 -0.14,-3.067c-0.095,-0.876 -0.339,-1.589 -0.734,-2.14c-0.397,-0.549 -0.981,-0.961 -1.752,-1.236c-0.772,-0.275 -1.816,-0.413 -3.134,-0.413c-1.28,0 -2.316,0.129 -3.106,0.387c-0.79,0.258 -1.411,0.653 -1.863,1.185c-0.452,0.533 -0.755,1.237 -0.905,2.114c-0.15,0.876 -0.226,1.932 -0.226,3.17l11.86,-0Zm-5.76,10.772c1.13,-0 2.164,-0.018 3.107,-0.051c0.94,-0.034 1.826,-0.086 2.653,-0.155c0.828,-0.069 1.629,-0.155 2.4,-0.258c0.773,-0.103 1.553,-0.224 2.344,-0.361l-0,4.536c-1.468,0.275 -3.021,0.497 -4.658,0.669c-1.639,0.171 -3.455,0.258 -5.45,0.258c-2.072,-0 -3.898,-0.181 -5.478,-0.541c-1.582,-0.361 -2.9,-0.996 -3.953,-1.907c-1.055,-0.91 -1.845,-2.147 -2.373,-3.711c-0.528,-1.563 -0.79,-3.548 -0.79,-5.953l-0,-2.68c-0,-2.337 0.262,-4.278 0.79,-5.825c0.528,-1.545 1.298,-2.783 2.316,-3.71c1.016,-0.928 2.287,-1.589 3.812,-1.985c1.524,-0.394 3.283,-0.592 5.28,-0.592c1.883,-0 3.558,0.189 5.026,0.566c1.468,0.379 2.712,1.031 3.728,1.959c1.016,0.928 1.787,2.165 2.316,3.71c0.525,1.547 0.791,3.506 0.791,5.877l-0,3.298l-17.961,0c0,1.307 0.094,2.39 0.282,3.248c0.189,0.859 0.518,1.563 0.989,2.113c0.471,0.55 1.092,0.937 1.865,1.159c0.771,0.224 1.759,0.336 2.964,0.336" style="fill:#d71920;fill-rule:nonzero;"/><path d="M78.797,106.514c0,-1.477 -0.105,-2.706 -0.311,-3.685c-0.207,-0.98 -0.545,-1.744 -1.016,-2.295c-0.471,-0.548 -1.111,-0.935 -1.92,-1.159c-0.811,-0.223 -1.798,-0.334 -2.965,-0.334c-1.205,-0 -2.202,0.111 -2.992,0.334c-0.792,0.224 -1.423,0.611 -1.893,1.159c-0.473,0.551 -0.811,1.315 -1.018,2.295c-0.206,0.979 -0.309,2.208 -0.309,3.685l-0,2.681c-0,1.511 0.103,2.749 0.309,3.71c0.207,0.963 0.545,1.718 1.018,2.267c0.47,0.551 1.101,0.938 1.893,1.16c0.79,0.224 1.787,0.336 2.992,0.336c1.167,0 2.154,-0.112 2.965,-0.336c0.809,-0.222 1.449,-0.609 1.92,-1.16c0.471,-0.549 0.809,-1.304 1.016,-2.267c0.206,-0.961 0.311,-2.199 0.311,-3.71l0,-2.681Zm6.099,2.681c-0,2.301 -0.245,4.225 -0.734,5.771c-0.489,1.548 -1.242,2.793 -2.258,3.738c-1.018,0.945 -2.297,1.614 -3.841,2.009c-1.545,0.394 -3.371,0.593 -5.478,0.593c-2.109,0 -3.935,-0.199 -5.478,-0.593c-1.544,-0.395 -2.825,-1.064 -3.841,-2.009c-1.016,-0.945 -1.769,-2.19 -2.26,-3.738c-0.488,-1.546 -0.734,-3.47 -0.734,-5.771l0,-2.681c0,-2.303 0.255,-4.227 0.763,-5.772c0.508,-1.547 1.271,-2.792 2.288,-3.737c1.016,-0.945 2.296,-1.615 3.84,-2.011c1.543,-0.395 3.35,-0.592 5.422,-0.592c2.07,-0 3.877,0.197 5.422,0.592c1.543,0.396 2.823,1.066 3.84,2.011c1.017,0.945 1.78,2.19 2.288,3.737c0.507,1.545 0.761,3.469 0.761,5.772l-0,2.681Z" style="fill:#d71920;fill-rule:nonzero;"/><path d="M112.964,113.394c0,1.035 -0.103,2.026 -0.311,2.973c-0.206,0.95 -0.704,1.786 -1.496,2.508c-0.791,0.725 -1.977,1.311 -3.557,1.758c-1.583,0.448 -3.728,0.673 -6.439,0.673c-2.297,0 -4.202,-0.181 -5.717,-0.542c-1.514,-0.36 -2.716,-0.9 -3.608,-1.623c-0.893,-0.721 -1.521,-1.605 -1.88,-2.654c-0.362,-1.048 -0.543,-2.259 -0.543,-3.633l6.101,-0c-0,0.687 0.074,1.272 0.224,1.751c0.15,0.482 0.441,0.877 0.871,1.187c0.431,0.309 1.011,0.533 1.742,0.67c0.73,0.137 1.658,0.206 2.783,0.206c1.198,0 2.172,-0.069 2.92,-0.206c0.75,-0.137 1.331,-0.343 1.742,-0.618c0.413,-0.276 0.684,-0.612 0.817,-1.006c0.13,-0.394 0.196,-0.867 0.196,-1.418c0,-0.584 -0.076,-1.09 -0.226,-1.52c-0.151,-0.43 -0.472,-0.79 -0.961,-1.082c-0.488,-0.292 -1.168,-0.533 -2.032,-0.721c-0.866,-0.189 -1.997,-0.336 -3.389,-0.439c-2.034,-0.137 -3.718,-0.387 -5.055,-0.747c-1.337,-0.361 -2.4,-0.842 -3.19,-1.443c-0.79,-0.601 -1.347,-1.341 -1.666,-2.217c-0.322,-0.877 -0.481,-1.898 -0.481,-3.067c-0,-2.68 0.969,-4.646 2.909,-5.901c1.939,-1.254 4.696,-1.881 8.273,-1.881c4.067,-0 6.975,0.643 8.726,1.932c1.751,1.289 2.626,3.479 2.626,6.572l-6.077,0c0,-0.516 -0.057,-1.014 -0.169,-1.494c-0.115,-0.481 -0.359,-0.894 -0.733,-1.238c-0.376,-0.343 -0.911,-0.618 -1.604,-0.824c-0.694,-0.206 -1.604,-0.309 -2.73,-0.309c-1.913,-0 -3.247,0.256 -3.997,0.767c-0.75,0.511 -1.124,1.313 -1.124,2.404c0,1.091 0.366,1.918 1.102,2.48c0.733,0.563 2.192,0.912 4.375,1.049c2.335,0.172 4.256,0.432 5.762,0.776c1.505,0.344 2.691,0.809 3.559,1.396c0.864,0.587 1.457,1.328 1.777,2.224c0.319,0.896 0.48,1.983 0.48,3.257" style="fill:#d71920;fill-rule:nonzero;"/><path d="M132.391,120.739c-0.565,0.171 -1.299,0.309 -2.204,0.413c-0.903,0.103 -1.75,0.154 -2.54,0.154c-2.674,0 -4.557,-0.601 -5.649,-1.803c-1.091,-1.203 -1.636,-3.023 -1.636,-5.465l-0,-14.431l-4.011,0l0,-3.865l4.011,-0.773l-0,-6.031l6.099,-1.185l0,7.216l5.93,-0l-0,4.638l-5.93,0l0,14.483c0,0.791 0.198,1.418 0.592,1.882c0.396,0.463 1.083,0.696 2.062,0.696c0.753,0 1.384,-0.052 1.892,-0.154c0.507,-0.104 0.969,-0.189 1.384,-0.258l-0,4.483Z" style="fill:#d71920;fill-rule:nonzero;"/><path d="M154.472,105.896c-0,-1.168 -0.047,-2.191 -0.14,-3.067c-0.095,-0.876 -0.339,-1.589 -0.735,-2.14c-0.396,-0.549 -0.98,-0.961 -1.751,-1.236c-0.772,-0.275 -1.816,-0.413 -3.134,-0.413c-1.28,0 -2.316,0.129 -3.106,0.387c-0.791,0.258 -1.412,0.653 -1.863,1.185c-0.452,0.533 -0.755,1.237 -0.905,2.114c-0.151,0.876 -0.226,1.932 -0.226,3.17l11.86,-0Zm-5.76,10.772c1.129,-0 2.164,-0.018 3.107,-0.051c0.94,-0.034 1.825,-0.086 2.653,-0.155c0.827,-0.069 1.629,-0.155 2.4,-0.258c0.773,-0.103 1.553,-0.224 2.343,-0.361l0,4.536c-1.467,0.275 -3.02,0.497 -4.657,0.669c-1.639,0.171 -3.455,0.258 -5.451,0.258c-2.071,-0 -3.897,-0.181 -5.477,-0.541c-1.583,-0.361 -2.901,-0.996 -3.954,-1.907c-1.054,-0.91 -1.845,-2.147 -2.372,-3.711c-0.528,-1.563 -0.791,-3.548 -0.791,-5.953l0,-2.68c0,-2.337 0.263,-4.278 0.791,-5.825c0.527,-1.545 1.298,-2.783 2.316,-3.71c1.016,-0.928 2.287,-1.589 3.811,-1.985c1.525,-0.394 3.284,-0.592 5.281,-0.592c1.883,-0 3.558,0.189 5.026,0.566c1.468,0.379 2.712,1.031 3.728,1.959c1.015,0.928 1.787,2.165 2.316,3.71c0.525,1.547 0.79,3.506 0.79,5.877l0,3.298l-17.96,0c0,1.307 0.093,2.39 0.282,3.248c0.189,0.859 0.518,1.563 0.989,2.113c0.471,0.55 1.092,0.937 1.865,1.159c0.77,0.224 1.759,0.336 2.964,0.336" style="fill:#d71920;fill-rule:nonzero;"/><path d="M183.331,105.896c-0,-1.168 -0.047,-2.191 -0.141,-3.067c-0.095,-0.876 -0.338,-1.589 -0.734,-2.14c-0.396,-0.549 -0.98,-0.961 -1.751,-1.236c-0.773,-0.275 -1.816,-0.413 -3.134,-0.413c-1.28,0 -2.316,0.129 -3.106,0.387c-0.791,0.258 -1.412,0.653 -1.863,1.185c-0.452,0.533 -0.755,1.237 -0.906,2.114c-0.15,0.876 -0.225,1.932 -0.225,3.17l11.86,-0Zm-5.76,10.772c1.129,-0 2.164,-0.018 3.106,-0.051c0.941,-0.034 1.826,-0.086 2.654,-0.155c0.827,-0.069 1.629,-0.155 2.4,-0.258c0.773,-0.103 1.553,-0.224 2.343,-0.361l0,4.536c-1.467,0.275 -3.021,0.497 -4.657,0.669c-1.64,0.171 -3.456,0.258 -5.451,0.258c-2.071,-0 -3.897,-0.181 -5.478,-0.541c-1.582,-0.361 -2.9,-0.996 -3.953,-1.907c-1.054,-0.91 -1.845,-2.147 -2.372,-3.711c-0.528,-1.563 -0.791,-3.548 -0.791,-5.953l0,-2.68c0,-2.337 0.263,-4.278 0.791,-5.825c0.527,-1.545 1.298,-2.783 2.316,-3.71c1.016,-0.928 2.287,-1.589 3.811,-1.985c1.525,-0.394 3.284,-0.592 5.281,-0.592c1.882,-0 3.558,0.189 5.026,0.566c1.468,0.379 2.712,1.031 3.727,1.959c1.016,0.928 1.787,2.165 2.317,3.71c0.525,1.547 0.79,3.506 0.79,5.877l0,3.298l-17.96,0c0,1.307 0.093,2.39 0.282,3.248c0.189,0.859 0.517,1.563 0.989,2.113c0.471,0.55 1.092,0.937 1.865,1.159c0.77,0.224 1.759,0.336 2.964,0.336" style="fill:#d71920;fill-rule:nonzero;"/><rect x="195.078" y="86.207" width="6.099" height="34.532" style="fill:#d71920;"/><path d="M26.467,146.245c0.714,-0 1.318,-0.052 1.808,-0.155c0.49,-0.103 0.891,-0.284 1.202,-0.542c0.311,-0.258 0.532,-0.606 0.664,-1.045c0.13,-0.437 0.198,-0.992 0.198,-1.663c0,-0.723 -0.075,-1.307 -0.227,-1.755c-0.15,-0.445 -0.381,-0.799 -0.692,-1.057c-0.311,-0.257 -0.711,-0.429 -1.202,-0.517c-0.49,-0.085 -1.083,-0.128 -1.78,-0.128l-3.591,0l0,6.862l3.62,-0Zm-5.881,-8.668l5.825,0c1.072,0 2.001,0.079 2.784,0.233c0.78,0.155 1.432,0.43 1.949,0.824c0.518,0.397 0.905,0.934 1.16,1.614c0.253,0.678 0.381,1.544 0.381,2.592c-0,0.964 -0.123,1.772 -0.368,2.424c-0.245,0.655 -0.621,1.184 -1.131,1.587c-0.507,0.405 -1.155,0.697 -1.935,0.878c-0.782,0.18 -1.71,0.27 -2.784,0.27l-3.62,0l0,6.346l-2.261,-0l0,-16.768Z" style="fill:#14469e;fill-rule:nonzero;"/><path d="M83.31,139.384l-4.635,-0l-0,-1.806l11.533,-0l-0,1.806l-4.637,-0l0,14.961l-2.261,0l0,-14.961Z" style="fill:#14469e;fill-rule:nonzero;"/><path d="M106.969,140.156l-4.986,14.189l-1.898,-0l-4.987,-14.189l-0,14.189l-2.205,-0l-0,-16.768l3.301,0l4.825,13.905l0.029,-0l4.826,-13.905l3.3,0l-0,16.768l-2.205,-0l-0,-14.189Z" style="fill:#14469e;fill-rule:nonzero;"/><path d="M116.523,139.384l-4.636,-0l0,-1.806l11.534,-0l0,1.806l-4.637,-0l-0,14.961l-2.261,0l-0,-14.961Z" style="fill:#14469e;fill-rule:nonzero;"/><path d="M138.67,152.539c1.352,-0 2.305,-0.218 2.858,-0.657c0.555,-0.438 0.831,-1.183 0.831,-2.231c-0,-1.05 -0.305,-1.802 -0.915,-2.258c-0.611,-0.455 -1.507,-0.683 -2.69,-0.683l-4.168,0l0,5.829l4.084,-0Zm-4.084,-13.155l0,5.571l4.128,-0c1.11,-0 1.911,-0.249 2.401,-0.748c0.491,-0.499 0.736,-1.186 0.736,-2.063c-0,-1.015 -0.274,-1.729 -0.82,-2.142c-0.547,-0.413 -1.451,-0.618 -2.715,-0.618l-3.73,-0Zm-2.262,-1.807l5.965,0c2.11,0 3.613,0.341 4.508,1.019c0.896,0.68 1.342,1.784 1.342,3.315c0,0.98 -0.252,1.802 -0.753,2.464c-0.504,0.663 -1.174,1.113 -2.008,1.355c1.164,0.293 2.006,0.769 2.524,1.432c0.516,0.66 0.774,1.533 0.774,2.617c0,1.634 -0.479,2.804 -1.437,3.509c-0.959,0.705 -2.462,1.057 -4.513,1.057l-6.402,-0l0,-16.768Z" style="fill:#14469e;fill-rule:nonzero;"/><path d="M45.574,154.345l-0.508,-1.286c-0.753,0.523 -1.484,0.912 -2.191,1.165c-0.706,0.252 -1.532,0.38 -2.474,0.38c-0.809,0 -1.508,-0.078 -2.092,-0.233c-0.584,-0.154 -1.06,-0.409 -1.427,-0.761c-0.367,-0.352 -0.641,-0.817 -0.82,-1.393c-0.178,-0.576 -0.268,-1.294 -0.268,-2.154l0,-8.615l2.205,-0l0,8.596c0,0.567 0.06,1.033 0.184,1.402c0.121,0.371 0.3,0.661 0.537,0.875c0.236,0.215 0.54,0.365 0.919,0.45c0.377,0.087 0.819,0.13 1.328,0.13c0.678,0 1.352,-0.116 2.021,-0.347c0.668,-0.232 1.286,-0.554 1.852,-0.966l-0,-10.14l2.205,-0l-0,12.897l-1.471,0Z" style="fill:#14469e;fill-rule:nonzero;"/><path d="M56.853,143.046c-0.885,-0 -1.626,0.108 -2.22,0.323c-0.593,0.216 -1.162,0.554 -1.709,1.019l-0,9.957l-2.205,-0l-0,-12.898l1.47,0l0.509,1.264c0.603,-0.482 1.234,-0.856 1.894,-1.123c0.66,-0.266 1.413,-0.4 2.261,-0.4l0,1.858Z" style="fill:#14469e;fill-rule:nonzero;"/><path d="M68.273,147.122c-0,-0.786 -0.047,-1.449 -0.142,-1.987c-0.094,-0.539 -0.268,-0.975 -0.523,-1.307c-0.254,-0.333 -0.608,-0.573 -1.06,-0.719c-0.451,-0.144 -1.045,-0.217 -1.78,-0.217c-0.716,-0 -1.315,0.069 -1.795,0.205c-0.481,0.138 -0.862,0.371 -1.146,0.706c-0.281,0.332 -0.48,0.768 -0.593,1.307c-0.113,0.539 -0.17,1.209 -0.17,2.012l7.209,-0Zm-3.336,5.779c1.018,0 1.908,-0.047 2.671,-0.142c0.763,-0.095 1.504,-0.21 2.22,-0.348l-0,1.721c-0.66,0.139 -1.396,0.253 -2.205,0.341c-0.812,0.087 -1.715,0.131 -2.715,0.131c-1.016,0 -1.903,-0.086 -2.656,-0.259c-0.753,-0.171 -1.381,-0.482 -1.879,-0.928c-0.501,-0.447 -0.878,-1.058 -1.131,-1.832c-0.255,-0.774 -0.382,-1.771 -0.382,-2.993l-0,-1.392c-0,-1.187 0.122,-2.166 0.367,-2.941c0.246,-0.774 0.617,-1.388 1.116,-1.844c0.501,-0.457 1.117,-0.774 1.853,-0.956c0.735,-0.179 1.591,-0.271 2.572,-0.271c0.961,0 1.795,0.092 2.501,0.271c0.707,0.182 1.3,0.495 1.781,0.942c0.481,0.448 0.839,1.059 1.074,1.831c0.236,0.774 0.354,1.755 0.354,2.941l-0,1.498l-9.414,-0c0,0.837 0.062,1.529 0.184,2.077c0.123,0.545 0.334,0.978 0.636,1.293c0.302,0.317 0.701,0.539 1.202,0.667c0.499,0.128 1.115,0.193 1.851,0.193" style="fill:#14469e;fill-rule:nonzero;"/><path d="M152.065,152.926c0.909,0 1.674,-0.119 2.3,-0.361c0.625,-0.24 1.249,-0.61 1.873,-1.109l0,-3.172l-4.569,0.438c-0.852,0.085 -1.481,0.296 -1.888,0.632c-0.406,0.335 -0.609,0.829 -0.609,1.484c-0,0.722 0.245,1.251 0.737,1.586c0.491,0.334 1.211,0.502 2.156,0.502m-5.098,-1.986c-0,-1.117 0.367,-1.99 1.101,-2.618c0.736,-0.627 1.867,-0.985 3.393,-1.07l4.777,-0.284l0,-1.548c0,-0.447 -0.047,-0.83 -0.142,-1.147c-0.093,-0.319 -0.263,-0.582 -0.508,-0.788c-0.245,-0.207 -0.579,-0.357 -1.003,-0.451c-0.425,-0.095 -0.956,-0.142 -1.597,-0.142c-1.187,-0 -2.026,0.181 -2.516,0.541c-0.49,0.362 -0.735,0.98 -0.735,1.858l-2.205,-0c-0,-0.774 0.122,-1.424 0.367,-1.948c0.245,-0.524 0.599,-0.946 1.06,-1.264c0.461,-0.318 1.032,-0.546 1.712,-0.683c0.677,-0.138 1.449,-0.207 2.317,-0.207c0.998,-0 1.841,0.077 2.529,0.232c0.687,0.154 1.248,0.401 1.683,0.736c0.431,0.334 0.748,0.769 0.946,1.302c0.199,0.533 0.297,1.187 0.297,1.961l0,8.925l-1.47,0l-0.509,-1.263c-0.697,0.499 -1.398,0.88 -2.105,1.147c-0.708,0.266 -1.522,0.4 -2.446,0.4c-1.62,0 -2.851,-0.309 -3.688,-0.929c-0.839,-0.618 -1.258,-1.538 -1.258,-2.76" style="fill:#14469e;fill-rule:nonzero;"/><path d="M167.967,143.046c-0.885,-0 -1.624,0.108 -2.218,0.323c-0.593,0.216 -1.164,0.554 -1.711,1.019l0,9.957l-2.205,-0l0,-12.898l1.472,0l0.508,1.264c0.603,-0.482 1.233,-0.856 1.893,-1.123c0.66,-0.266 1.415,-0.4 2.261,-0.4l0,1.858Z" style="fill:#14469e;fill-rule:nonzero;"/><path d="M181.423,150.759c-0,0.517 -0.061,1.012 -0.183,1.484c-0.124,0.473 -0.382,0.882 -0.777,1.225c-0.397,0.344 -0.976,0.619 -1.739,0.825c-0.762,0.207 -1.786,0.311 -3.067,0.311c-1.112,0 -2.031,-0.091 -2.755,-0.272c-0.726,-0.18 -1.301,-0.442 -1.725,-0.786c-0.424,-0.345 -0.721,-0.765 -0.89,-1.264c-0.171,-0.498 -0.255,-1.067 -0.255,-1.702l2.205,-0c-0,0.408 0.051,0.757 0.154,1.044c0.104,0.291 0.288,0.533 0.552,0.728c0.263,0.196 0.612,0.337 1.046,0.421c0.433,0.085 0.99,0.128 1.668,0.128c0.772,0 1.395,-0.052 1.865,-0.153c0.472,-0.103 0.834,-0.245 1.09,-0.424c0.252,-0.179 0.419,-0.402 0.493,-0.667c0.076,-0.265 0.114,-0.568 0.114,-0.91c0,-0.343 -0.052,-0.637 -0.156,-0.884c-0.103,-0.249 -0.297,-0.458 -0.579,-0.628c-0.282,-0.171 -0.664,-0.309 -1.145,-0.411c-0.481,-0.102 -1.098,-0.18 -1.852,-0.231c-0.962,-0.068 -1.771,-0.189 -2.431,-0.361c-0.66,-0.172 -1.196,-0.405 -1.611,-0.696c-0.415,-0.293 -0.711,-0.65 -0.89,-1.072c-0.179,-0.421 -0.268,-0.925 -0.268,-1.509c0,-1.323 0.481,-2.283 1.44,-2.876c0.962,-0.594 2.281,-0.89 3.959,-0.89c1.902,-0 3.278,0.31 4.127,0.928c0.847,0.62 1.271,1.66 1.271,3.122l-2.205,0c0,-0.378 -0.047,-0.713 -0.14,-1.006c-0.095,-0.292 -0.265,-0.538 -0.51,-0.735c-0.245,-0.197 -0.574,-0.349 -0.988,-0.452c-0.415,-0.103 -0.934,-0.154 -1.555,-0.154c-1.057,-0 -1.852,0.154 -2.389,0.465c-0.537,0.309 -0.805,0.842 -0.805,1.598c0,0.723 0.248,1.242 0.748,1.56c0.498,0.32 1.371,0.522 2.615,0.607c1.111,0.087 2.026,0.21 2.742,0.374c0.716,0.165 1.286,0.387 1.709,0.671c0.425,0.284 0.717,0.636 0.878,1.059c0.159,0.42 0.239,0.931 0.239,1.533" style="fill:#14469e;fill-rule:nonzero;"/><g id="Layer-11" serif:id="Layer 1"><path d="M355.939,132.548c0.696,-0 1.282,-0.059 1.758,-0.177c0.476,-0.119 0.866,-0.325 1.168,-0.621c0.301,-0.296 0.517,-0.696 0.644,-1.197c0.129,-0.503 0.193,-1.139 0.193,-1.908c-0,-0.827 -0.073,-1.497 -0.219,-2.009c-0.148,-0.513 -0.372,-0.917 -0.673,-1.212c-0.302,-0.296 -0.692,-0.493 -1.167,-0.592c-0.477,-0.098 -1.053,-0.148 -1.731,-0.148l-3.489,0l0,7.864l3.516,-0Zm-5.713,-9.933l5.659,-0c1.043,-0 1.944,0.089 2.705,0.266c0.76,0.178 1.391,0.493 1.895,0.946c0.504,0.454 0.879,1.07 1.126,1.847c0.248,0.779 0.371,1.77 0.371,2.971c-0,1.105 -0.119,2.031 -0.357,2.78c-0.238,0.749 -0.605,1.355 -1.098,1.818c-0.495,0.463 -1.123,0.798 -1.883,1.005c-0.759,0.207 -1.661,0.311 -2.705,0.311l-3.516,-0l0,7.272l-2.197,0l0,-19.216Z" style="fill:#14469e;fill-rule:nonzero;"/><path d="M374.507,141.831l-0.494,-1.475c-0.733,0.6 -1.442,1.046 -2.13,1.336c-0.686,0.289 -1.487,0.434 -2.403,0.434c-0.787,0 -1.465,-0.089 -2.032,-0.266c-0.568,-0.177 -1.03,-0.468 -1.387,-0.872c-0.358,-0.403 -0.623,-0.935 -0.797,-1.596c-0.173,-0.66 -0.261,-1.483 -0.261,-2.469l-0,-9.874l2.142,0l0,9.852c0,0.649 0.06,1.185 0.179,1.607c0.119,0.424 0.293,0.758 0.522,1.003c0.228,0.247 0.526,0.419 0.894,0.517c0.365,0.098 0.796,0.147 1.29,0.147c0.659,0 1.314,-0.132 1.964,-0.398c0.65,-0.265 1.25,-0.634 1.798,-1.105l-0,-11.623l2.143,0l-0,14.782l-1.428,0Z" style="fill:#14469e;fill-rule:nonzero;"/><path d="M385.466,128.882c-0.861,-0 -1.58,0.124 -2.157,0.37c-0.576,0.247 -1.13,0.635 -1.661,1.167l-0,11.412l-2.143,-0l-0,-14.782l1.43,0l0.493,1.449c0.586,-0.551 1.199,-0.98 1.841,-1.286c0.641,-0.305 1.373,-0.458 2.197,-0.458l-0,2.128Z" style="fill:#14469e;fill-rule:nonzero;"/><path d="M396.562,133.553c0,-0.901 -0.046,-1.66 -0.138,-2.277c-0.09,-0.617 -0.26,-1.116 -0.508,-1.498c-0.246,-0.382 -0.59,-0.657 -1.029,-0.823c-0.44,-0.167 -1.016,-0.25 -1.73,-0.25c-0.696,0 -1.278,0.079 -1.745,0.235c-0.467,0.157 -0.838,0.426 -1.113,0.809c-0.274,0.381 -0.466,0.881 -0.576,1.498c-0.11,0.617 -0.165,1.386 -0.165,2.306l7.004,0Zm-3.241,6.622c0.989,0 1.854,-0.054 2.595,-0.162c0.742,-0.108 1.462,-0.241 2.157,-0.399l0,1.973c-0.641,0.159 -1.356,0.29 -2.142,0.39c-0.788,0.099 -1.666,0.15 -2.637,0.15c-0.989,-0 -1.851,-0.099 -2.583,-0.296c-0.731,-0.197 -1.341,-0.552 -1.825,-1.064c-0.486,-0.512 -0.852,-1.213 -1.1,-2.099c-0.247,-0.887 -0.37,-2.03 -0.37,-3.43l-0,-1.596c-0,-1.36 0.119,-2.483 0.357,-3.37c0.238,-0.887 0.599,-1.592 1.084,-2.114c0.486,-0.522 1.086,-0.887 1.8,-1.094c0.714,-0.207 1.546,-0.31 2.5,-0.31c0.934,0 1.744,0.103 2.43,0.31c0.687,0.207 1.263,0.568 1.73,1.079c0.467,0.513 0.816,1.213 1.044,2.1c0.229,0.886 0.344,2.009 0.344,3.369l-0,1.715l-9.147,0c-0,0.96 0.06,1.754 0.178,2.381c0.12,0.626 0.325,1.121 0.619,1.483c0.292,0.362 0.681,0.617 1.167,0.764c0.485,0.147 1.085,0.22 1.799,0.22" style="fill:#14469e;fill-rule:nonzero;"/><path d="M411.174,124.684l-4.504,0l0,-2.069l11.206,-0l0,2.069l-4.505,0l0,17.147l-2.197,0l0,-17.147Z" style="fill:#14469e;fill-rule:nonzero;"/><path d="M434.164,125.571l-4.846,16.26l-1.845,-0l-4.845,-16.26l0,16.26l-2.142,-0l-0,-19.216l3.207,-0l4.689,15.935l0.027,-0l4.689,-15.935l3.208,-0l0,19.216l-2.142,-0l-0,-16.26Z" style="fill:#14469e;fill-rule:nonzero;"/><path d="M443.448,124.684l-4.505,0l-0,-2.069l11.207,-0l-0,2.069l-4.505,0l-0,17.147l-2.197,0l-0,-17.147Z" style="fill:#14469e;fill-rule:nonzero;"/><path d="M464.966,139.762c1.314,-0 2.24,-0.251 2.778,-0.754c0.539,-0.503 0.807,-1.354 0.807,-2.558c0,-1.202 -0.296,-2.064 -0.889,-2.586c-0.593,-0.523 -1.464,-0.784 -2.613,-0.784l-4.051,0l-0,6.682l3.968,-0Zm-3.968,-15.078l-0,6.386l4.011,0c1.079,0 1.857,-0.286 2.334,-0.857c0.476,-0.572 0.714,-1.361 0.714,-2.365c0,-1.164 -0.265,-1.982 -0.797,-2.455c-0.531,-0.472 -1.41,-0.709 -2.637,-0.709l-3.625,0Zm-2.198,-2.069l5.796,-0c2.05,-0 3.511,0.389 4.381,1.167c0.87,0.779 1.305,2.046 1.305,3.799c-0,1.124 -0.245,2.065 -0.734,2.823c-0.489,0.76 -1.139,1.278 -1.951,1.553c1.133,0.336 1.95,0.881 2.453,1.641c0.502,0.758 0.753,1.758 0.753,3c0,1.873 -0.466,3.213 -1.397,4.021c-0.932,0.808 -2.393,1.212 -4.385,1.212l-6.221,0l-0,-19.216Z" style="fill:#14469e;fill-rule:nonzero;"/><path d="M477.983,140.205c0.883,-0 1.628,-0.138 2.234,-0.414c0.607,-0.275 1.214,-0.7 1.82,-1.271l0,-3.637l-4.439,0.503c-0.828,0.099 -1.439,0.34 -1.835,0.725c-0.395,0.384 -0.592,0.951 -0.592,1.7c-0,0.828 0.238,1.433 0.716,1.818c0.478,0.383 1.177,0.576 2.096,0.576m-4.955,-2.277c0,-1.28 0.358,-2.28 1.071,-3c0.715,-0.719 1.813,-1.128 3.297,-1.227l4.641,-0.325l0,-1.774c0,-0.512 -0.045,-0.951 -0.137,-1.315c-0.091,-0.365 -0.256,-0.665 -0.494,-0.902c-0.238,-0.237 -0.563,-0.409 -0.975,-0.517c-0.413,-0.108 -0.929,-0.163 -1.552,-0.163c-1.153,0 -1.969,0.207 -2.445,0.62c-0.476,0.415 -0.714,1.124 -0.714,2.129l-2.142,0c-0,-0.887 0.118,-1.631 0.356,-2.232c0.238,-0.601 0.582,-1.083 1.031,-1.449c0.449,-0.363 1.002,-0.625 1.662,-0.783c0.658,-0.157 1.409,-0.236 2.252,-0.236c0.97,0 1.789,0.088 2.458,0.265c0.668,0.177 1.212,0.459 1.635,0.843c0.42,0.385 0.727,0.882 0.919,1.493c0.194,0.611 0.289,1.36 0.289,2.247l0,10.229l-1.428,0l-0.495,-1.448c-0.678,0.572 -1.359,1.009 -2.046,1.315c-0.687,0.305 -1.479,0.459 -2.376,0.459c-1.575,-0 -2.77,-0.355 -3.584,-1.065c-0.815,-0.709 -1.223,-1.764 -1.223,-3.164" style="fill:#14469e;fill-rule:nonzero;"/><path d="M493.436,128.882c-0.861,-0 -1.58,0.124 -2.157,0.37c-0.576,0.247 -1.13,0.635 -1.661,1.167l0,11.412l-2.142,-0l-0,-14.782l1.428,0l0.494,1.449c0.585,-0.551 1.2,-0.98 1.841,-1.286c0.64,-0.305 1.373,-0.458 2.197,-0.458l0,2.128Z" style="fill:#14469e;fill-rule:nonzero;"/><path d="M506.509,137.722c0,0.591 -0.059,1.158 -0.178,1.699c-0.119,0.543 -0.371,1.011 -0.755,1.405c-0.385,0.395 -0.948,0.71 -1.689,0.946c-0.742,0.236 -1.735,0.355 -2.981,0.355c-1.08,-0 -1.973,-0.104 -2.677,-0.311c-0.705,-0.207 -1.264,-0.507 -1.676,-0.902c-0.412,-0.394 -0.7,-0.876 -0.865,-1.448c-0.165,-0.571 -0.247,-1.222 -0.247,-1.951l2.142,0c0,0.468 0.05,0.867 0.15,1.198c0.101,0.332 0.28,0.61 0.537,0.834c0.256,0.224 0.595,0.386 1.015,0.482c0.422,0.098 0.963,0.146 1.621,0.146c0.751,0 1.356,-0.058 1.813,-0.175c0.458,-0.118 0.811,-0.28 1.059,-0.485c0.245,-0.206 0.406,-0.461 0.479,-0.765c0.074,-0.304 0.11,-0.651 0.11,-1.043c0,-0.392 -0.05,-0.729 -0.15,-1.013c-0.101,-0.285 -0.289,-0.525 -0.564,-0.721c-0.274,-0.196 -0.645,-0.353 -1.112,-0.469c-0.467,-0.118 -1.067,-0.207 -1.799,-0.266c-0.935,-0.078 -1.721,-0.216 -2.363,-0.413c-0.641,-0.197 -1.162,-0.463 -1.565,-0.798c-0.403,-0.335 -0.691,-0.745 -0.865,-1.228c-0.174,-0.483 -0.261,-1.059 -0.261,-1.729c-0,-1.517 0.467,-2.616 1.4,-3.297c0.934,-0.679 2.216,-1.019 3.847,-1.019c1.848,0 3.185,0.354 4.009,1.064c0.824,0.709 1.236,1.902 1.236,3.578l-2.142,-0c-0,-0.434 -0.046,-0.818 -0.138,-1.153c-0.091,-0.335 -0.256,-0.616 -0.494,-0.843c-0.238,-0.227 -0.558,-0.399 -0.96,-0.518c-0.404,-0.118 -0.908,-0.177 -1.511,-0.177c-1.028,0 -1.8,0.177 -2.322,0.532c-0.522,0.355 -0.782,0.966 -0.782,1.833c-0,0.828 0.241,1.424 0.727,1.788c0.484,0.365 1.332,0.597 2.541,0.695c1.08,0.099 1.968,0.242 2.664,0.429c0.696,0.188 1.25,0.444 1.661,0.769c0.413,0.325 0.697,0.728 0.853,1.212c0.154,0.483 0.232,1.069 0.232,1.759" style="fill:#14469e;fill-rule:nonzero;"/><path d="M338.582,29.452l-14.375,10.557c31.113,0.968 52.261,-9.72 52.261,-9.72c-22.551,11.809 -46.359,12.871 -56.356,12.717l-17.128,12.572c-0,-0 53.551,-1.431 87.639,-36.838c0,0 -21.069,16.807 -52.041,10.712" style="fill:#d71920;fill-rule:nonzero;"/><path d="M403.006,55.348l-1.401,0c0,0 0.635,1.016 -0.252,2.418l-11.873,17.382l1.428,-16.541c0.284,-2.125 1.842,-3.271 1.842,-3.271l-5.065,0l-0,0.012l-12.781,0l-13.532,19.8l1.427,-16.437c0.004,-0.017 0.018,-0.036 0.021,-0.049c0.265,-2.148 1.846,-3.305 1.846,-3.305l-1.578,0l0,-0.005l-16.269,-0.004l0,0.009c-0.849,-0.044 -41.615,-2.077 -47.721,9.625c2.51,-5.43 4.209,-9.393 4.318,-9.561l-29.594,-0c0.309,0.098 1.942,1.053 1.389,2.709l0,0.004c-1.539,5.659 -5.299,18.775 -9.49,28.499c-5.497,12.728 -17.871,17.39 -26.364,20.636c-0.78,0.299 -0.658,0.92 0.157,0.925c20.897,0.139 38.053,-1.66 51.034,-25.866c3.009,-5.613 5.962,-11.753 8.28,-16.757c-0.148,0.37 -0.266,0.749 -0.357,1.161c-2.664,13.057 20.005,13.891 19.671,17.013c-0.3,2.75 -13.808,1.904 -22.717,-1.252c-0.048,-0.019 -0.084,-0.042 -0.118,-0.059c-1.714,-0.607 -2.436,-1.689 -2.436,-1.689l0.077,0.749l-0.008,-0.006c0,0 0.013,0.05 0.019,0.114l0.359,3.483c0.359,3.674 0.83,8.846 0.83,8.846c-0,-0 47.222,6.423 48.092,-10.095c0.655,-12.5 -22.087,-14.012 -21.835,-16.75c0.232,-2.567 11.302,-2.891 18.017,-1.817c0.019,0.005 0.035,0.012 0.053,0.012c3.005,0.51 3.428,2.259 3.428,2.259l0.492,-1.22l0.009,0c0.006,-0.055 4.061,-10.032 4.414,-10.899l-3.048,35.034l-0,0.004c-0.27,2.149 -1.847,3.311 -1.847,3.311l3.185,0l14.641,0.009l13.552,-19.825l-1.439,16.531c-0.276,2.131 -1.839,3.285 -1.839,3.285l1.557,0l0,0.007l16.275,-0.011l26.253,-38.414l-11.102,-0.004Z" style="fill:#14469e;fill-rule:nonzero;"/><path d="M446.717,93.74l-7.574,0l-11.523,-30.655l0.274,8.683l0,21.972l-5.817,0l0,-38.393l7.573,-0l11.524,30.656l-0.274,-8.801l-0,-21.855l5.817,-0l0,38.393Z" style="fill:#d71920;fill-rule:nonzero;"/><path d="M469.93,76.729c0,-1.338 -0.046,-2.51 -0.137,-3.514c-0.091,-1.004 -0.329,-1.821 -0.713,-2.452c-0.384,-0.629 -0.952,-1.102 -1.701,-1.417c-0.751,-0.315 -1.766,-0.473 -3.046,-0.473c-1.244,0 -2.25,0.148 -3.018,0.443c-0.769,0.296 -1.372,0.748 -1.811,1.358c-0.439,0.612 -0.733,1.418 -0.879,2.423c-0.146,1.004 -0.219,2.215 -0.219,3.632l11.524,-0Zm-5.597,12.345c1.098,0 2.104,-0.019 3.018,-0.059c0.914,-0.039 1.775,-0.098 2.579,-0.177c0.805,-0.078 1.583,-0.178 2.332,-0.295c0.751,-0.118 1.51,-0.256 2.278,-0.414l-0,5.198c-1.426,0.315 -2.936,0.57 -4.527,0.767c-1.592,0.197 -3.357,0.296 -5.296,0.296c-2.013,0 -3.786,-0.207 -5.323,-0.621c-1.537,-0.413 -2.818,-1.141 -3.841,-2.185c-1.025,-1.042 -1.793,-2.46 -2.305,-4.253c-0.514,-1.791 -0.769,-4.065 -0.769,-6.822l0,-3.071c0,-2.678 0.255,-4.902 0.769,-6.675c0.512,-1.771 1.262,-3.19 2.25,-4.252c0.987,-1.064 2.222,-1.821 3.704,-2.275c1.482,-0.452 3.191,-0.679 5.131,-0.679c1.829,0 3.457,0.217 4.884,0.65c1.427,0.434 2.635,1.181 3.622,2.244c0.987,1.064 1.737,2.482 2.251,4.253c0.511,1.772 0.767,4.017 0.767,6.734l0,3.78l-17.451,-0c0,1.497 0.091,2.738 0.274,3.721c0.183,0.985 0.503,1.793 0.961,2.422c0.457,0.631 1.06,1.074 1.811,1.33c0.749,0.256 1.71,0.383 2.881,0.383" style="fill:#d71920;fill-rule:nonzero;"/><path d="M498.246,77.438c0,-1.693 -0.101,-3.101 -0.301,-4.223c-0.202,-1.122 -0.531,-1.998 -0.987,-2.63c-0.459,-0.628 -1.08,-1.071 -1.867,-1.328c-0.787,-0.256 -1.747,-0.383 -2.881,-0.383c-1.171,-0 -2.14,0.127 -2.908,0.383c-0.769,0.257 -1.382,0.7 -1.839,1.328c-0.458,0.632 -0.787,1.508 -0.988,2.63c-0.201,1.122 -0.302,2.53 -0.302,4.223l0,3.072c0,1.732 0.101,3.151 0.302,4.252c0.201,1.104 0.53,1.97 0.988,2.599c0.457,0.631 1.07,1.073 1.839,1.329c0.768,0.256 1.737,0.384 2.908,0.384c1.134,0 2.094,-0.128 2.881,-0.384c0.787,-0.256 1.408,-0.698 1.867,-1.329c0.456,-0.629 0.785,-1.495 0.987,-2.599c0.2,-1.101 0.301,-2.52 0.301,-4.252l0,-3.072Zm5.927,3.072c0,2.637 -0.238,4.843 -0.713,6.615c-0.476,1.772 -1.208,3.2 -2.195,4.282c-0.988,1.084 -2.232,1.851 -3.732,2.304c-1.501,0.452 -3.275,0.68 -5.323,0.68c-2.049,-0 -3.823,-0.228 -5.323,-0.68c-1.5,-0.453 -2.744,-1.22 -3.732,-2.304c-0.988,-1.082 -1.719,-2.51 -2.195,-4.282c-0.476,-1.772 -0.714,-3.978 -0.714,-6.615l0,-3.072c0,-2.638 0.247,-4.843 0.741,-6.615c0.494,-1.772 1.235,-3.199 2.224,-4.282c0.987,-1.083 2.23,-1.851 3.73,-2.305c1.5,-0.452 3.257,-0.679 5.269,-0.679c2.011,0 3.768,0.227 5.268,0.679c1.5,0.454 2.744,1.222 3.732,2.305c0.988,1.083 1.729,2.51 2.223,4.282c0.493,1.772 0.74,3.977 0.74,6.615l0,3.072Z" style="fill:#d71920;fill-rule:nonzero;"/><path d="M531.448,85.322c-0,1.186 -0.102,2.322 -0.303,3.408c-0.201,1.088 -0.685,2.046 -1.453,2.874c-0.769,0.83 -1.921,1.503 -3.458,2.015c-1.537,0.513 -3.622,0.771 -6.256,0.771c-2.232,0 -4.084,-0.207 -5.555,-0.621c-1.471,-0.412 -2.64,-1.033 -3.506,-1.86c-0.869,-0.827 -1.478,-1.84 -1.828,-3.042c-0.351,-1.201 -0.526,-2.589 -0.526,-4.164l5.927,-0c-0,0.788 0.072,1.458 0.218,2.008c0.145,0.552 0.428,1.005 0.846,1.36c0.419,0.354 0.984,0.61 1.694,0.767c0.709,0.158 1.611,0.236 2.703,0.236c1.164,0 2.111,-0.078 2.839,-0.236c0.728,-0.157 1.292,-0.393 1.692,-0.709c0.401,-0.314 0.665,-0.699 0.793,-1.152c0.127,-0.452 0.191,-0.993 0.191,-1.625c-0,-0.668 -0.074,-1.248 -0.22,-1.741c-0.147,-0.493 -0.458,-0.906 -0.933,-1.241c-0.475,-0.334 -1.135,-0.61 -1.976,-0.827c-0.841,-0.215 -1.939,-0.384 -3.292,-0.502c-1.976,-0.157 -3.613,-0.443 -4.911,-0.856c-1.3,-0.414 -2.332,-0.965 -3.101,-1.654c-0.768,-0.689 -1.308,-1.537 -1.619,-2.54c-0.312,-1.005 -0.467,-2.175 -0.467,-3.515c0,-3.071 0.942,-5.325 2.827,-6.763c1.884,-1.437 4.563,-2.156 8.039,-2.156c3.952,0 6.777,0.738 8.478,2.215c1.702,1.477 2.552,3.987 2.552,7.532l-5.905,-0c-0,-0.592 -0.055,-1.162 -0.165,-1.713c-0.11,-0.551 -0.347,-1.025 -0.711,-1.418c-0.365,-0.393 -0.885,-0.709 -1.559,-0.945c-0.675,-0.236 -1.559,-0.354 -2.652,-0.354c-1.86,-0 -3.155,0.293 -3.884,0.879c-0.728,0.585 -1.093,1.504 -1.093,2.755c0,1.25 0.357,2.198 1.071,2.843c0.712,0.644 2.13,1.045 4.252,1.201c2.269,0.197 4.134,0.494 5.598,0.889c1.462,0.394 2.615,0.928 3.458,1.6c0.841,0.672 1.416,1.522 1.728,2.549c0.31,1.027 0.467,2.272 0.467,3.732" style="fill:#d71920;fill-rule:nonzero;"/><path d="M550.323,93.74c-0.548,0.197 -1.261,0.354 -2.14,0.473c-0.878,0.119 -1.701,0.178 -2.469,0.178c-2.597,-0 -4.427,-0.69 -5.488,-2.068c-1.061,-1.378 -1.59,-3.465 -1.59,-6.261l-0,-16.539l-3.897,0l-0,-4.43l3.897,-0.886l-0,-6.911l5.926,-1.358l-0,8.269l5.761,-0l0,5.316l-5.761,0l-0,16.598c-0,0.906 0.192,1.624 0.576,2.156c0.384,0.531 1.051,0.797 2.003,0.797c0.731,0 1.344,-0.059 1.838,-0.177c0.494,-0.118 0.942,-0.216 1.344,-0.295l0,5.138Z" style="fill:#d71920;fill-rule:nonzero;"/><path d="M571.781,76.729c-0,-1.338 -0.047,-2.51 -0.137,-3.514c-0.092,-1.004 -0.329,-1.821 -0.714,-2.452c-0.384,-0.629 -0.952,-1.102 -1.701,-1.417c-0.75,-0.315 -1.765,-0.473 -3.046,-0.473c-1.243,0 -2.25,0.148 -3.017,0.443c-0.769,0.296 -1.373,0.748 -1.812,1.358c-0.439,0.612 -0.732,1.418 -0.878,2.423c-0.147,1.004 -0.219,2.215 -0.219,3.632l11.524,-0Zm-5.598,12.345c1.098,0 2.104,-0.019 3.019,-0.059c0.914,-0.039 1.774,-0.098 2.579,-0.177c0.804,-0.078 1.582,-0.178 2.332,-0.295c0.75,-0.118 1.509,-0.256 2.277,-0.414l0,5.198c-1.426,0.315 -2.935,0.57 -4.527,0.767c-1.592,0.197 -3.357,0.296 -5.296,0.296c-2.012,0 -3.786,-0.207 -5.323,-0.621c-1.536,-0.413 -2.818,-1.141 -3.841,-2.185c-1.025,-1.042 -1.793,-2.46 -2.305,-4.253c-0.513,-1.791 -0.768,-4.065 -0.768,-6.822l-0,-3.071c-0,-2.678 0.255,-4.902 0.768,-6.675c0.512,-1.771 1.262,-3.19 2.25,-4.252c0.987,-1.064 2.222,-1.821 3.705,-2.275c1.481,-0.452 3.19,-0.679 5.13,-0.679c1.829,0 3.458,0.217 4.884,0.65c1.427,0.434 2.635,1.181 3.622,2.244c0.988,1.064 1.737,2.482 2.251,4.253c0.511,1.772 0.768,4.017 0.768,6.734l-0,3.78l-17.451,-0c-0,1.497 0.09,2.738 0.273,3.721c0.183,0.985 0.503,1.793 0.962,2.422c0.456,0.631 1.06,1.074 1.811,1.33c0.748,0.256 1.709,0.383 2.88,0.383" style="fill:#d71920;fill-rule:nonzero;"/><path d="M599.823,76.729c0,-1.338 -0.046,-2.51 -0.137,-3.514c-0.092,-1.004 -0.329,-1.821 -0.713,-2.452c-0.385,-0.629 -0.952,-1.102 -1.702,-1.417c-0.75,-0.315 -1.765,-0.473 -3.046,-0.473c-1.243,0 -2.249,0.148 -3.017,0.443c-0.769,0.296 -1.372,0.748 -1.811,1.358c-0.439,0.612 -0.733,1.418 -0.879,2.423c-0.147,1.004 -0.219,2.215 -0.219,3.632l11.524,-0Zm-5.598,12.345c1.099,0 2.104,-0.019 3.019,-0.059c0.914,-0.039 1.774,-0.098 2.579,-0.177c0.804,-0.078 1.583,-0.178 2.332,-0.295c0.75,-0.118 1.51,-0.256 2.277,-0.414l0,5.198c-1.426,0.315 -2.935,0.57 -4.526,0.767c-1.592,0.197 -3.358,0.296 -5.296,0.296c-2.013,0 -3.787,-0.207 -5.323,-0.621c-1.537,-0.413 -2.818,-1.141 -3.842,-2.185c-1.024,-1.042 -1.792,-2.46 -2.304,-4.253c-0.514,-1.791 -0.769,-4.065 -0.769,-6.822l-0,-3.071c-0,-2.678 0.255,-4.902 0.769,-6.675c0.512,-1.771 1.261,-3.19 2.25,-4.252c0.987,-1.064 2.222,-1.821 3.704,-2.275c1.481,-0.452 3.191,-0.679 5.13,-0.679c1.83,0 3.458,0.217 4.885,0.65c1.427,0.434 2.634,1.181 3.621,2.244c0.988,1.064 1.738,2.482 2.251,4.253c0.511,1.772 0.768,4.017 0.768,6.734l0,3.78l-17.451,-0c-0,1.497 0.091,2.738 0.274,3.721c0.183,0.985 0.503,1.793 0.961,2.422c0.457,0.631 1.06,1.074 1.811,1.33c0.749,0.256 1.709,0.383 2.88,0.383" style="fill:#d71920;fill-rule:nonzero;"/><rect x="611.237" y="54.166" width="5.927" height="39.574" style="fill:#d71920;"/></g></svg>